<svg width="392" height="294" viewBox="0 0 392 294" fill="none" xmlns="http://www.w3.org/2000/svg">
<path fill-rule="evenodd" clip-rule="evenodd" d="M136.057 160.781C136.602 164.444 137.972 167.664 139.129 171.093C139.676 172.715 140.528 174.367 141.365 175.856C141.907 176.821 142.594 179.113 143.588 177.774C143.753 178.473 143.536 178.815 143.766 179.461C144.089 180.373 145.767 181.508 146.497 182.211C147.201 182.888 147.974 183.407 148.731 184.005C148.881 184.123 149.192 184.027 149.313 184.164C149.539 184.421 149.328 184.776 149.424 184.897C150.61 186.387 152.669 187.446 154.212 188.542C156.416 190.107 158.611 191.672 160.759 193.313C162.458 194.61 164.078 195.977 165.762 197.276C166.569 197.898 167.18 198.514 167.78 199.325C168.524 200.332 168.636 200.377 168.119 201.416C167.193 203.275 165.523 204.474 164.408 206.142C163.137 208.044 162.32 210.17 160.593 211.757C159.821 210.016 158.823 212.56 160.105 212.292C159.51 214.058 158.179 215.562 157.29 217.224C156.24 219.188 155.092 220.972 153.849 222.818C153.723 222.361 153.596 221.903 153.469 221.446C152.26 221.735 153.228 222.621 153.317 222.988C153.393 223.3 153.656 223.332 153.468 224.009C153.328 224.518 152.839 224.95 152.53 225.373C151.834 226.323 151.185 227.301 150.528 228.278C149.881 229.239 149.655 230.032 149.238 230.971C148.865 231.81 148.523 231.651 147.923 232.268C147.303 232.906 146.686 234.017 146.134 234.752C144.49 236.938 143.014 239.441 141.891 241.928C140.822 244.3 138.847 245.966 137.944 248.481C137.483 249.764 137.314 251.114 136.914 252.412C136.539 253.623 135.927 254.749 135.695 256.007C135.503 257.05 135.626 258.259 135.533 259.175C135.457 259.922 135.144 261.07 135.237 262.124C135.433 264.345 136.354 266.272 137.454 268.122C132.437 269.822 126.729 270.3 121.466 270.176C118.776 270.113 115.71 270.088 113.078 270.71C111.556 271.07 110.387 271.518 108.788 271.393C107.191 271.267 105.595 271.117 103.998 270.98C104.464 270.04 105.987 268.857 106.841 268.137C107.334 267.72 108.148 267.622 108.525 267.22C108.957 266.76 109.089 265.613 109.243 265.059C110.427 260.811 111.302 256.524 112.043 252.178C113.353 244.498 113.861 236.68 114.345 228.953C114.38 228.397 114.652 227.725 114.638 227.197C114.616 226.345 114.446 225.865 114.511 225.053C114.552 224.539 115.166 223.852 115.139 223.398C115.115 222.998 114.432 223.302 114.433 222.703C114.435 221.841 115.667 220.6 115.924 219.827C116.023 219.527 115.657 219.125 115.62 218.79L115.618 218.73C115.634 218.739 115.905 217.519 115.917 217.469C116.006 217.079 116.358 216.956 116.341 216.467C116.325 216.045 115.707 215.494 116.041 215.055C116.269 214.756 117.101 215.237 117.288 214.896C117.53 214.458 116.468 212.96 116.586 212.281C116.778 211.177 117.566 210.056 117.835 208.921C117.954 208.415 117.822 207.624 118.215 207.206C118.855 206.523 119.413 207.222 120.337 206.994C119.394 206.194 119.212 205.493 119.49 204.325C119.708 203.413 120.142 202.4 121.139 203.311C120.99 201.95 120.995 201.737 122.012 200.706C122.505 200.206 123.036 199.365 123.625 199.027C123.804 198.84 123.982 198.652 124.161 198.465C124.402 198.717 124.69 198.86 125.022 198.892C127.873 198.741 129.296 198.157 131.914 199.866C133.018 200.587 134.119 201.127 135.068 202.065C136.126 203.112 136.98 204.345 138.114 205.323C139.381 206.417 140.632 207.315 141.763 208.569C142.698 209.607 143.597 210.782 144.85 211.416C144.946 209.915 144.126 208.573 143.408 207.263C143.322 207.106 142.698 206.684 142.712 206.731C142.636 206.468 142.923 206.241 142.834 206.008C143.92 206.99 145.043 208.447 146.286 209.183C148.316 210.383 147.414 208.041 147.027 206.837C145.923 203.404 143.923 200.114 141.61 197.343C137.564 192.496 130.814 187.085 124.354 190.136C117.952 193.16 114.58 198.238 112.743 204.993C110.611 212.834 109.632 220.326 109.43 228.448C109.313 233.098 108.839 237.71 108.35 242.334C107.873 246.846 107.678 251.734 106.767 256.165C106.196 255.333 105.859 254.705 105.574 253.771C105.458 253.393 105.603 253.023 105.405 252.651C105.314 252.48 104.852 252.501 104.766 252.345C104.056 251.065 103.06 249.305 102.734 247.832C102.562 247.056 102.719 246.603 102.387 245.897C102.075 245.236 101.918 245.863 101.799 245.046C101.782 244.933 102.305 244.746 102.144 244.217C101.737 242.881 101.45 244.147 101.255 244.139C100.852 244.122 101.762 241.381 101.69 240.95C101.607 240.455 101.376 240.725 101.264 240.365C101.163 240.038 101.039 239.567 100.963 239.115C100.732 237.735 100.209 237.285 100.185 235.792C100.157 233.991 99.4891 232.831 99.19 231.11C99.1346 230.793 99.4811 230.437 99.4184 230.159C99.2885 229.582 98.8704 229.103 98.7078 228.493C98.368 227.217 99.0462 226.117 98.9519 224.889C98.9672 225.09 98.5703 223.984 98.5455 223.887C98.4025 223.325 98.4637 222.572 98.3506 221.961C98.244 221.387 97.8906 220.621 98.2071 220.084C98.4233 219.717 98.9097 219.817 99.1928 219.408C98.1528 219.073 98.3711 219.438 97.9954 218.291C97.6368 217.196 97.602 216.278 98.79 217.002C98.4898 216.263 97.931 215.356 97.8092 214.564C97.6981 213.841 97.9641 213.141 97.8879 212.421C97.6842 210.493 97.0899 209.32 98.1859 207.45C96.7421 206.712 97.367 204.14 97.1431 202.741C96.9008 201.223 96.3096 199.772 97.4492 198.775C96.0043 197.737 96.7389 194.37 96.7657 192.763C96.7915 191.225 96.6714 189.666 96.6895 187.879C96.7003 186.869 96.4158 186.175 96.1749 185.176C95.864 183.889 96.1801 182.901 96.0739 181.657C95.9893 180.668 95.6157 179.674 95.5653 178.621C95.5134 177.546 95.6029 176.34 95.4514 175.284C95.3254 174.41 95.1165 173.785 95.0945 172.841C95.0883 172.561 94.9518 172.059 95.0092 171.798C95.0072 171.808 95.3988 170.898 95.396 171.3C95.4075 169.805 94.659 168.344 95.0514 166.522C95.3741 165.026 95.6446 165.271 97.1536 165.364C98.344 165.437 99.534 165.516 100.727 165.52C102.272 165.527 107.241 164.455 108.359 165.544C109.285 166.446 108.747 170.715 108.81 172.004C108.912 174.103 106.903 174.745 106.345 176.888C105.283 180.975 107.038 186.369 111.826 186.718C116.292 187.044 120.577 183.372 119.964 178.858C119.717 177.047 118.883 175.076 117.307 174.015C115.784 172.99 112.546 173.763 111.485 172.527C110.99 171.95 111.186 169.709 111.129 168.956C111.045 167.862 110.544 165.672 111.265 165.154C112.08 164.568 114.595 164.556 115.525 164.554C116.842 164.55 118.041 164.552 119.349 164.331C122.242 163.841 125.127 163.86 127.969 163.219C130.791 162.583 133.398 161.918 136.057 160.781ZM170.539 160.781C171.126 160.767 172.389 165.632 172.722 166.49C173.632 168.835 174.005 171.201 174.511 173.667C175.031 176.2 175.496 178.773 176.17 181.268C176.675 183.143 176.562 184.958 177.242 186.846C177.062 188.014 177.224 190.033 175.933 190.536C174.766 190.99 174.008 189.881 173.574 188.92C172.404 186.324 172.78 182.859 172.353 180.068C171.849 176.773 171.82 173.526 171.425 170.226C171.077 167.319 169.899 163.647 170.539 160.781ZM119.592 94.1164C120.872 95.5608 122.751 94.9546 124.437 94.7945C123.722 96.4199 122.695 98.1592 122.657 99.9792C122.637 100.923 123.145 101.762 123.14 102.662C123.134 103.556 122.409 104.389 122.065 105.218C120.522 108.939 120.148 113.979 120.091 117.974C119.972 126.239 122.446 135.043 127.708 141.523C128.818 142.89 130.066 144.154 131.461 145.233C132.22 145.819 135.715 147.212 135.879 148.035C136.196 149.63 132.609 149.473 131.63 149.615C129.571 149.916 127.535 150.347 125.473 150.624C117.209 151.735 109.051 152.623 100.719 152.174C99.7973 152.125 98.0736 152.584 97.2023 152.215C96.1785 151.781 96.5278 150.919 96.5525 149.91C96.6162 147.321 96.244 144.775 96.0267 142.203C95.8509 140.122 96.3272 140.4 97.8528 139.248C99.4302 138.057 100.973 135.846 101.488 133.951C102.955 135.134 101.892 135.771 102.101 137.289C102.356 139.141 103.608 138.837 104.433 137.598C105.714 135.675 105.601 132.637 104.404 130.715C103.332 128.995 99.5061 126.353 97.3357 127.14C94.4479 128.188 97.5909 131.702 98.9573 132.464C98.6203 133.436 96.7548 134.291 95.9236 134.825C94.7696 135.566 93.2723 135.996 91.9382 136.407C88.379 137.502 84.9202 137.661 81.2471 137.124C77.7175 136.609 73.6757 135.46 71.3987 132.567C70.4139 131.316 69.5085 129.411 70.4532 127.845C71.3043 126.433 73.4083 126.335 74.4428 124.967C74.8896 124.377 75.1045 123.593 75.515 123.022C76.1829 122.092 75.9141 122.258 77.1698 122.364C79.2023 122.537 81.3697 122.668 83.3713 122.178C84.8756 121.81 86.3405 121.122 87.8125 120.683C89.375 120.218 90.8563 119.238 92.0646 118.183C94.8515 115.748 97.5798 113.102 100.16 110.448C102.725 107.811 104.368 104.416 106.77 101.619C109.491 98.449 112.108 94.3974 116.097 92.6525C118.389 91.6503 118.347 92.7101 119.592 94.1164ZM129.283 104.653C129.671 105.059 129.424 107.386 129.794 108.128C131.215 110.981 133.702 110.351 136.275 109.751C136.497 112.037 136.668 114.612 137.591 116.742C138.003 117.694 138.654 118.511 138.987 119.505C139.197 120.135 139.113 120.934 139.351 121.52C139.608 122.153 140.26 122.641 140.641 123.265C141.101 124.019 141.343 124.723 141.949 125.382C143.275 126.825 145.075 128.049 146.09 129.77C146.506 130.476 146.58 131 146.567 131.823C146.563 132.118 146.355 133.201 146.448 133.419C146.786 134.22 148.002 134.427 148.137 135.462C148.213 136.043 147.896 135.974 147.788 136.458C147.659 137.041 147.752 137.441 147.539 138.09C147.2 139.121 145.706 141.06 145.861 141.948C143.663 143.158 139.798 143.925 137.336 143.372C134.818 142.807 132.301 139.949 130.676 138.076C126.861 133.679 124.64 126.735 124.432 120.984C124.326 118.066 124.715 115.134 124.853 112.22C124.93 110.579 124.58 105.955 125.971 104.805C126.282 104.548 129.01 104.368 129.283 104.653ZM108.759 110.158C105.366 110.352 102.454 115.664 103.082 118.767C103.598 121.314 104.468 119.345 105.128 118.251C105.908 116.959 107.319 115.398 108.994 115.729C110.855 116.098 111.33 118.365 112.089 119.802C113.473 122.424 113.904 119.609 114.211 118.018C113.967 114.906 112.825 109.925 108.759 110.158Z" fill="#7ED321"/>
<path fill-rule="evenodd" clip-rule="evenodd" d="M313.282 268.885C311.513 269.434 309.854 270.243 308.15 270.965C306.215 271.785 304.864 271.929 302.751 271.926C294.571 271.914 286.476 272.334 278.281 272.499C276.042 272.544 273.77 272.566 271.531 272.526C270.627 272.509 269.741 272.407 268.842 272.333C268.26 272.285 265.726 272.633 265.388 272.429C264.439 271.858 265.002 268.177 264.887 266.997C264.687 264.949 264.168 262.975 263.446 261.051C260.862 254.166 256.516 247.449 251.022 242.535C258.451 239.416 266.556 235.302 274.8 237.153C277.94 237.858 282.103 238.78 283.72 241.818C285.446 245.061 286.957 248.627 288.93 251.732C291.135 255.202 293.476 258.176 296.669 260.778C297.928 261.805 304.276 268.115 303.312 263.244C303.002 261.682 301.86 260.23 300.947 258.955C300.483 258.306 297.981 256.178 298.371 255.426C298.808 254.583 303.32 253.989 304.286 253.721C306.284 253.167 308.27 252.576 310.26 251.995C309.54 253.351 305.627 258.481 308.127 259.793C309.046 260.274 311.422 258.568 312.429 258.268C314.144 257.758 315.712 258.094 317.398 258.599C317.354 259.427 315.728 259.438 315.187 260.003C314.397 260.831 313.842 263.061 314.462 264.052C315.616 265.899 320.085 264.014 322.084 264.715C319.837 267.033 316.313 267.944 313.282 268.885ZM201.66 192.659C201.683 192.707 201.64 192.774 201.372 193.007C201.29 192.712 201.144 192.648 200.964 192.729C201.109 192.571 201.228 192.489 201.372 193.007C201.485 192.909 201.579 192.787 201.66 192.659ZM202.343 191.687C202.289 191.865 202.167 191.948 201.981 191.943C201.991 191.912 202 191.883 202.007 191.861C202.131 191.474 202.296 191.54 202.241 190.828C202.315 190.947 202.371 191.067 202.33 191.187C202.447 191.367 202.451 191.534 202.343 191.687ZM182.459 225.099C182.648 224.643 182.698 224.114 182.941 223.695C182.703 224.12 182.699 224.643 182.459 225.099ZM259.315 272.139C256.354 272.021 253.469 272.074 250.508 272.202C244.183 272.478 237.829 272.518 231.516 273.026C228.428 273.274 225.459 273.369 222.362 273.265C219.653 273.174 216.935 273.27 214.236 273.043C211.271 272.794 208.496 271.975 205.504 271.93C202.643 271.888 199.237 271.557 196.462 271.975C195.983 272.047 195.725 272.352 195.16 272.426C194.379 272.527 193.28 272.209 192.48 272.155C191.077 272.061 189.526 272.216 188.157 271.889C187.687 271.777 187.358 271.604 186.902 271.42C186.49 271.254 185.568 271.127 185.342 271.067C186.646 270.581 183.752 269.59 183.519 269.536C183.46 269.733 183.59 270.01 183.804 270.278C183.064 269.71 183.857 269.92 182.646 269.344C182.136 269.102 181.174 268.946 180.603 268.882C180.053 268.82 179.757 268.885 179.507 268.871C179.558 268.815 179.607 268.74 179.656 268.64C180.06 267.806 178.828 266.854 178.136 267.414C178.216 267.577 178.346 267.878 178.503 268.174C178.496 268.166 178.49 268.16 178.483 268.151C178.226 267.855 177.744 267.097 177.263 266.587C177.872 266.251 177.127 265.794 176.846 265.325C176.654 265.431 176.441 265.52 176.331 265.667C176.491 265.333 176.887 265.031 176.655 264.381C176.588 264.195 176.412 263.915 176.192 263.719C176.401 263.883 176.619 264.065 176.901 264.026C176.549 263.491 176.419 263.29 176.284 262.754C176.19 262.377 176.717 262.013 176.216 261.672C176.231 261.317 176.443 259.684 175.556 260.254C175.556 260.254 175.556 260.254 175.556 260.254C175.556 260.254 175.556 260.253 175.557 260.252C176.124 258.517 177.089 256.725 177.807 255.028C179.478 251.076 181.195 247.094 182.944 243.177C185.835 236.697 188.854 230.233 192.181 223.927C195.479 217.675 199.08 211.629 202.193 205.291C205.195 199.177 208.698 193.326 211.721 187.222C213.146 184.346 215.054 181.969 215.54 178.628C215.697 177.546 215.747 175.29 214.109 175.695C213.044 175.959 211.554 178.624 210.867 179.491C210.252 178.646 206.779 173.68 205.848 176.639C205.049 179.176 210.05 180.281 208.055 182.836C207.857 183.089 207.037 183.345 206.768 183.579C206.244 184.035 205.765 184.84 205.36 185.389C204.438 186.643 203.676 187.975 202.823 189.272C202.663 189.516 202.076 190.068 202.031 190.353C202.007 190.505 202.135 190.661 202.234 190.818C201.54 191.432 200.666 191.974 200.503 192.969C200.551 192.99 200.596 192.993 200.638 192.985C199.993 193.659 199.177 195.293 199.061 195.464C198.192 196.727 197.34 198.049 196.481 199.382C196.017 200.103 195.206 200.95 194.939 201.76C194.847 202.04 195.117 202.542 194.865 202.804C194.203 203.493 193.556 203.346 193.061 204.732C192.866 205.278 192.849 206.041 192.536 206.509C192.034 207.26 191.315 207.613 190.846 208.421C189.956 209.954 188.889 211.637 188.328 213.183C188.326 213.19 188.326 213.196 188.324 213.202C188.304 213.081 188.278 212.949 188.247 212.806C187.929 213.377 187.611 213.948 187.294 214.519C187.843 214.412 188.138 214.262 188.271 214.018C188.256 214.1 188.23 214.184 188.18 214.273C187.899 214.403 187.603 214.484 187.294 214.519C187.081 214.87 186.882 215.229 186.696 215.596C186.605 215.781 186.298 216.91 186.169 217.765C186.122 217.433 186.074 217.135 186.069 217.096C185.666 217.871 185.263 218.647 184.86 219.423C185.591 218.861 185.55 218.765 186.246 218.751C185.369 218.769 184.041 220.001 183.919 221.185C183.899 221.377 184.017 221.588 184.121 221.787C184.097 221.783 184.073 221.78 184.046 221.778C183.127 221.7 183.395 221.885 183.047 222.651C183.18 222.597 183.954 222.296 184.244 222.06C184.276 222.161 184.281 222.253 184.232 222.332C184.004 222.693 182.144 222.46 183.339 223.263C182.346 222.596 181.849 224.787 182.187 225.54C181.92 225.925 181.602 226.281 181.302 226.639C180.566 227.516 180.159 228.182 179.677 229.251C178.856 231.071 177.877 232.877 176.979 234.662C176.639 235.341 176.242 235.919 175.824 236.549C175.082 237.667 175.213 237.388 175.798 238.606C175.578 238.535 175.253 238.708 174.939 238.958C175.11 238.669 175.328 238.454 175.798 238.606C175.056 237.061 174.419 238.944 174.077 239.83C174.092 239.83 174.105 239.826 174.119 239.825C174.073 239.894 174.038 239.955 174.016 240.003C173.668 240.722 173.256 241.162 173.554 241.916C173.639 241.496 173.979 241.172 174.124 240.812C173.92 241.691 172.962 242.743 172.673 243.325C172.432 243.809 172.398 244.316 172.103 244.842C171.825 245.336 171.575 245.669 171.362 246.233C170.332 248.965 169.83 252.008 169.18 254.877C168.411 258.268 168.094 261.871 167.93 265.341C167.882 266.35 167.856 267.242 168.219 268.199C168.272 268.338 168.837 269.077 168.823 269.347C168.745 270.759 166.093 270.466 165.073 270.425C163.452 270.36 162.348 270.622 160.791 270.847C159.355 271.055 157.945 270.941 156.486 271.294C154.063 271.879 150.455 272.806 148.112 271.52C146.979 270.898 145.553 269.096 144.731 268.084C143.719 266.839 143.379 265.571 143.198 263.985C142.888 261.272 142.867 258.274 143.81 255.681C148.193 243.633 155.712 232.68 162.197 221.715C168.281 211.426 175.103 201.673 181.2 191.412C184.423 185.987 188.301 180.621 192.134 175.607C196.053 170.483 198.849 164.908 201.612 159.108C204.475 160.626 207.506 162.188 210.708 162.874C212.529 163.265 214.336 163.146 216.172 163.272C217.525 163.365 218.657 163.685 220.035 163.72C226.078 163.873 233.059 163.15 238.835 161.365C240.221 160.937 241.46 160.492 242.759 159.876C244.418 159.088 244.866 158.754 244.96 160.584C245.142 164.128 245.721 167.573 245.993 171.096C246.259 174.53 246.95 177.917 247.562 181.31C247.872 183.028 248.205 184.745 248.46 186.472C248.653 187.783 249.235 189.606 249.003 190.916C248.749 192.362 247.378 193.83 246.594 195.064C245.798 196.317 244.998 197.566 244.204 198.82C242.715 201.17 241.234 203.401 239.476 205.558C236.217 209.557 233.442 213.739 230.353 217.868C227.071 222.253 224.344 226.989 221.124 231.418C219.423 233.758 217.684 235.965 216.569 238.6C215.644 240.787 213.783 242.797 212.645 244.96C211.151 247.801 209.25 250.402 207.766 253.257C206.73 255.25 204.729 257.279 204.519 259.595C204.168 263.483 207.864 259.598 208.719 258.514C209.867 257.061 211.125 254.516 212.849 253.728C214.08 253.165 215.878 253.227 217.215 252.786C218.616 252.324 219.99 251.845 221.404 251.423C224.159 250.6 226.817 249.438 229.495 248.393C232.267 247.311 235.038 246.219 237.758 245.016C239.017 244.459 240.078 244.174 241.423 243.931C242.002 243.827 244.074 242.849 244.529 242.932C245.295 243.071 246.351 245.322 246.932 245.901C247.827 246.794 248.834 247.523 249.67 248.484C251.317 250.375 253.062 252.391 254.49 254.446C257.681 259.039 260.666 264.056 261.801 269.588C262.311 272.07 261.716 272.235 259.315 272.139ZM176.319 266.136C176.3 266.094 176.288 266.054 176.28 266.015C176.29 266.054 176.299 266.092 176.319 266.136C176.697 265.911 176.798 266.03 176.836 266.214C176.646 266.091 176.469 266.047 176.319 266.136ZM175.439 263.572C175.424 263.502 175.417 263.438 175.414 263.378C175.42 263.442 175.425 263.506 175.439 263.572C175.646 263.433 175.819 263.472 175.985 263.572C175.808 263.476 175.618 263.452 175.439 263.572ZM175.819 261.894C175.935 261.885 176.067 261.822 176.216 261.672C176.094 261.795 175.979 261.924 175.874 262.059C175.876 262.042 175.879 262.026 175.88 262.009C175.882 261.977 175.856 261.937 175.819 261.894ZM138.192 247.837C137.332 249.865 136.974 252.084 136.243 254.161C135.684 255.75 135.461 257.32 135.314 258.982C135.824 259.358 135.813 259.688 135.28 259.975C135.242 260.336 135.229 260.699 135.241 261.062C135.103 262.12 135.307 263.041 135.587 264.055C136.031 265.663 136.593 266.818 137.418 268.208C132.41 269.907 126.706 270.385 121.452 270.263C118.612 270.196 115.427 270.19 112.66 270.89C109.681 271.645 107.068 271.329 104.007 271.066C104.455 270.165 106.164 268.662 107.029 268.036C107.469 267.718 108.194 267.664 108.528 267.307C109.005 266.799 109.061 265.812 109.246 265.146C110.427 260.897 111.3 256.613 112.042 252.267C113.349 244.607 113.956 236.765 114.341 229.046C114.374 228.393 114.711 227.661 114.695 227.042C114.673 226.23 114.441 225.964 114.506 225.147C114.548 224.615 115.187 223.892 115.141 223.419C115.111 223.122 114.385 223.378 114.429 222.798C114.496 221.903 115.654 220.724 115.917 219.922C116.034 219.565 115.598 219.209 115.612 218.819C115.608 218.93 115.899 217.612 115.91 217.565C115.998 217.186 116.353 217.027 116.334 216.563C116.316 216.141 115.701 215.589 116.034 215.152C116.371 214.709 117.068 215.378 117.28 214.992C117.521 214.553 116.461 213.057 116.579 212.378C116.785 211.19 117.593 209.912 117.91 208.706C118.028 208.253 117.837 207.694 118.205 207.303C118.846 206.621 119.401 207.32 120.325 207.091C119.409 206.313 119.207 205.563 119.479 204.422C119.699 203.496 120.124 202.494 121.125 203.409C120.993 202.203 120.852 202.081 121.718 201.073C122.466 200.204 123.435 199.162 124.33 198.496C125.667 197.5 127.803 196.987 129.389 196.87C131.121 196.742 133.249 197.67 134.56 198.979C136.153 200.571 138.215 201.731 140.023 203.253C141.954 204.877 143.612 206.807 145.467 208.529C145.848 208.883 146.549 209.872 147.138 209.701C148.097 209.424 147.322 207.992 147.112 207.355C145.616 202.823 142.928 198.256 139.23 195.164C137.323 193.569 135.425 191.552 133.208 190.39C131.417 189.452 130.019 189.599 128.115 189.532C126.487 189.475 126.153 189.379 124.701 190.064C123.673 190.549 122.654 191.023 121.683 191.617C120.131 192.566 118.53 193.719 117.382 195.153C114.328 198.971 113.135 203.826 111.935 208.478C110.614 213.596 109.705 218.596 109.545 223.906C109.382 229.309 109.132 234.632 108.599 240.013C108.322 242.812 108.003 245.604 107.642 248.393C107.308 250.964 107.291 253.728 106.773 256.253C106.12 255.302 105.918 254.568 105.558 253.543C105.314 252.854 105.068 252.878 104.716 252.369C103.971 251.292 103.039 249.251 102.745 247.922C102.566 247.11 102.732 246.703 102.399 245.988C102.296 245.767 101.736 245.94 101.647 245.59C101.582 245.339 101.933 245.145 101.917 245.06C101.881 244.862 102.425 244.642 101.955 244.02C101.287 243.136 101.629 244.245 101.268 244.23C100.968 244.217 101.869 241.167 101.763 240.724C101.726 240.568 101.214 240.547 101.173 240.402C101.049 239.962 101.077 239.325 100.957 238.847C100.661 237.682 100.221 237.215 100.2 235.884C100.171 234.126 99.5198 232.881 99.2062 231.203C99.1457 230.88 99.5007 230.531 99.4343 230.253C99.2998 229.685 98.8794 229.188 98.7247 228.586C98.4267 227.429 98.8245 225.797 98.7431 224.856C98.6715 224.032 98.4406 222.696 98.2887 221.672C98.0415 220.007 98.4858 220.551 99.209 219.503C98.2063 219.18 98.3339 219.464 98.0133 218.387C97.6437 217.142 97.6778 216.408 98.8067 217.097C98.5067 216.358 97.9497 215.452 97.8273 214.66C97.7136 213.924 97.9827 213.248 97.9059 212.517C97.6972 210.54 97.0801 209.466 98.2035 207.547C96.7595 206.808 97.3885 204.261 97.1621 202.839C96.9184 201.306 96.3263 199.873 97.4678 198.874C96.294 198.029 96.7588 195.607 96.7637 194.313C96.7658 193.726 96.9646 192.694 96.9142 192.173C96.8791 191.806 96.6298 191.56 96.5575 191.134C96.2908 189.552 96.8798 187.987 96.5255 186.414C96.126 184.641 96.0794 183.129 95.9424 181.392C95.81 179.708 95.5495 177.958 95.4376 176.232C95.3548 174.952 94.8552 173.566 95.0854 172.239C95.1035 172.134 95.4084 171.19 95.4171 171.404C95.4028 171.062 95.1546 170.64 95.1431 170.437C95.0614 168.901 95.0322 167.649 95.0979 166.09C95.0948 166.09 95.0913 166.089 95.0882 166.09C95.2783 165.974 95.3809 165.734 95.3889 165.359C96.8256 165.22 98.3971 165.571 99.8491 165.61C101.414 165.652 102.973 165.573 104.536 165.501C105.542 165.455 107.709 164.978 108.474 165.818C109.029 166.426 108.68 169.556 108.717 170.37C108.761 171.332 109.248 172.842 108.685 173.683C108.336 174.205 107.547 174.414 107.14 174.987C106.893 175.336 106.691 175.921 106.56 176.3C106.162 177.441 106.004 178.673 106.065 179.879C106.352 185.522 110.874 188.113 115.952 185.839C120.375 183.859 121.578 177.867 117.777 174.51C116.883 173.72 115.929 173.519 114.787 173.324C114.062 173.2 112.081 173.276 111.607 172.758C111.136 172.244 111.251 170.641 111.199 169.974C111.115 168.903 110.685 167.312 110.918 166.279C110.535 165.418 110.791 165.054 111.684 165.186C111.967 165.129 112.25 165.073 112.533 165.016C113.246 164.886 113.946 164.731 114.67 164.681C115.96 164.592 117.218 164.745 118.509 164.573C119.775 164.404 121.017 164.087 122.285 163.923C123.633 163.749 124.957 163.943 126.291 163.714C129.06 163.24 132.036 162.602 134.626 161.513C135.32 161.222 136.496 160.383 137.266 160.521C138.188 160.688 137.942 161.274 138.207 162.151C139.68 167.015 142.74 171.821 145.979 175.687C149.037 179.338 153.068 182.281 156.713 185.343C158.924 187.199 161.046 189.15 163.098 191.179C164.587 192.652 166.185 194.954 168.109 195.803C168.547 195.819 170.238 195.626 170.547 195.943C170.903 196.308 170.882 196.511 170.739 196.739C171.148 195.663 169.204 195.844 168.109 195.803C168.233 196.012 169.463 198.478 169.767 197.106C169.943 197.212 170.12 197.317 170.297 197.422C169.423 199.353 168.291 201.289 167.061 203.017C166.165 204.277 165.008 205.188 164.204 206.494C163.189 208.142 162.343 209.852 161.058 211.321C158.493 214.25 157.066 218.187 154.83 221.437C153.756 222.999 153.195 224.451 152.077 226.005C151.203 227.222 149.786 228.761 149.276 230.16C149.073 230.72 149.291 231.205 148.919 231.724C148.683 232.051 147.986 232.407 147.657 232.747C146.35 234.096 145.332 236.021 144.307 237.609C143.216 239.299 142.455 241.053 141.531 242.814C140.583 244.621 139.013 245.901 138.192 247.837ZM104.196 255.55C103.517 255.56 103.262 255.564 103.186 255.266C103.164 255.176 103.157 255.059 103.16 254.908C103.157 255.059 103.164 255.176 103.186 255.266C103.262 255.564 103.517 255.56 104.196 255.549V255.55ZM104.281 253.02C104.351 253.21 103.928 253.532 102.803 253.413C103.917 253.531 104.343 253.211 104.281 253.02ZM101.515 259.372C101.616 259.461 101.714 259.554 101.809 259.65C101.714 259.554 101.616 259.461 101.515 259.372ZM94.5009 272.654C93.5851 272.334 91.2023 271.768 89.6509 271.098C90.3429 271.293 91.0633 271.452 91.3404 271.549C92.3935 271.917 93.4471 272.286 94.5009 272.654C95.9932 267.275 101.596 265.224 106.391 263.238C104.081 263.141 103.256 261.136 101.86 259.703C103.253 261.133 104.091 263.142 106.391 263.238C101.597 265.224 95.9932 267.275 94.5009 272.654ZM89.2601 267.238C89.2076 267.326 89.1555 267.416 89.103 267.514C88.9601 267.781 88.4219 268.977 88.1959 269.762C88.1503 268.955 88.6291 268.011 89.2601 267.238ZM94.535 165.098C94.6205 165.063 94.6894 165.058 94.7519 165.063C94.5013 165.074 94.4331 165.372 94.4223 165.785C94.2047 165.553 94.1529 165.25 94.535 165.098ZM111.937 177.528C113.569 178.339 115.154 178.811 116.711 179.792C114.801 181.277 108.7 183.677 108.882 179.085C108.903 178.55 109.216 177.113 109.704 176.795C110.447 176.311 111.289 177.207 111.937 177.528ZM93.2454 156.151C100.435 158.66 108.812 158.039 116.119 156.816C123.971 155.501 131.81 154.727 139.415 152.266C139.423 153.325 139.882 154.434 139.043 155.307C138.385 155.992 136.959 156.121 136.09 156.41C133.816 157.164 131.863 158.262 129.486 158.713C126.824 159.217 124.164 159.207 121.479 159.506C120.507 159.614 119.592 159.788 118.679 159.964C117.414 159.983 116.423 160.154 115.16 160.505C110.643 160.526 106.156 160.66 101.658 160.122C99.3731 159.848 97.1135 159.514 94.8229 159.28C92.6776 159.062 93.1567 158.137 93.2454 156.151ZM90.4948 136.851C86.2606 138.021 81.8936 137.671 77.7275 136.332C74.7151 135.364 70.7188 133.946 70.0853 130.279C69.667 127.861 71.1165 127.422 72.8213 126.418C73.6369 125.938 74.0337 125.575 74.5823 124.761C74.9078 124.278 75.2005 123.065 75.5659 122.734C76.4564 121.928 79.2668 122.636 80.66 122.574C82.7364 122.481 84.1439 121.783 86.0541 121.167C89.4281 120.079 91.5633 118.759 94.1824 116.269C96.7303 113.848 99.7218 111.384 101.782 108.53C104.089 105.334 106.297 102.224 108.81 99.1764C110.672 96.9178 114.051 92.3968 117.392 92.4175C119.069 92.428 118.821 94.01 120.153 94.8137C121.369 95.5476 122.96 95.0369 124.297 94.9099C123.416 96.9126 122.194 98.9723 122.626 101.239C122.868 102.508 122.997 102.946 122.502 104.147C122.049 105.244 121.559 106.216 121.278 107.391C120.185 111.97 119.668 117.123 120.127 121.805C120.92 129.909 123.697 138.277 129.772 143.999C131.157 145.303 132.68 146.346 134.376 147.204C136.068 148.06 136.208 148.952 134.112 149.334C130.03 150.078 125.886 150.587 121.774 151.14C117.668 151.692 113.489 152.269 109.348 152.354C107.3 152.396 105.264 152.651 103.216 152.505C102.196 152.433 101.183 152.251 100.16 152.223C99.2674 152.198 97.9344 152.644 97.1034 152.292C95.8027 151.741 96.4494 147.934 96.3541 146.612C96.2442 145.095 95.287 142.25 95.8555 140.816C96.255 139.81 97.7212 139.387 98.4809 138.604C99.7274 137.318 100.906 135.794 101.382 134.041C102.961 135.315 101.603 136.132 102.082 137.685C102.605 139.381 103.569 138.848 104.324 137.685C105.584 135.743 105.499 132.743 104.294 130.807C103.597 129.687 102.464 128.846 101.301 128.247C100.361 127.763 98.2786 126.813 97.2369 127.234C94.4098 128.376 97.4187 131.752 98.8557 132.554C98.5105 133.551 96.0617 134.99 95.1281 135.416C93.7412 136.049 91.9836 136.44 90.4948 136.851ZM129.297 105.93C129.334 106.473 129.392 106.992 129.572 107.512C129.937 108.572 130.669 109.49 131.677 110.015C133.632 111.033 137.598 109.567 139.317 108.366C139.317 112.006 139.97 114.902 141.014 118.356C142.025 121.698 144.093 124.417 145.852 127.384C146.764 128.922 147.602 130.511 148.89 131.774C150.199 133.058 150.417 133.55 150.298 135.443C150.101 138.561 148.616 140.688 145.809 141.979C143.586 143.212 138.994 144.213 136.571 143.183C134.024 142.1 131.543 139.296 129.894 137.138C126.147 132.235 124.246 124.85 124.474 118.754C124.593 115.579 124.761 112.33 125.064 109.167C125.286 106.862 125.205 103.548 128.558 104.587C129.641 104.922 129.21 104.672 129.297 105.93ZM142.162 148.505C142.485 147.847 145.33 147.185 145.826 147.571C146.577 148.157 146.608 151.574 146.872 152.546C147.291 154.09 147.842 155.615 148.505 157.071C149.898 160.124 151.895 163.278 154.266 165.656C156.722 168.12 159.545 169.827 162.527 171.592C163.379 172.097 164.204 172.706 165.08 173.164C165.447 173.356 166.128 173.446 166.418 173.735C167.133 174.451 166.802 175.92 166.794 176.852C166.76 180.584 166.772 184.196 167.267 187.879C164.345 185.617 161.704 182.746 159.102 180.109C156.374 177.343 152.862 175.518 150.275 172.589C147.921 169.925 146.069 166.82 144.34 163.738C143.583 162.388 142.14 160.667 142.088 159.089C142.031 157.387 142.808 155.585 142.817 153.823C142.822 152.576 141.682 149.485 142.162 148.505ZM177.254 186.613C177.076 187.74 177.218 190.157 175.65 190.4C174.57 190.567 173.906 189.542 173.51 188.684C172.315 186.09 172.71 182.631 172.264 179.845C171.737 176.555 171.725 173.312 171.317 170.017C170.958 167.112 169.76 163.448 170.413 160.585C171.005 160.571 172.605 166.172 172.95 167.06C173.661 168.889 174.479 170.428 175.093 172.324C175.908 174.835 176.614 177.233 176.989 179.861C177.253 181.708 178.243 184.987 177.254 186.613ZM185.928 174.228C184.464 176.5 182.884 178.867 180.822 180.762C180.822 179.702 180.03 176.257 180.567 175.438C181.207 174.462 184.838 174.418 185.928 174.228ZM129.163 84.7621C130.406 84.1977 131.794 84.0199 133.047 83.4367C134.246 82.8792 135.137 82.5428 136.467 82.4334C141.092 82.054 145.8 83.2378 150.079 84.5323C152.434 85.2447 154.292 86.8058 156.281 88.1584C158.339 89.5571 159.467 90.7752 160.363 93.1421C162.29 98.2339 163.477 103.048 164.243 108.417C165.022 113.865 163.758 119.371 163.837 124.83C163.914 130.216 164.299 135.823 166.01 140.95C167.332 144.915 169.677 151.297 174.618 151.693C179.308 152.068 183.276 147.232 185.214 143.602C190.341 134.003 192.267 123.032 192.545 112.259C193.269 108.654 193.683 104.768 194.937 101.311C196.332 103.492 197.47 105.833 198.753 108.082C200.16 110.55 200.07 112.564 199.948 115.368C199.853 117.549 199.084 119.632 198.804 121.804C198.481 124.311 197.888 126.754 197.745 129.286C197.578 132.272 197.745 135.288 197.493 138.266C197.282 140.771 196.729 143.286 196.328 145.767C195.938 148.178 195.89 150.552 195.947 152.955C196.003 155.281 196.807 157.541 198.778 158.786C195.849 162.401 192.196 167.725 187.289 168.582C185.644 168.869 184.107 169.093 182.441 169.214C181.086 169.313 179.503 170.073 178.335 169.229C176.324 167.775 175.927 164.535 175.167 162.416C174.642 160.95 169.429 148.946 166.686 152.347C166.197 152.953 166.312 155.176 166.237 156.03C166.13 157.26 166.179 158.511 166.14 159.746C166.09 161.317 165.951 162.911 166.06 164.482C166.126 165.429 166.695 166.452 165.622 166.681C164.629 166.892 162.535 164.919 161.812 164.408C160.843 163.722 159.797 163.208 158.815 162.547C156.795 161.189 155.193 159.48 153.755 157.542C152.309 155.593 151.02 153.405 150.041 151.179C149.544 150.049 149.138 148.892 148.723 147.731C148.732 147.757 148.106 146.294 148.141 146.192C148.251 145.865 149.574 145.321 149.9 145.064C153.632 142.119 154.379 134.794 153.387 130.51C152.787 127.918 150.801 125.641 149.39 123.434C148.027 121.303 146.586 119.215 145.455 116.946C144.208 114.447 143.245 111.823 142.127 109.267C141.587 108.033 140.94 107.399 141.746 106.269C142.24 105.577 143.262 105.293 143.702 104.535C144.145 103.772 144.191 102.301 143.394 101.756C142.522 101.159 141.255 101.993 140.457 102.317C139.391 102.751 138.326 102.961 137.239 103.294C136.004 103.673 134.893 104.51 133.582 104.51C134.287 102.083 137.332 102.313 138.32 100.056C138.995 98.513 138.907 95.6423 136.803 95.3879C135.607 95.2435 134.665 96.1551 133.777 96.7668C132.607 97.5715 131.724 97.7218 130.354 97.9739C129.85 98.0669 129.031 98.5397 128.552 98.379C127.776 98.1186 128.224 98.2794 128.63 97.6413C129.235 96.6925 130.664 95.7659 131.528 95.0734C133.471 93.5164 136.163 92.394 137.846 90.5836C138.958 89.3866 139.504 85.362 137.391 84.7198C136.543 84.4619 135.165 85.3027 134.334 85.5596C132.931 85.9939 131.501 86.3396 130.117 86.835C127.657 87.7147 125.295 88.7596 122.8 89.5491C124.222 87.5252 126.922 85.78 129.163 84.7621ZM212.336 84.1688C212.336 85.5596 212.867 88.2035 212.268 89.4678C211.728 90.6065 208.449 91.2411 207.291 91.6761C203.541 93.0849 199.821 94.6533 195.988 95.8197C199.939 89.9684 205.81 86.5715 212.336 84.1688ZM211.783 65.2749C210.812 66.6705 209.122 68.5628 207.146 67.9032C205.016 67.1922 203.347 63.93 204.435 61.8599C205.365 60.0915 208.019 58.982 209.657 60.3758C210.015 60.6796 210.248 61.4572 210.59 61.695C210.81 61.8471 211.158 61.4395 211.426 61.6027C212.219 62.0838 212.524 63.2586 213.667 63.1604C214.196 63.1152 215.892 61.7329 216.239 61.3794C217.167 60.4334 216.844 59.4642 216.99 58.221C217.193 56.5085 218.374 56.2457 219.734 55.3622C221.028 54.5207 222.069 53.2657 223.35 52.4551C224.878 51.4872 224.002 52.7144 225.399 52.8359C225.651 52.8578 226.213 52.0208 226.651 52.0347C227.217 52.0528 227.464 52.4301 227.787 52.8415C228.491 53.7354 227.973 54.0159 229.199 54.2242C230.084 54.3745 230.632 53.7316 231.389 53.7441C232.008 53.0432 232.925 51.5796 234.032 52.0118C234.781 52.3044 235.049 53.8739 235.21 54.5294C235.818 57.014 235.772 59.9339 235.795 62.482C234.371 61.4829 234.187 60.8115 233.742 59.2007C233.453 58.154 232.755 56.6161 231.994 58.1884C231.777 58.6345 231.963 59.3187 231.82 59.8089C231.654 60.3776 231.257 60.6577 231.195 61.2781C231.045 62.7827 232.278 63.2985 233.341 64.031C232.349 65.1006 229.494 64.2935 230.255 66.5771C231.06 68.9901 234.153 67.6539 235.696 67.0485C237.011 72.0333 231.168 74.4353 227.608 75.7986C225.517 76.5988 224.699 77.0449 224.412 79.4857C224.165 81.5777 224.447 83.72 225.214 85.6741C225.522 86.4573 225.816 87.5279 226.236 88.2528C226.591 88.8669 227.299 88.9096 227.538 89.2523C228.418 90.5159 227.785 93.2581 227.682 94.7748C227.4 98.9219 226.108 102.699 225.553 106.746C225.268 108.816 224.415 110.753 224.05 112.799C223.714 114.676 223.582 116.448 222 117.79C218.822 120.487 216.363 116.504 215.262 113.886C213.694 110.157 213.537 105.256 213.796 101.28C214.077 96.9577 216.055 92.805 216.159 88.5145C216.271 83.9262 215.578 79.5701 214.43 75.1338C213.929 73.1949 213.198 71.4591 212.579 69.5845C212.073 68.0518 212.911 66.6677 211.783 65.2749ZM220.046 19.8829C220.046 19.8863 220.046 19.8894 220.047 19.8929C220.026 19.8704 220.006 19.8488 219.984 19.8224C220.007 19.8499 220.027 19.8686 220.046 19.8829ZM220.14 19.4531C220.093 19.1292 219.989 18.7216 219.918 18.5383C220.09 18.6442 220.286 18.7331 220.292 18.8442C220.311 19.1629 220.219 19.3128 220.14 19.4531ZM224.859 20.2713C224.826 20.2901 224.794 20.3105 224.761 20.3286C224.682 20.3286 224.616 20.3119 224.557 20.2859C224.58 20.2908 224.605 20.2946 224.633 20.2967C224.71 20.3022 224.785 20.2908 224.859 20.2713ZM227.326 19.4586C226.884 19.4552 226.418 19.4138 225.902 19.6378C225.984 19.5885 226.066 19.5444 226.149 19.5149C226.38 19.4329 226.869 19.442 227.326 19.4586ZM202.308 140.713C202.403 138.638 202.402 138.014 204.033 136.676C205.393 135.56 206.708 134.389 208.082 133.29C211.124 130.856 214.374 128.279 217.833 126.461C219.77 125.443 225.058 123.391 223.721 127.411C222.46 131.204 220.027 134.573 217.932 137.944C215.797 141.379 213.661 144.817 211.442 148.2C210.477 149.671 209.459 151.114 208.536 152.611C207.627 154.085 207.534 155.079 205.67 154.469C204.316 154.025 202.786 153.485 201.509 152.908C200.387 152.401 200.454 152.091 200.424 150.773C201.118 147.365 202.147 144.24 202.308 140.713ZM210.988 99.1799C210.517 101.079 207.134 101.305 205.31 101.673C204.996 101.736 203.407 102.25 203.11 102.074C202.525 101.726 202.813 100.72 202.563 100.232C201.197 97.5646 201.177 100.975 200.788 101.778C199.723 103.978 198.091 99.5732 197.493 98.4946C197.033 97.6645 196.539 97.2424 197.016 96.5457C197.413 95.9656 199.621 95.5674 200.299 95.3171C202.771 94.4037 205.237 93.4737 207.703 92.5426C208.765 92.1416 212.034 90.0424 211.998 92.0601C211.645 94.3815 211.552 96.9088 210.988 99.1799ZM209.14 121.855C208.099 122.178 205.274 123.474 204.222 122.863C203.333 122.347 203.947 120.538 204.047 119.596C204.235 117.822 204.208 115.891 204.107 114.111C203.959 111.481 203.74 111.274 206.334 110.567C207.337 110.293 210.397 108.812 211.142 109.647C211.49 110.037 211.343 111.277 211.419 111.749C211.585 112.772 211.87 113.771 212.244 114.737C212.889 116.405 213.832 117.904 214.818 119.387C213.049 120.475 211.116 121.24 209.14 121.855ZM203.266 103.262C203.715 102.617 205.95 102.525 206.69 102.368C207.996 102.092 209.303 101.819 210.61 101.543C210.68 103.134 211.579 107.29 210.435 108.439C209.791 109.085 207.638 109.251 206.727 109.475C205.734 109.72 204.739 109.959 203.745 110.199C203.632 108.666 203.538 107.131 203.375 105.601C203.315 105.039 202.901 103.788 203.266 103.262ZM203.524 124.272C204.211 123.481 206.071 123.504 207.105 123.262C208.752 122.877 210.313 122.351 211.872 121.699C212.745 121.335 214.463 120.087 215.428 120.403C215.698 120.491 216.263 121.604 216.469 121.813C216.82 122.171 217.274 122.413 217.682 122.696C218.805 123.474 219.486 123.715 220.81 123.979C213.885 126.819 208.321 131.871 202.594 136.532C202.187 136.191 202.413 133.144 202.458 132.445C202.54 131.148 202.596 129.834 202.693 128.532C202.773 127.463 202.793 125.112 203.524 124.272ZM224.553 151.899C224.344 153.081 224.312 154.704 223.806 155.796C223.341 156.796 223.398 156.726 222.163 156.756C220.602 156.794 218.812 157.055 217.301 156.58C218.65 153.6 219.773 150.361 221.619 147.643C222.199 146.789 223.319 144.603 224.532 144.733C225.749 144.864 225.482 146.085 225.386 146.968C225.206 148.617 224.842 150.266 224.553 151.899ZM230.632 105.411C231.57 98.9823 231.491 92.6971 231.491 86.2226C232.986 86.4205 234.634 86.2959 236.076 86.7191C235.61 88.2035 234.268 89.5425 235.597 90.9519C236.946 92.3836 240.092 93.0113 241.916 93.5382C244.053 94.1558 246.231 94.9106 248.426 95.2775C249.413 95.442 250.487 95.6021 251.483 95.4108C253.059 95.1081 253.198 94.6898 254.234 96.3134C254.239 96.3221 254.248 96.3353 254.254 96.3447C253.955 96.1728 253.005 96.2763 253.258 96.2836C253.295 96.4144 253.351 96.5446 253.383 96.6658C253.103 96.436 252.485 96.2422 252.399 96.227C251.369 96.0458 250.061 96.5082 249.068 96.7373C246.843 97.2514 244.634 97.8117 242.478 98.573C240.663 99.2139 238.866 99.9315 237.135 100.773C235.799 101.423 232.713 102.568 232.292 104.16C231.483 107.213 239.548 109.532 241.515 110.566C243.372 111.542 242.786 112.989 242.807 114.928C242.829 117.034 243.02 119.12 242.874 121.221C242.761 122.849 242.637 122.597 241.012 122.568C239.796 122.546 238.58 122.497 237.364 122.569C235.65 122.671 233.89 122.909 232.281 123.532C229.873 124.465 225.25 128.904 229.857 130.257C231.754 130.814 234.2 130.61 236.144 130.476C237.831 130.359 240.473 129.592 242.1 130.172C242.948 129.931 243.254 130.24 243.018 131.096C243.057 131.684 243.097 132.271 243.135 132.859C243.214 134.041 243.293 135.222 243.371 136.404C243.532 138.823 243.693 141.242 243.853 143.661C242.439 141.657 240.495 137.704 237.482 138.156C234.897 138.544 233.368 142.553 232.536 144.622C231.859 146.303 231.422 148.065 230.964 149.815C230.524 151.497 230.364 153.876 229.56 155.401C228.768 156.903 227.667 156.398 226.046 156.553C224.019 156.746 224.836 155.611 225.158 153.889C225.649 151.265 227.386 146.737 225.711 144.292C223.573 141.17 220.552 146.954 219.731 148.517C218.963 149.977 218.308 151.491 217.72 153.032C217.341 154.026 217.034 156.174 216.054 156.718C214.854 157.385 212.951 156.319 211.849 155.97C210.555 155.56 209.14 155.389 207.811 155.121C211.595 149.197 215.531 143.361 219.203 137.367C221.039 134.37 223.354 131.223 224.363 127.833C224.554 127.19 224.788 126.577 224.71 125.894C224.643 125.311 223.767 124.395 223.822 123.99C223.905 123.391 225.108 122.89 225.671 122.26C227.627 120.07 228.118 117.465 228.725 114.681C229.386 111.652 230.187 108.472 230.632 105.411ZM238.022 87.0374C240.904 86.4163 244.18 88.0726 246.59 89.4095C248.18 90.2916 252.425 92.1357 252.588 94.2961C252.544 93.7101 248.641 94.0756 247.869 94.0947C244.572 93.3806 241.055 92.418 237.978 90.995C236.857 90.4767 235.541 89.9691 235.949 88.6388C236.217 87.7647 237.205 87.2134 238.022 87.0374ZM234.678 129.538C232.856 129.433 226.24 129.505 229.569 126.202C231.654 124.133 235.492 123.685 238.265 123.673C239.258 123.67 240.237 123.747 241.224 123.849C241.494 123.881 241.765 123.913 242.036 123.945C242.863 123.781 243.12 124.123 242.81 124.971C242.958 125.468 243.196 128.412 242.76 128.826C242.181 129.375 240.339 129.133 239.66 129.186C237.993 129.316 236.35 129.548 234.678 129.538ZM244.354 154.563C239.56 155.277 234.774 156.188 229.913 156.264C230.638 152.721 231.484 149.186 232.804 145.81C233.649 143.653 235.182 138.996 238.137 139.225C240.495 139.408 243.247 143.45 243.905 145.514C244.762 148.205 244.354 151.765 244.354 154.563ZM256.666 100.703C256.57 101.194 254.418 102.077 253.958 102.344C250.639 104.273 247.683 107.131 245.697 110.381C245.476 109.127 245.511 106.749 244.46 105.858C242.61 104.29 242.99 107.803 242.769 108.876C242.562 109.882 242.819 109.719 241.952 109.809C241.182 109.888 239.217 108.446 238.507 108.083C236.544 107.079 234.662 105.986 232.776 104.846C234.338 102.264 238.946 101.08 241.57 100.047C245.341 98.563 249.058 97.8037 253.049 97.1893C253.716 97.5364 253.803 96.7553 254.302 96.5804C254.329 96.5401 254.339 96.5061 254.34 96.4745C254.926 97.3455 256.808 99.9714 256.666 100.703ZM261.547 135.489C263.405 144.023 263.867 152.901 266.213 161.331C268.444 169.345 270.424 177.324 273.001 185.229C274.485 189.783 275.863 194.382 277.847 198.755C279.23 201.804 280.328 208.309 283.699 209.736C285.905 210.67 286.884 209.843 286.648 207.606C286.444 205.659 285.434 204.436 284.601 202.754C284.311 202.169 283.365 200.516 283.468 199.894C283.596 199.122 283.793 199.205 284.598 198.823C286.309 198.012 288.014 197.462 289.835 196.993C289.101 198.132 287.633 199.762 287.515 201.156C287.418 202.306 288.244 204.415 289.386 204.856C290.466 205.273 291.737 204.394 292.661 203.857C293.731 203.236 294.751 203.064 295.929 202.623C294.428 204.786 291.968 206.509 293.022 209.485C294.145 212.66 297.631 210.064 299.86 209.705C299.223 212.164 296.398 214.969 294.367 216.337C293.003 217.256 291.523 218.085 290.059 218.828C289.492 219.116 288.748 219.292 288.227 219.635C288.029 219.766 287.696 220.319 287.517 220.406C284.988 221.627 281.54 221.938 278.789 222.525C275.758 223.171 273.149 223.33 270.029 223.18C267.448 223.056 264.588 221.47 262.431 220.138C260.791 219.126 260.551 217.889 260.041 216.102C259.195 213.14 258.437 210.159 257.629 207.187C256.933 204.624 256.609 202.163 256.137 199.563C255.137 194.053 254.677 188.456 253.605 182.956C252.54 177.493 252.184 171.959 251.889 166.374C251.747 163.685 251.309 160.941 251.176 158.304C251.067 156.159 251.104 154 251.116 151.793C251.124 150.243 250.575 148.693 250.612 147.137C250.645 145.761 250.771 144.521 250.626 143.131C250.316 140.17 250.074 137.243 249.841 134.277C249.387 128.495 248.05 122.79 247.517 117.033C247.287 114.544 250.02 112.156 251.871 110.706C253.844 109.161 255.427 106.991 257.598 105.774C258.403 115.759 259.415 125.693 261.547 135.489ZM228.848 242.242C226.708 243.197 224.568 244.153 222.426 245.105C220.852 245.806 218.786 247.246 217.055 247.116C218.286 245.45 219.061 243.544 220.372 241.925C221.682 240.309 222.763 238.593 223.947 236.885C225.504 238.783 227.095 240.523 228.848 242.242ZM229.304 233.863C232.543 232.155 237.144 228.909 240.94 229.521C243.675 229.962 246.772 231.964 248.423 234.169C249.197 235.203 249.972 236.167 250.858 237.181C251.67 238.109 252.087 237.989 251.377 238.957C250.831 239.702 249.543 240.207 248.705 240.495C248.705 238.865 249.212 237.231 247.254 237.392C246.481 237.455 245.58 237.64 244.81 237.766C244.146 237.874 243.761 238.162 243.196 238.295C242.592 238.437 241.871 238.27 241.245 238.319C240.168 238.404 239.306 238.836 238.285 239.062C236.174 239.529 234.392 240.176 232.336 240.867C231.395 239.429 230.605 237.701 229.328 236.525C227.899 235.211 227.29 234.925 229.304 233.863ZM201.52 18.5605C201.831 18.5279 202.186 18.3345 202.426 17.9315C202.006 18.6369 201.758 18.6688 201.52 18.5605ZM191.812 19.6839C192.188 19.7523 192.561 19.836 192.872 19.9821C193.179 20.1259 193.344 20.2897 193.508 20.4334C193.431 20.4001 193.349 20.3644 193.256 20.3255C192.851 20.1564 192.333 19.8513 191.812 19.6839ZM185.338 73.1779C185.312 73.1435 185.288 73.1119 185.264 73.0807C185.288 73.1119 185.312 73.1435 185.338 73.1779H185.338ZM184.079 73.3608C183.961 73.3174 183.86 73.2459 183.781 73.1418C183.86 73.2459 183.961 73.3174 184.079 73.3608C184.157 73.3893 184.244 73.4056 184.338 73.4101C184.244 73.4056 184.157 73.3893 184.079 73.3608ZM183.575 72.3305C183.575 72.4801 183.587 72.6117 183.61 72.7273C183.587 72.6117 183.575 72.4801 183.575 72.3305ZM185.1 72.888C185.069 72.8557 185.039 72.8259 185.009 72.7981C185.039 72.8259 185.069 72.8561 185.1 72.888ZM184.84 72.662C184.792 72.6294 184.744 72.5999 184.694 72.5752C184.744 72.5999 184.792 72.6294 184.84 72.662ZM238.679 21.0892C238.748 21.1094 238.809 21.118 238.865 21.1212C238.789 21.1288 238.727 21.1173 238.679 21.0892ZM240.345 22.2053C240.142 22.0175 240.022 21.8335 239.96 21.6492C239.992 21.6686 240.026 21.6863 240.065 21.7016C240.125 21.6419 240.185 21.5822 240.245 21.5221C240.162 21.6776 240.133 21.8276 240.197 21.9623C240.508 22.6122 240.888 21.6242 241.356 22.113C241.005 22.0699 240.577 22.2053 240.345 22.2053C239.804 22.9475 239.263 23.6901 238.722 24.4323C239.454 24.7979 239.684 24.3466 240.092 25.0128C240.112 25.0451 240.13 25.1242 240.146 25.2287C239.976 24.743 239.532 24.8364 238.722 24.4323C239.263 23.6901 239.804 22.9475 240.345 22.2053ZM241.746 23.8394C241.796 23.8019 241.826 23.7502 241.846 23.6818C241.859 23.636 241.867 23.5828 241.872 23.5214C241.867 23.5828 241.859 23.636 241.846 23.6818C241.826 23.7502 241.796 23.8019 241.746 23.8394C241.713 23.8644 241.67 23.8831 241.617 23.896C241.67 23.8831 241.713 23.8644 241.746 23.8394ZM241.899 23.0503C241.892 23.1472 241.888 23.2343 241.885 23.3124C241.888 23.2343 241.892 23.1472 241.899 23.0503ZM241.099 25.0274C241.123 25.0704 241.148 25.1093 241.176 25.1454C241.149 25.1082 241.122 25.0704 241.099 25.0274ZM240.286 27.9483C239.512 27.5342 240.184 27.0127 240.216 26.3764C240.219 26.3198 240.22 26.2719 240.221 26.2198C240.227 26.3736 240.228 26.4996 240.224 26.5614C240.172 27.4606 239.533 27.7109 240.695 27.9834C240.774 28.0021 240.877 28.0119 240.994 28.0164C240.697 28.0379 240.438 28.0303 240.286 27.9483ZM252.277 34.6304C252.229 34.2627 253.948 33.4605 254.17 33.3619C253.898 33.483 252.231 34.2818 252.277 34.6304ZM254.233 31.3748C254.221 31.3699 254.208 31.3685 254.197 31.3633C254.199 31.3362 254.197 31.3109 254.197 31.2845C254.205 31.3178 254.215 31.3487 254.233 31.3748ZM255.148 34.344C255.158 34.3041 255.176 34.1975 255.196 34.0704C255.226 34.2273 255.26 34.3745 255.292 34.503C255.254 34.453 255.209 34.4006 255.148 34.344ZM253.812 34.3214C253.811 33.6983 254.007 33.8312 254.128 33.85C254.017 34.017 253.812 34.0482 253.812 34.3214ZM251.998 35.6899C252.179 35.6545 252.331 35.7583 252.471 35.8781C252.165 35.7972 251.914 35.7059 251.998 35.6899ZM250.523 39.2493C250.494 39.259 250.469 39.2653 250.442 39.2729C250.469 39.2653 250.494 39.259 250.523 39.2493ZM250.671 39.1958C250.651 39.2038 250.634 39.2094 250.615 39.2163C250.634 39.2094 250.651 39.2038 250.671 39.1958ZM250.392 39.2871C250.355 39.2965 250.32 39.3031 250.286 39.3076C250.32 39.3031 250.355 39.2965 250.392 39.2871ZM251.527 60.8275C251.603 60.699 251.767 60.6567 251.953 60.6362C251.719 60.7254 251.539 60.9167 251.497 61.1937C251.451 61.0913 251.439 60.975 251.527 60.8275ZM252.879 56.8432C252.866 56.8393 252.853 56.8341 252.841 56.8331C252.462 56.8036 252.297 57.0487 252.256 57.4233C252.282 57.0966 252.391 56.83 252.674 56.7432C252.659 56.7137 252.647 56.6862 252.633 56.6574C252.705 56.723 252.788 56.7848 252.879 56.8432ZM252.43 58.8605C252.422 58.816 252.413 58.7674 252.403 58.7171C252.445 58.8952 252.494 59.0726 252.543 59.243C252.494 59.1059 252.452 58.975 252.43 58.8605ZM252.76 52.6575C252.729 52.6717 252.694 52.6842 252.658 52.695C252.694 52.6842 252.729 52.6721 252.76 52.6575ZM252.852 52.6026C252.831 52.6186 252.806 52.6325 252.781 52.6457C252.806 52.6325 252.83 52.6183 252.852 52.6026ZM252.64 52.7009C252.596 52.7127 252.549 52.7224 252.496 52.729C252.548 52.7224 252.596 52.713 252.64 52.7009ZM253.029 48.1726C253.034 48.3399 253.035 48.5069 253.039 48.6649C253.013 48.5097 253.01 48.3566 253.029 48.1726ZM328.076 271.509C327.042 270.58 323.577 270.518 322.202 270.257C325.178 267.41 327.415 260.211 321.729 259.287C320.471 259.083 320.115 259.568 319.827 258.142C319.65 257.269 320.01 256.464 319.577 255.594C318.547 253.528 314.638 253.759 312.685 253.462C313.152 251.821 314.296 248.891 312.572 247.559C311.212 246.509 308.381 247.911 306.935 248.361C303.03 249.576 299.063 250.963 295.769 253.412C294.293 251.419 292.749 249.453 291.511 247.298C290.329 245.242 289.598 242.969 288.487 240.876C287.374 238.778 286.192 236.303 284.637 234.499C283.321 232.972 281.515 232.821 279.778 232.092C275.372 230.243 271.554 230.349 266.949 231.032C262.347 231.716 258.357 234.407 254.459 236.756C252.93 231.597 249.391 225.991 243.905 224.4C241.443 223.686 238.853 224.375 236.602 225.498C233.813 226.889 231.62 229.255 228.892 230.572C232.002 225.248 235.928 220.24 239.346 215.212C241.221 212.454 243.589 209.993 245.42 207.183C247.287 204.318 248.662 201.134 250.016 198.007C251.16 200.925 251.354 203.995 252.404 206.923C253.368 209.611 254.029 212.369 255.125 215.013C256.27 217.773 257.282 220.495 258.829 223.064C259.712 224.529 261.888 229.092 263.491 226.165C267.06 228.575 270.505 230.031 274.968 229.925C277.012 229.877 279.288 229.813 281.244 229.355C283.23 228.891 285.128 228.265 287.102 227.82C288.664 227.467 290.092 226.514 291.513 225.807C293.147 224.995 294.766 223.535 296.027 222.254C297.59 220.668 299.204 219.141 300.774 217.565C302.329 216.005 302.216 214.414 303.048 212.476C303.915 210.453 304.288 208.666 303.14 206.625C302.299 205.13 300.811 205.336 300.463 203.822C300.133 202.386 300.454 201.032 299.552 199.715C298.867 198.715 296.403 198.046 296.395 197.025C296.388 196.182 297.265 195.435 297.23 194.423C297.199 193.519 296.757 192.066 296.271 191.301C295.358 189.863 293.968 189.814 292.4 190.254C288.613 191.315 284.899 194.045 282.294 196.913C278.723 187.13 275.91 177.134 273.298 167.129C272.144 162.71 271.24 158.232 270.506 153.726C269.78 149.264 268.679 144.769 268.188 140.285C267.894 137.595 267.066 135.078 266.679 132.421C266.359 130.221 266.145 128.004 265.83 125.803C265.133 120.926 264.165 116.124 263.411 111.259C262.995 108.57 262.055 106.218 261.332 103.629C260.712 101.408 260.342 99.5097 259.306 97.4122C257.328 93.4115 255.294 88.5111 251.452 85.9688C248.035 83.7078 244.721 81.8183 240.557 81.3551C238.114 81.0833 236.146 81.6575 233.757 81.921C231.642 82.1546 229.831 83.3235 227.768 83.7446C227.768 81.7842 227.577 81.7311 229.366 81.0337C230.396 80.632 231.402 80.1908 232.452 79.8416C233.558 79.4736 234.396 79.1143 235.339 78.438C236.452 77.6392 235.75 77.893 237.084 78.169C239.187 78.6043 238.567 78.0992 239.951 77.0515C240.756 76.4415 241.577 76.8137 242.519 76.9355C243.398 77.049 244.845 77.4375 245.515 76.6463C246.025 76.0447 245.469 75.0123 245.845 74.3582C246.439 73.3258 248.139 73.373 249.047 72.6794C250.041 71.9208 250.131 71.0658 249.915 69.8993C249.766 69.0919 248.493 67.2981 248.565 66.6035C248.613 66.1407 248.857 66.0053 249.171 65.9675C251.659 66.0931 251.539 65.7182 250.932 63.5141C250.896 63.8404 250.875 64.1182 250.85 64.3574C250.843 64.0151 250.846 63.6953 250.932 63.5141C250.997 63.3773 251.229 63.2892 251.44 63.1791C251.384 63.2343 251.326 63.2905 251.258 63.3537C251.364 63.822 251.395 65.0465 251.845 65.3794C252.167 65.6179 253.296 65.5936 253.524 65.195C254 64.3626 252.362 63.8904 252.298 63.2725C254.179 63.1152 253.537 62.198 252.554 61.2621C252.515 61.0052 252.664 60.8837 253.002 60.8976C252.834 60.7219 252.626 60.6223 252.418 60.59C252.565 60.5657 252.692 60.5227 252.76 60.4185C252.818 60.3269 252.822 60.2005 252.801 60.0585C252.837 60.1679 252.869 60.2616 252.892 60.3338C254.515 60.9889 253.681 57.5125 253.008 56.9199C253.06 55.9555 253.112 54.9911 253.163 54.0267C252.7 54.3322 252.347 54.8085 252.227 55.3056C252.243 54.8467 252.511 54.4568 253.163 54.0267C252.119 53.5674 252.017 53.5115 253.137 53.4136C254.066 54.2603 253.936 53.5573 254.512 53.0401C254.477 53.071 255.382 52.0871 255.321 52.2374C255.751 51.1738 255.277 48.929 253.544 49.6602C254.485 50.5024 253.541 50.6575 253.212 51.3817C253.201 51.406 253.192 51.4317 253.183 51.457C253.201 51.3702 253.224 51.2866 253.26 51.2095C253.841 49.9622 253.978 50.92 253.339 49.5008C253.338 49.4998 253.338 49.4987 253.337 49.4973C253.506 49.5827 253.771 49.5647 254.19 49.388C254.713 48.7496 254.871 49.0106 255.151 48.1882C255.397 47.4686 255.283 46.9777 254.793 46.71C254.849 46.7246 254.905 46.7409 254.961 46.7552C255.178 46.2018 254.877 45.6745 254.376 45.42C254.173 45.7512 253.971 46.0827 253.769 46.4142C253.861 46.4438 253.952 46.4701 254.045 46.4979C254.044 46.4979 254.043 46.4979 254.042 46.4976C253.399 46.4233 253.139 46.5385 253.043 46.835C253.011 46.702 253.002 46.5712 253.076 46.4524C253.154 46.3257 253.709 46.5135 253.769 46.4142C254.764 44.7833 253.713 43.4256 252.112 42.5948C251.504 42.2793 250.305 42.2685 250.09 41.5301C249.938 41.0083 250.694 39.7457 250.839 39.1268C251.956 38.6143 249.894 38.3144 249.88 38.3123C249.818 39.0424 249.858 39.3656 250.279 39.309C249.855 39.3666 249.818 39.04 249.88 38.3123C250.486 38.4054 252.275 38.2384 253.152 37.642C254.604 37.6833 255.352 37.935 256.232 36.6758C255.372 36.3186 254.358 36.5109 253.586 35.9624C253.621 36.1273 253.651 36.2769 253.669 36.4151C253.602 36.211 253.457 36.0353 253.262 35.8687C253.388 35.977 253.322 36.0117 253.173 36.0069C253.201 35.9683 253.231 35.9239 253.262 35.8687C253.314 35.2577 253.763 35.5066 254.218 35.5448C254.206 35.3483 254.128 35.1831 254.044 35.0192C254.127 35.1765 254.205 35.3375 254.218 35.5448C254.506 35.3615 254.794 35.1782 255.083 34.9946C255.239 34.9491 255.333 34.8855 255.37 34.8057C255.37 34.8071 255.371 34.8088 255.371 34.8102C256.749 35.2212 256.329 32.3031 255.695 32.318C255.525 32.3221 255.402 32.3846 255.312 32.4836C255.331 32.2145 255.377 31.9299 255.488 31.5313H255.487H255.488C255.552 31.3598 255.616 31.1883 255.681 31.0168C255.334 31.0391 254.21 30.368 254.19 31.1685C254.168 31.0241 254.111 30.8894 254.013 30.7669C254.113 29.8813 253.592 29.9566 252.785 29.7091C252.485 29.6171 252.154 29.0426 251.816 29.2838C251.308 29.6463 251.614 29.9875 251.94 30.2458C251.892 30.5468 251.748 30.7874 251.508 30.9672C251.471 30.9328 251.436 30.9064 251.401 30.8797C251.626 30.7481 251.815 30.5388 251.94 30.2458C250.901 29.4241 250.463 29.9618 249.664 30.6228C249.982 30.8877 250.351 31.0304 250.704 31.045C250.686 31.0838 250.668 31.1231 250.652 31.1696C250.252 31.1196 249.922 30.9373 249.664 30.6228C250.512 29.9205 250.436 29.49 249.404 29.0735C249.055 28.9329 248.834 29.246 248.403 29.0804C248.188 28.9981 248.034 28.6246 247.825 28.501C246.263 27.5765 244.387 28.1028 242.723 27.8838C242.932 27.857 243.118 27.831 243.26 27.8122C243.095 27.2387 242.648 26.9905 242.179 26.8159C242.179 26.4892 242.18 26.1622 242.179 25.8355C242.113 25.8206 242.049 25.8137 241.987 25.8119C242.096 25.7258 242.161 25.6088 242.145 25.4096C241.744 25.5547 241.404 25.4478 241.184 25.1572C241.621 25.7151 242.471 25.4231 242.731 24.7076C243.003 23.9578 242.42 23.454 241.912 22.8976C241.924 22.3629 241.697 22.1706 241.404 22.1192C241.933 21.0792 242.052 21.595 241.484 20.2942C241.437 19.4177 240.693 19.736 240.191 20.2991C240.244 20.17 240.298 20.0373 240.35 19.8992C239.955 19.8724 239.561 19.8457 239.166 19.8183C239.267 20.1384 239.488 20.7084 239.197 20.9802C239.39 20.7021 239.253 20.0946 239.166 19.8183C238.683 19.5489 238.2 19.2795 237.717 19.0094C237.757 19.0959 237.869 19.4211 238.006 19.7895C237.635 19.2719 237.331 18.9511 236.825 18.4182C236.578 18.1582 235.61 16.9102 235.341 16.8324C233.7 16.3568 232.46 19.5656 230.458 19.1264C229.277 18.8674 229.829 18.5619 228.714 18.7786C228.103 17.9853 224.117 19.2326 223.964 19.9873C224.039 19.9672 224.096 19.9589 224.142 19.9575C223.693 20.1186 223.302 20.3664 222.867 20.5341C221.776 20.9549 222.426 21.0646 221.187 20.3564C220.765 20.1148 220.608 20.1904 220.444 20.1682C220.977 19.9287 221.234 18.2707 221.242 17.6795C221.261 16.2669 221.074 16.5147 221.625 15.5017C221.116 15.4938 220.757 15.4504 220.489 15.5715C220.566 15.3313 220.621 15.0956 220.619 14.8675C220.895 14.1204 220.652 13.2404 219.799 13.0324C218.508 12.7176 218.255 14.5703 219.19 14.8737C218.296 14.5835 218.654 13.4115 217.436 13.2529C217.883 13.23 218.161 13.3143 218.577 13.826C218.715 13.5483 218.852 13.2709 218.99 12.9932C218.021 12.8918 217.572 12.8096 216.789 13.265C216.023 13.4018 215.483 13.9569 214.905 14.4988C213.329 15.9746 211.915 17.4149 210.465 19.016C209.719 17.4854 208.897 16.371 207.688 18.0839C206.596 19.6298 205.713 21.7665 205.145 23.5641C204.011 23.0437 204.489 22.8739 204.014 22.0311C204.508 22.8521 204.005 23.0409 205.145 23.5641C205.258 23.2055 205.372 22.8465 205.485 22.4879C204.492 21.3565 204.534 20.2324 203.459 19.0261C203.34 19.4128 203.683 19.9637 203.743 20.3123C203.809 20.6987 203.381 20.967 203.478 21.3826C203.88 21.2357 203.973 21.3242 203.986 21.485C203.972 21.3246 203.878 21.2368 203.478 21.3826C203.319 20.7039 203.715 20.3432 203.494 19.5853C203.405 19.2791 203.275 19.0552 203.119 18.8386C203.802 17.6947 201.59 16.9022 201.075 17.5829C201.011 17.6687 200.967 17.7485 200.933 17.8256C200.069 17.4371 199.802 18.2637 199.399 18.8844C199.304 19.0785 199.208 19.2729 199.112 19.4673C198.603 19.8849 198.132 20.7587 197.749 21.3305C196.93 22.5528 196.587 24.3417 195.584 25.3603C195.618 24.7042 195.976 23.2496 194.798 23.8363C195.187 23.6426 195.243 23.4072 195.157 23.1343C195.23 23.1756 195.31 23.2131 195.402 23.2437C195.567 23.26 195.734 23.276 195.899 23.2919C195.879 22.3629 195.269 21.7523 194.55 21.2583C194.55 21.5009 194.542 21.7506 194.558 21.9897C194.554 21.9811 194.55 21.9727 194.546 21.9641C194.23 21.2076 194.364 20.9847 194.091 20.7528C194.198 20.7785 194.321 20.7969 194.472 20.8042C193.592 19.3159 192.422 19.0781 190.804 19.4975C190.915 19.5235 191.03 19.5458 191.147 19.5676C190.965 19.568 190.787 19.6006 190.621 19.6815C189.993 19.9873 189.063 21.7453 188.627 22.355C187.093 24.5004 186.379 27.129 185.575 29.6088C185.35 30.3066 185.007 31.942 184.135 32.176C183.121 32.4482 182.047 30.7964 181.154 30.2444C178.299 28.4777 176.879 31.6497 176.439 34.1662C175.783 35.2796 175.934 36.1377 176.88 36.6651C176.615 36.2822 176.493 35.8742 176.443 35.4535C176.569 36.1686 177.165 36.4165 177.273 36.7227C177.332 36.8907 177.414 37.91 177.412 38.1148C177.9 38.479 177.937 38.748 177.522 38.9219C177.269 39.0952 177.031 39.2889 176.81 39.5027C176.125 40.2241 176.132 41.2243 175.506 41.9259C174.798 42.7195 174.148 42.3688 173.814 43.6735C173.242 45.9084 174.652 49.2831 177.189 49.497C176.888 50.377 176.499 51.2696 176.274 52.1722C175.975 53.373 175.996 53.4945 176.562 54.6432C172.342 54.0159 172.671 58.4835 175.077 60.6778C175.647 61.1979 176.271 61.5218 177.006 61.7523C177.538 61.9193 179.145 61.8262 179.528 62.331C180.334 63.3954 178.534 64.7791 178.375 65.9668C178.359 66.0883 178.352 66.2969 178.357 66.5392C177.693 67.3526 177.726 67.42 178.675 68.1806C179.195 68.8506 180.803 68.6902 181.291 69.3311C182.043 70.3173 180.367 71.9049 181.207 73.0571C181.875 73.9729 182.572 73.4022 183.642 73.7903C184.16 74.0267 184.678 74.2638 185.195 74.5019C185.437 74.3336 185.702 74.2277 185.991 74.185C186.595 74.4891 186.018 75.0248 186.78 75.2039C187.175 75.3289 188.09 75.8031 188.49 75.5573C187.923 75.9058 187.542 76.7682 187.216 77.7159C186.907 78.2228 186.621 78.7806 186.735 79.1993C186.544 79.7798 186.348 80.3092 186.115 80.6778C187.432 80.8785 187.277 82.1189 188.189 82.8C189.42 83.8543 189.625 82.8757 189.334 82.3616C189.457 82.424 189.584 82.5053 189.715 82.598C189.739 82.6153 189.475 83.2416 189.734 83.3877C190.098 83.5929 190.098 83.3871 190.476 83.3829C190.832 83.3787 191.348 82.8445 191.783 82.7997C192.015 82.7761 192.699 83.0927 192.841 82.9986C193.235 82.7372 193.205 82.4504 193.051 82.1036L193.228 82.456C193.652 83.5644 193.866 83.3148 194.509 82.9972C194.335 83.0829 195.014 82.5768 195.153 82.6174C194.836 81.7388 193.579 81.8311 192.805 81.6114C193.296 81.7506 194.092 81.7558 194.543 81.9502C195.299 82.2755 195.06 82.6063 195.955 82.7077C196.331 82.7504 197.867 82.3331 198.138 82.0595C198.164 82.0335 198.182 82.0019 198.196 81.9668C198.335 81.7443 198.475 81.5214 198.613 81.2986C199.181 81.3645 198.567 82.2373 199.458 81.8901C200.123 81.6301 199.799 81.2687 199.587 80.8743C199.518 80.7452 199.44 80.6532 199.358 80.5869C200.278 80.807 201.371 82.045 202.627 81.6981C203.335 81.5027 203.374 81.0195 203.893 80.5675C204.587 79.9638 204.802 80.0568 205.642 79.7648C206.15 79.5878 206.692 79.1972 207.204 79.1063C208.038 78.958 207.808 79.05 208.499 79.4014C208.912 79.6114 209.147 80.0054 209.668 80.0818C210.145 80.1512 210.893 79.6034 211.278 79.7541C212.327 80.1641 212.06 81.6363 212.12 82.607C206.81 80.917 200.603 83.6183 196.695 87.3276C195.635 88.3333 194.942 89.5258 194 90.6194C192.978 91.8059 192.015 92.3451 191.871 94.0357C191.748 95.4934 192.405 96.3686 191.886 97.769C191.388 99.1115 190.845 100.313 190.481 101.712C188.742 108.395 188.688 115.335 187.399 122.111C186.206 128.38 184.503 133.965 181.697 139.712C180.396 142.376 179.305 144.007 176.452 145.13C174.144 146.039 172.454 144.848 171.326 142.775C168.29 137.198 167.858 131.462 167.895 125.24C167.912 122.252 168.253 119.262 168.541 116.291C168.84 113.212 168.616 110.334 168.401 107.259C167.972 101.094 166.565 95.8059 164.448 90.0073C163.445 87.2571 162.598 84.5761 160.181 82.7868C158.827 81.7849 157.467 80.5317 155.88 79.6652C154.61 78.9719 153.854 78.3456 152.406 78.0353C151.454 77.8312 150.586 77.516 149.666 77.2198C147.496 76.522 144.986 76.3061 142.71 76.3137C137.395 76.3318 131.562 78.121 126.778 80.4154C124.396 81.5579 121.809 83.2589 120.24 85.4262C119.593 86.3209 119.152 87.3127 118.712 88.3191C118.186 89.522 118.351 89.7421 117.236 89.7001C116.538 89.6737 115.757 89.0276 114.958 88.9933C114.082 88.9558 113.441 89.2606 112.626 89.4866C111.592 89.7733 110.62 90.0302 109.7 90.6246C107.468 92.0656 105.58 94.3624 103.875 96.3662C100.753 100.034 97.9281 104.144 95.0071 107.88C92.1307 111.558 88.6364 114.822 84.1685 116.49C82.4642 117.126 80.5769 117.255 78.8367 117.769C78.0731 117.995 77.1483 118.594 76.3482 118.583C75.091 118.567 75.1877 117.952 74.7523 116.954C74.235 115.769 73.4864 114.846 72.5511 113.961C68.4014 110.032 63.2406 115.853 63.5608 120.337C63.7482 122.957 65.712 124.685 65.6428 127.257C65.5778 129.663 65.721 132.103 66.5791 134.386C67.5423 136.947 69.9107 139.602 71.9993 141.344C73.9342 142.958 76.3576 143.301 78.795 143.57C79.9121 143.694 81.0713 144.026 82.1516 144.006C83.0771 143.989 83.9189 143.615 84.8639 143.653C86.4668 143.718 87.3259 143.707 88.828 143.138C89.942 142.716 90.9471 142.482 92.1602 142.509C92.1602 145.066 92.3223 147.566 92.542 150.114C92.5709 150.45 92.8035 151.324 92.6487 151.624C92.4579 151.994 92.2312 151.75 91.9933 152.016C91.4259 152.651 91.0146 152.963 90.5897 153.789C89.4243 156.052 89.0675 158.583 89.5216 161.107C89.878 163.085 91.0414 163.9 90.7663 166.002C90.443 168.472 89.8415 170.992 89.7254 173.478C89.6697 174.664 89.6558 175.559 89.4048 176.709C89.2598 177.377 88.772 178.579 88.8113 179.254C88.836 179.671 89.2779 179.856 89.2786 180.238C89.2796 180.571 88.8947 180.526 88.8683 180.812C88.7876 181.673 88.7407 182.453 88.7591 183.318C88.7835 184.489 88.6691 185.653 88.7129 186.824C88.7463 187.716 88.5387 189.827 89.5397 189.479C89.2727 190.109 89.2017 190.717 89.1753 191.321C89.1617 191.263 89.1558 191.203 89.161 191.141C89.2222 190.443 89.2428 190.18 89.5397 189.479L88.9684 189.678C88.619 190.579 89.048 191.463 89.144 192.36C89.1409 192.45 89.1378 192.539 89.1322 192.63C89.0515 193.933 89.1499 195.209 89.2473 196.509C89.4695 199.477 89.5741 202.786 90.3769 205.454C91.2569 208.378 90.9757 212.053 91.315 215.274C91.7034 218.959 92.333 222.586 92.8021 226.258C93.2211 229.537 93.4231 233.094 94.1417 236.287C94.7311 238.903 95.2297 241.449 95.5457 244.198C95.9831 248.01 97.3742 250.913 98.9051 254.377C99.5525 255.842 99.597 255.819 98.4086 256.89C97.9107 257.338 97.4886 257.863 96.9813 258.301C95.9657 259.179 94.8562 259.69 93.5225 259.848C90.2392 260.237 86.9223 261.404 85.0778 264.235C83.2951 266.971 84.4502 270.177 85.7843 272.965C84.0236 273.115 79.2619 273.007 80.3759 276.214C81.1374 278.407 85.1977 277.673 86.9911 277.697C89.6117 277.732 92.2506 277.603 94.8482 277.568C96.0308 277.551 96.1514 277.429 97.303 277.88C98.3881 278.304 99.2163 278.351 100.39 278.274C101.641 278.192 102.89 278.376 104.102 278.196C105.629 277.97 106.58 277.779 108.114 278.05C109.223 278.246 110.112 278.15 111.219 278.004C112.446 277.842 113.607 277.94 114.873 277.905C117.829 277.826 120.762 277.882 123.721 277.915C126.596 277.947 129.474 277.554 132.329 277.683C137.309 277.908 142.378 277.703 147.381 277.819C149.688 277.873 151.471 279.216 153.784 279.078C156.135 278.938 158.518 278.916 160.851 278.588C164.867 278.022 168.737 277.221 172.818 277.013C175.397 276.881 177.664 277.991 180.091 278.689C180.97 278.941 181.761 278.823 182.583 279.01C183.358 279.187 184.154 279.693 184.973 279.903C186.913 280.401 188.766 280.59 190.471 280.636C190.691 281.044 190.946 281.094 191.234 280.785C191.352 280.719 191.469 280.652 191.586 280.586C192.129 280.514 192.517 280.269 193.088 280.232C193.967 280.176 194.866 280.296 195.682 280.218C197.39 280.053 198.994 279.945 200.883 280.139C202.003 280.254 202.984 280.092 204.087 280.112C204.074 280.112 205.6 280.41 205.634 280.396C205.769 280.344 205.983 279.967 206.071 279.95C206.039 279.59 206.148 279.427 206.397 279.462C206.597 279.418 206.729 279.523 206.792 279.775C206.732 279.782 207.268 280.053 207.305 280.059C207.336 280.063 208.715 279.9 208.812 279.864C209.207 279.716 209.375 279.285 209.691 279.221C210.064 279.145 210.287 279.557 210.611 279.539C211.324 279.501 211.24 279.183 211.789 279.084C213.714 278.737 216.072 279.188 218.062 279.191C220.044 279.194 222.015 279.013 223.924 278.929C226.271 278.826 228.57 279.271 230.934 278.955C233.183 278.654 235.433 278.523 237.699 278.428C242.434 278.228 247.293 278.439 251.984 277.882C256.869 277.303 261.836 277.882 266.728 277.795C271.886 277.703 277.073 277.656 282.229 277.444C287.362 277.234 292.473 276.623 297.585 276.5C298.886 276.469 300.163 276.159 301.458 276.065C302.645 275.979 303.811 276.167 305.007 276.063C307.185 275.872 309.166 276.018 311.354 275.985C313.802 275.948 316.18 275.574 318.615 275.424C321.076 275.272 323.514 275.62 325.955 275.134C327.289 274.869 329.778 273.041 328.076 271.509Z" fill="black"/>
<path fill-rule="evenodd" clip-rule="evenodd" d="M231.433 53.7637C231.43 53.7637 231.427 53.7641 231.424 53.7637C231.411 53.7779 231.399 53.7932 231.387 53.8066L231.433 53.7637Z" fill="black"/>
<path fill-rule="evenodd" clip-rule="evenodd" d="M251.821 42.4922C252.13 41.4173 251.347 40.6474 250.822 39.8125C250.513 41.7067 249.565 41.6247 251.821 42.4922Z" fill="black"/>
<path fill-rule="evenodd" clip-rule="evenodd" d="M195.029 82.8469C195.037 82.8687 195.047 82.8879 195.054 82.9109C195.062 82.873 195.052 82.8534 195.029 82.8469Z" fill="black"/>
<path fill-rule="evenodd" clip-rule="evenodd" d="M186.483 81.4283C186.553 81.5865 186.707 82.6812 186.819 82.6866C187.81 82.7337 186.602 80.8817 185.968 80.7734C185.051 81.3653 186.505 81.4772 186.483 81.4283Z" fill="black"/>
<path fill-rule="evenodd" clip-rule="evenodd" d="M186.43 75.0312C186.364 74.1948 186.083 74.0888 185.281 74.4955C185.521 75.0214 185.806 74.9458 186.43 75.0312Z" fill="black"/>
<path fill-rule="evenodd" clip-rule="evenodd" d="M175.328 54.5512C175.711 54.615 176.094 54.6788 176.477 54.7422C176.252 54.2322 176.027 53.7214 175.802 53.2109C175.644 53.6579 175.486 54.1046 175.328 54.5512Z" fill="black"/>
<path fill-rule="evenodd" clip-rule="evenodd" d="M183.187 222.603C183.187 222.602 183.187 222.602 183.188 222.601C183.159 222.612 183.155 222.614 183.187 222.603Z" fill="black"/>
<path fill-rule="evenodd" clip-rule="evenodd" d="M105.087 118.346C105.897 116.99 107.435 115.315 109.185 115.879C110.82 116.406 111.273 118.549 111.977 119.897C113.348 122.518 113.774 119.704 114.078 118.113C113.831 114.927 112.591 109.741 108.398 110.29C105.208 110.709 102.454 115.833 103.061 118.862C103.571 121.408 104.433 119.439 105.087 118.346Z" fill="black"/>
<path fill-rule="evenodd" clip-rule="evenodd" d="M225.962 58.2974C224.396 57.7384 224.397 59.4307 224.337 60.7027C224.281 61.8714 224.462 64.613 225.937 65.0305C227.407 65.4469 227.546 63.0256 227.773 62.0466C227.431 60.8846 227.241 58.7542 225.962 58.2974Z" fill="black"/>
<path fill-rule="evenodd" clip-rule="evenodd" d="M227.773 55.7581C226.624 54.742 225.856 54.4308 224.388 55.0871C223.632 55.4248 222.553 56.1594 222.435 57.0858C222.065 59.9689 226.76 56.3497 227.773 55.7581Z" fill="black"/>
<path fill-rule="evenodd" clip-rule="evenodd" d="M228.013 73.0301C230.692 73.7222 230.863 70.0607 227.884 70.0547C225.891 70.0508 226.517 72.6438 228.013 73.0301Z" fill="black"/>
<path fill-rule="evenodd" clip-rule="evenodd" d="M207.535 61.6476C206.535 61.7937 206.182 62.4212 206.396 63.4226C206.644 64.5779 207.27 64.5875 208.391 64.6953C211.094 64.7038 209.33 61.3854 207.535 61.6476Z" fill="black"/>
<path fill-rule="evenodd" clip-rule="evenodd" d="M231.255 55.4471C231.503 56.1329 232.845 56.4427 233.547 56.1812C234.382 55.87 234.556 55.1141 233.802 54.4196C233.157 53.825 232.267 53.9817 231.459 54.037C231.486 54.2965 231.101 55.0206 231.255 55.4471Z" fill="black"/>
<path fill-rule="evenodd" clip-rule="evenodd" d="M147.215 133.602C148.492 133.6 147.287 131.439 146.234 131.305C146.257 131.973 146.213 133.603 147.215 133.602Z" fill="black"/>
</svg>
