<svg width="808" height="606" viewBox="0 0 808 606" fill="none" xmlns="http://www.w3.org/2000/svg">
<g clip-path="url(#clip0)">
<path fill-rule="evenodd" clip-rule="evenodd" d="M571.21 98.6328C574.704 110.051 576.206 121.212 579.139 132.715C582.368 145.376 585.77 158.54 590.19 170.827C598.449 193.792 611.93 209.304 624.639 230.406C634.552 246.869 661.958 302.51 667.057 311.287C670.242 316.772 672.288 324.858 674.475 330.813C675.714 334.183 677.045 342.689 676.457 346.147C666.899 345.08 656.736 343.914 647.383 346.147C644.34 346.874 633.903 353.133 630.971 352.4C627.737 351.593 629.651 346.685 628.425 343.696C624.946 335.218 621.058 326.553 618.516 317.78C615.92 308.811 598.555 253.194 588.723 235.122C583.668 225.834 579.887 216.465 574.254 207.516C568.396 198.209 563.541 189.279 553.922 183.385C554.919 175.325 559.512 166.53 562.173 158.832C564.775 151.301 566.002 144.724 566.955 136.698C567.862 129.076 570.763 121.613 569.654 113.844C569.078 109.803 566.43 107.098 565.452 103.525C564.889 101.468 563.371 103.277 565.517 100.696C566.519 99.4935 569.932 99.4894 571.21 98.6328ZM563.187 104.587C564.85 113.624 559.372 126.076 557.405 134.99C555.345 144.325 552.883 153.444 550.663 162.717C549.562 167.315 547.448 171.36 546.084 175.814C544.555 180.811 543.848 186.027 542.279 191.046C539.153 201.046 534.842 210.638 536.068 221.283C537.134 230.54 538.408 240.519 541.444 249.311C545.047 259.744 548.434 269.596 549.245 280.714C550.015 291.288 547.447 302.296 544.673 312.429C543.691 316.017 536.278 342.034 534.031 341.66C532.321 329.87 523.184 318.325 517.299 308.104C510.529 296.349 500.616 286.172 490.797 276.811C493.553 275.734 496.169 270.046 497.496 267.363C499.329 263.659 501.46 259.908 503.561 256.356C507.409 249.852 518.258 224 521.57 217.526C525.492 209.861 551.653 132.471 551.07 124.45C550.809 120.865 550.601 119.538 552.507 116.824C555.003 113.269 560.332 108.028 563.187 104.587ZM502.616 101C502.616 104.569 502.937 105.218 500.807 107.609C499.005 109.632 496.673 111.094 494.924 113.281C491.004 118.185 487.564 123.5 484.773 129.129C479.348 140.071 475.756 153.018 473.966 165.088C471.991 178.41 473.14 192.077 472.269 205.483C471.945 210.466 471.088 216.352 467.782 220.362C464.825 223.951 459.443 226.58 455.376 228.632C446.067 233.327 438.221 239.532 431.126 247.31C429.396 249.206 428.92 253.529 426.954 255.101C424.969 256.69 418.932 261.401 416.608 262.438C411.205 264.851 390.159 262.569 384.446 261.57C378.751 260.575 370.647 255.825 365.621 253.329C358.489 249.787 349.482 242.277 338.601 230.798C369.413 219.025 404.964 207.921 432.477 189.068C432.634 191.313 436.547 197.518 436.948 195.667C439.52 183.837 441.246 171.85 443.784 160.025C444.458 156.884 445.13 153.733 446.347 150.768C446.956 149.283 439.823 148.143 436.948 149.281C426.241 153.521 415.13 155.591 403.856 158.077C383.079 162.658 359.459 164.414 341.501 176.932C333.84 182.273 326.212 189.093 319.997 195.833C313.097 203.317 306.684 215.656 305.741 226.073C293.268 220.454 276.966 222.88 264.107 224.044C268.773 212.294 283.977 200.708 293.354 192.701C301.1 186.085 308.676 179.231 317.222 173.61C336.289 161.068 355.514 149.194 377.507 142.092C388.392 138.578 399.263 135.028 410.594 133.206C416.772 132.212 423.042 131.907 429.254 131.282C435.313 130.671 437.621 129.376 442.101 125.113C450.472 117.151 461.977 115.376 472.762 112.518C483.363 109.71 493.549 107.322 502.616 101ZM315.588 62.2675L329.74 69.4375C324.012 71.7613 319.566 73.3394 316.402 74.1719C311.656 75.4206 305.142 93.703 299.034 93.703C292.926 93.703 292.878 77.7515 295.898 71.2246C297.912 66.8733 304.475 63.8876 315.588 62.2675Z" fill="#7ED321"/>
<path fill-rule="evenodd" clip-rule="evenodd" d="M263.918 292.08C264.807 292.385 265.135 291.809 264.901 290.354C264.012 289.958 263.684 290.532 263.918 292.08ZM572.442 70.4903C571.034 70.6193 571.83 72.011 572.666 72.5312C572.591 71.8512 572.517 71.1712 572.442 70.4903ZM490.344 275.07C491.183 274.427 490.884 273.882 489.448 273.44C488.631 274.104 488.931 274.649 490.344 275.07ZM172.12 271.576C167.555 270.843 164.018 263.923 160.254 265.38C155.543 267.203 151.229 275.435 148.011 279.141C150.492 281.135 153.239 282.927 155.867 284.724C158.577 286.577 157.881 287.233 160.614 285.03C162.603 283.428 164.196 280.543 165.846 278.574C167.827 276.208 170.344 274.103 172.12 271.576ZM277.317 533.71C278.125 533.779 278.673 515.538 279.328 513.028C280.785 507.457 283.324 501.847 286.134 496.837C287.334 494.699 289.476 491.94 290.387 489.746C291.789 486.364 289.52 484.055 288.88 480.173C287.517 471.896 289.325 464.581 292.224 456.906C286.886 455.692 281.738 453.694 276.31 452.861C276.31 460.186 275.585 466.325 272.567 473.043C271.811 474.726 270.289 476.092 270.941 478.152C271.152 478.821 273.017 479.257 273.464 479.874C275.979 483.347 276.384 486.106 276.52 490.437C276.973 504.985 275.384 519.265 277.317 533.71ZM239.515 282.07C242.465 284.564 251.883 266.964 255.122 267.064C262.008 267.278 252.226 284.582 251.627 286.699C254.38 285.717 256.986 279.481 258.458 277.063C259.722 274.991 264.363 264.818 267.016 264.191C272.188 262.967 269.893 272.373 269.169 274.578C267.542 279.541 265.951 284.451 264.53 289.479C267.551 287.831 269.793 277.959 271.149 274.734C273.023 270.275 274.524 265.388 277.447 261.488C279.442 258.828 282.724 255.076 286.324 254.888C290.701 254.66 292.346 259.325 296.29 260.198C296.816 250.257 295.838 240.264 297 230.352C289.217 230.515 281.39 230.876 273.705 232.202C269.377 232.948 266.504 232.918 264.372 236.968C262.72 240.105 261.429 243.384 259.868 246.568C253.869 258.807 247.455 270.961 239.515 282.07ZM141.039 244.967C135.356 250.8 130.217 256.833 124.863 262.952C119.495 269.085 112.029 273.019 106.959 279.352C102.325 285.14 98.8469 291.803 94.4293 297.779C89.5394 304.396 85.4927 311.805 81.3285 318.905C85.6205 319.691 86.6784 319.779 89.4586 316.59C91.7605 313.95 93.6443 310.772 95.9676 308.111C101.369 301.92 106.575 296.879 113.324 292.029C119.921 287.29 128.418 283.142 136.308 280.73C139.385 279.79 140.515 280.027 142.219 277.213C143.442 275.197 143.887 272.672 145.127 270.607C147.805 266.15 152.036 263.646 156.241 260.819C151.489 255.223 145.794 250.651 141.039 244.967ZM520.574 75.1302C519.015 76.2966 518.807 80.6774 518.09 82.4971C516.776 85.8396 514.911 88.9762 513.277 92.1682C510.41 97.7717 508.028 104.045 508.133 110.473C508.241 117.08 513.363 120.874 519.517 122.072C526.28 123.389 531.471 120.73 537.415 117.886C543.313 115.063 548.181 110.602 552.872 106.097C556.585 102.532 558.952 96.7262 563.161 94.7262C567.157 92.8266 572.063 91.1472 573.265 85.5109C574.087 81.6605 572.522 82.1121 569.146 82.9334C565.553 83.8059 562.952 86.1151 559.618 87.3552C561.474 83.1259 561.919 79.6544 559.635 75.5101C558.319 73.1231 555.852 69.1733 552.862 69.0781C550.892 69.0156 548.538 71.1692 546.723 71.8625C544.5 72.7094 542.038 73.0995 539.75 73.7303C532.97 75.6033 527.537 75.9627 520.574 75.1302ZM533.932 341.512C536.206 341.891 543.531 315.958 544.537 312.278C547.305 302.145 549.86 291.128 549.092 280.559C548.284 269.412 544.846 259.623 541.32 249.152C538.344 240.315 537.045 230.403 535.962 221.122C534.72 210.462 539.027 200.886 542.151 190.881C543.594 186.258 544.354 181.528 545.622 176.879C546.956 171.987 549.312 167.551 550.506 162.548C552.719 153.271 555.166 144.154 557.224 134.818C559.181 125.938 564.528 115.368 562.874 106.349C560.09 109.716 556.725 112.652 553.974 115.96C551.169 119.335 552.145 119.599 552.484 124.278C553.044 132.004 551.42 140.979 549.621 148.485C545.869 164.135 539.235 178.347 534.394 193.53C531.906 201.336 530.917 210.138 527.397 217.506C524.241 224.112 519.875 229.985 516.528 236.368C512.859 243.366 508.564 249.972 504.552 256.778C502.652 260.001 500.676 263.158 498.988 266.503C497.568 269.322 495.994 276.119 493.21 277.21C503.007 286.583 510.508 296.183 517.26 307.952C523.136 318.195 532.226 329.693 533.932 341.512ZM554.318 183.294C563.565 188.965 568.198 197.295 573.874 206.235C579.536 215.154 584.837 224.285 589.876 233.569C599.901 252.037 607.277 270.382 612.816 290.692C615.315 299.852 618.951 308.746 621.548 317.714C623.946 326.001 624.726 334.433 628.178 342.373C629.132 344.566 629.869 349.414 632.397 350.189C635.375 351.101 643.367 347.014 646.379 346.261C656.163 343.82 666.366 343.327 676.398 344.449C676.985 340.993 673.018 334.176 671.781 330.808C669.738 325.242 667.901 319.307 665.162 314.044C660.443 304.982 654.988 296.167 649.529 287.628C643.744 278.58 638.987 268.875 633.072 260.051C630.342 255.98 626.44 250.486 624.645 245.959C623.757 243.722 623.48 242.859 622.41 240.961C621.477 239.303 620.386 237.669 619.4 236.03C606.964 215.364 597.777 194.391 589.782 171.865C585.405 159.535 581.747 147.123 578.283 134.503C575.027 122.644 574.411 110.414 570.794 98.594C568.667 100.019 565.099 99.8198 565.165 102.645C565.177 103.2 568.16 107.156 568.487 107.925C569.148 109.485 569.554 111.132 569.855 112.794C571.324 120.87 568.375 128.705 567.335 136.636C566.327 144.312 565.419 150.597 562.801 157.799C559.968 165.597 555.329 175.12 554.318 183.294ZM341.373 231.015C350.412 238.873 358.785 247.693 369.484 253.003C374.509 255.495 378.504 259.029 384.2 260.023C389.916 261.021 395.814 260.456 401.551 260.048C407.416 259.632 412.723 259.563 418.125 257.152C420.45 256.116 423.984 255.113 425.969 253.526C427.935 251.954 429.172 249.407 430.903 247.512C437.998 239.741 445.846 233.54 455.152 228.851C465.526 223.622 471.266 217.685 472.045 205.722C472.916 192.328 471.767 178.673 473.742 165.363C475.535 153.285 479.118 140.376 484.549 129.435C487.339 123.811 490.779 118.501 494.699 113.601C496.447 111.416 498.78 109.955 500.582 107.934C502.711 105.545 502.39 104.897 502.39 101.331C493.324 107.647 483.138 110.034 472.538 112.839C461.788 115.685 450.218 117.496 441.878 125.423C437.398 129.682 435.09 130.976 429.03 131.586C422.819 132.211 416.549 132.515 410.371 133.508C399.037 135.33 388.174 138.875 377.286 142.386C355.295 149.483 336.069 161.346 317.002 173.876C308.452 179.496 300.886 186.337 293.135 192.95C283.758 200.951 271.151 211.67 266.485 223.408C279.334 222.247 292.379 218.538 304.848 224.152C305.795 213.717 312.873 203.564 319.777 196.081C325.901 189.445 333.388 182.813 340.88 177.475C358.81 164.7 382.72 161.389 403.592 156.792C414.874 154.307 425.391 152.368 436.105 148.13C438.818 147.057 446.733 142.254 448.227 145.115C449.182 146.944 446.733 149.571 446.124 151.056C445.07 153.619 444.47 156.284 443.859 158.993C441.105 171.212 439.39 183.664 436.725 195.915C436.334 197.719 435.811 205.879 432.568 204.77C430.406 204.031 432.411 191.572 432.254 189.321C404.737 208.162 372.188 219.251 341.373 231.015ZM372.302 441.341C366.187 441.605 359.96 444.896 354.031 446.392C346.04 448.411 337.654 450.467 330.256 454.086C326.319 456.013 326.282 457.139 327.36 461.531C328.207 464.984 329.184 468.326 329.897 471.839C331.665 480.56 333.642 489.171 335.842 497.791C358.618 478.787 387.69 468.039 416.101 460.717C420.12 459.681 424.215 459.363 428.29 458.654C431.86 458.034 435.926 458.476 439.31 457.774C441.484 457.323 443.45 455.858 445.672 455.343C450.479 454.229 456.208 454.14 460.834 452.43C467.024 450.142 473.948 447.117 480.073 444C486.759 440.594 492.139 438.107 493.5 430.783C494.579 424.974 497.287 419.548 498.128 413.846C499.224 406.411 497.863 399.805 497.405 392.373C496.344 375.175 493.842 357.791 489.468 341.016C485.274 324.933 482.282 308.467 479.391 292.162C478.828 288.985 477.702 286.057 476.965 282.934C475.737 277.739 473.295 279.071 468.578 279.376C459.755 279.945 450.425 276.427 443.098 271.676C439.638 269.435 435.265 264.308 431.309 263.207C427.784 262.224 424.188 266.984 420.823 268.58C412.784 272.39 402.926 273.421 394.152 274.022C375.012 275.333 360.506 262.878 347.464 250.208C338.708 259.998 329.221 269.307 319.055 277.625C310.677 284.48 303.557 293.382 296.584 301.544C290.033 309.214 284.736 321.143 275.839 326.516C270.652 329.65 266.784 327.667 261.774 324.516C257.798 322.013 253.414 320.649 249.411 318.34C230.928 307.675 213.474 295.631 195.416 284.325C191.467 281.853 185.259 276.037 180.612 275.619C177.168 275.309 177.44 276.17 175.448 279.02C173.518 281.783 171.562 284.526 169.646 287.298C162.138 298.165 154.134 309.383 148.049 321.118C161.296 317.96 173.821 317.474 186.857 319.339C198.85 321.057 214.16 323.129 224.777 329.611C229.312 332.38 233.766 335.49 238.29 338.638C243.968 342.589 248.377 348.114 254.663 351.094C260.085 353.663 265.952 354.826 271.587 356.741C277.919 358.891 286.901 362.899 293.626 361.158C299.356 359.674 304.154 354.593 308.468 351.093C314.08 346.54 320.9 343.426 326.579 339.181C336.644 331.66 347.149 325.233 357.974 318.511C370.899 310.482 383.298 301.256 396.714 294.189C399.352 292.798 401.96 291.835 404.415 290.174C406.723 288.612 408.385 285.755 411.162 287.792C413.632 289.6 412.554 292.933 411.806 295.254C411.106 297.429 410.458 298.125 410.91 300.023C411.33 301.789 414.048 304.499 414.981 306.225C419.391 314.379 422.54 323.132 426.764 331.379C430.875 339.398 435.514 347.114 439.337 355.286C446.882 371.416 457.418 385.709 464.1 402.357C461.022 403.618 460.639 401.023 458.252 400.777C455.643 400.508 456.587 401.005 453.996 402.872C450.522 405.378 446.795 406.962 443.066 408.917C434.766 413.269 426.266 418.391 417.308 421.398C401.921 426.566 387.741 435.697 372.302 441.341ZM637.049 366.035C636.518 369.852 635.834 373.64 635.278 377.451C634.885 380.145 633.378 384.047 633.72 386.713C637.684 384.841 641.949 378.568 645.01 385.43C646.833 389.517 644.548 397.629 644.009 402.028C648.489 401.119 647.477 390.116 654.635 393.667C660.139 396.397 656.288 410.273 660.591 411.625C663.563 406.938 663.074 396.305 664.047 390.726C664.503 388.111 663.85 384.598 666.911 384.428C669.562 384.281 671.661 388.123 672.916 389.879C674.111 383.504 677.336 377.845 675.928 371.975C675.058 368.345 674.167 364.71 673.236 361.094C672.688 358.965 672.105 352.429 670.253 350.966C666.808 348.242 654.217 353.092 650.41 354.185C646.936 355.184 642.509 356.13 639.312 357.813C635.955 359.581 636.984 362.127 637.049 366.035ZM525.481 146.594C530.638 146.03 535.107 142.905 539.063 139.648C545.548 134.309 546.532 130.128 547.765 121.903C539.448 125.956 533.305 129.309 523.921 129.478C513.18 129.672 507.899 123.374 502.96 114.708C501.636 116.728 499.744 118.87 498.777 121.083C497.555 123.879 497.71 123.298 498.064 126.136C498.611 130.516 500.794 136.13 503.012 139.974C507.799 148.274 517.212 149.398 525.481 146.594ZM313.169 480.047H322.922C322.362 476.474 321.803 472.902 321.244 469.33C320.757 466.211 321.566 461.825 318.502 461.283C315.964 460.833 313.445 463.645 310.863 463.393C307.917 463.106 306.222 460.993 302.806 461.843C297.944 463.055 298.916 468.379 298.843 472.847C298.815 474.602 298.14 477.241 298.689 478.947C299.644 481.924 298.846 480.736 301.805 481.026C305.279 481.367 309.591 480.241 313.169 480.047ZM554.931 49.7514C558.504 50.3197 567.757 57.9222 570.368 56.1086C573.914 53.6479 563.72 46.8493 561.632 45.7791C551.425 40.5483 532.334 44.6814 525.472 54.2316C529.969 54.6688 535.463 50.5501 540.076 49.8732C545.018 49.1482 549.966 49.7637 554.931 49.7514ZM552.441 246.502C555.35 258.221 560.573 270.779 560.541 282.962C560.509 295.626 557.712 307.118 552.587 318.713C550.024 324.514 547.728 330.378 544.815 336.018C543.467 338.63 542.226 341.83 540.36 344.109C538.06 346.919 537.346 346.711 534.61 344.48C533.387 347.607 532.105 350.831 527.948 348.728C524.954 347.214 525.018 343.461 524.038 340.671C521.411 333.193 515.796 326.743 511.833 319.93C507.768 312.945 504.337 305.432 499.84 298.717C497.675 295.484 495.095 292.474 492.783 289.335C491.029 286.956 488.352 281.454 485.916 280.058C485.594 283.195 488.94 287.762 490.176 290.825C491.798 294.847 493.191 298.982 494.361 303.157C496.636 311.266 498.01 319.74 499.743 327.982C502.839 342.718 506.491 357.359 508.563 372.315C510.491 386.23 511.004 400.606 509.539 414.582C508.91 420.585 505.391 425.661 503.018 431.129C499.793 438.561 495.874 443.195 489.396 448.468C477.631 458.042 464.606 463.771 450.278 468.044C447.605 468.841 445.121 468.495 442.614 469.036C439.8 469.641 437.561 471.074 434.503 471.553C426.61 472.787 418.581 474.238 410.961 476.475C404.955 478.24 399.023 480.077 393.081 481.91C388.553 483.307 382.974 484.605 378.615 486.663C367.862 491.743 357.776 497.702 347.798 504.015C344.873 505.867 342.716 506.989 340.558 509.728C338.225 512.691 338.562 514.787 337.29 518.167C336.103 521.322 334.031 523.099 331.216 520.476C328.585 518.025 329.625 512.852 329.411 509.819C329.089 505.245 326.378 487.756 323.23 486.294C320.957 485.238 314.31 487.508 311.553 487.811C307.981 488.204 304.762 488.194 301.204 487.706C302.381 492.603 298.086 499.224 296.282 503.529C293.206 510.872 290.812 518.024 289.537 525.838C288.669 531.165 288.948 536.515 288.129 541.904C287.285 547.468 288.564 556.191 281.009 557.025C269.015 558.35 265.956 534.355 264.592 526.309C262.452 513.69 264.146 501.255 265.408 488.568C265.511 487.54 266.034 483.02 265.568 482.2C265.189 481.532 261.817 480.378 261.383 480.07C257.582 477.367 259.129 475.931 260.261 471.906C262.423 464.215 261.796 454.606 266.991 447.881C270.965 442.736 279.888 445.862 285.028 447.25C288.859 448.285 292.644 449.678 296.366 451.058C298.94 452.011 301.814 454.863 304.068 455.323C308.564 456.241 311.876 450.5 315.23 448.467C321.28 444.8 327.591 441.428 334.11 438.969C346.088 434.45 358.485 431.856 370.774 428.052C378.298 425.725 385.729 423.18 392.876 419.816C398.158 417.332 403.484 413.834 409.198 412.15C416.395 410.029 423.699 407.081 430.724 404.15C438.196 401.034 446.371 399.036 454.04 396.51C438.075 373.139 424.433 348.14 413.468 322.027C412.204 319.017 410.99 315.989 409.87 312.921C409.3 311.359 407.9 304.358 406.416 303.369C403.717 301.575 392.876 309.706 389.857 311.686C378.913 318.855 368.418 326.691 357.017 333.207C347.143 338.849 337.828 345.394 328.386 351.446C323.186 354.779 318.349 359.029 313.062 362.395C307.789 365.751 301.583 372.002 295.336 373.452C293.006 373.993 289.056 373.332 286.7 373.14C283.379 372.871 279.672 372.572 276.442 371.649C270.11 369.842 263.419 367.789 257.231 365.538C246.107 361.493 237.485 351.514 227.457 345.352C215.37 337.926 201.679 336.075 188.17 331.97C173.39 327.479 156.997 326.99 141.397 328.156C141.397 313.923 148.268 303.248 155.766 291.566C150.366 288.021 148.087 285.812 142.043 289.092C137.559 291.525 133.426 293.714 129.267 296.434C124.749 299.389 119.941 301.656 115.441 304.897C110.551 308.419 106.274 312.156 101.758 316.098C98.3624 319.063 94.4947 321.758 90.9427 324.438C87.4348 327.085 83.8624 326.702 79.3763 324.898C78.0536 324.365 73.9221 322.508 73.223 321.613C71.8135 319.808 72.8561 318.55 74.0264 316.171C76.734 310.665 80.1929 305.076 83.7265 300.042C86.8808 295.55 90.9744 291.798 94.277 287.416C97.4129 283.259 99.6544 278.431 103.287 274.664C107.349 270.449 112.166 267.066 116.001 262.576C117.914 260.336 120.093 257.948 120.244 255.305C120.361 253.277 118.103 251.313 118.081 249.858C118.033 246.443 123.885 242.969 126.328 240.457C129.915 236.767 133.457 233.579 138.997 235.162C143.064 236.323 149.183 241.45 152.214 244.429C156.026 248.179 159.187 252.519 163.119 256.229C165.33 258.315 167.687 260.218 169.971 262.218C171.322 263.4 173.464 266.791 174.958 267.482C176.294 268.101 177.598 267.516 179.466 267.465C178.625 267.487 182.883 268.204 182.656 268.142C184.672 268.682 186.661 269.267 188.647 269.909C196.811 272.547 204.333 276.997 211.7 281.429C230.411 292.686 247.969 304.681 266.295 316.679C271.724 320.231 273.216 319.979 277.383 314.893C281.273 310.148 284.497 304.874 288.151 299.954C294.171 291.848 300.959 283.964 308.067 276.761C315.384 269.348 323.819 263.141 331.639 256.282C333.811 254.377 342.762 247.945 342.197 245.534C341.878 244.172 338.984 241.873 338.067 240.479C336.7 238.4 335.282 236.054 334.273 233.761C328.333 220.262 343.751 219.338 352.772 215.166C363.785 210.072 374.689 204.446 385.945 199.898C391.598 197.616 397.257 195.531 402.964 193.414C408.217 191.465 413 188.306 418.17 186.156C421.978 184.571 430.25 183.967 432.788 180.597C434.285 178.609 433.64 172.331 433.903 170.016C434.337 166.173 434.978 162.351 435.983 158.613C434.096 158.273 430.553 160.346 428.837 161.142C425.533 162.676 422.655 164.187 418.989 165.152C411.144 167.214 402.93 167.449 395.201 169.688C383.437 173.097 370.893 175.069 359.387 179.961C346.138 185.592 334.731 195.498 325.425 206.19C320.621 211.709 316.801 217.014 313.523 223.565C312.674 225.262 311.667 230.947 310.362 232.131C308.7 233.638 304.313 232.052 302.424 231.741C302.424 236.758 302.528 241.783 302.348 246.791C302.157 252.078 303.11 260.189 301.281 265.066C299.565 269.645 296.36 268.697 292.967 266.42C288.457 263.395 286.144 261.659 282.101 266.347C275.069 274.502 272.409 287.169 267.585 296.714C266.005 299.841 262.11 306.386 259.979 299.96C258.428 295.277 261.002 289.304 259.799 284.678C258.155 287.564 253.241 296.152 249.352 296.128C244.002 296.096 245.748 287.789 245.926 284.402C242.772 287.769 233.513 298.771 231.273 289.952C229.551 283.184 234.357 276.466 237.768 271.137C241.738 264.935 245.641 258.639 249.76 252.544C253.791 246.579 256.49 239.819 260.576 233.818C257.461 234.249 251.431 233.231 253.347 228.409C254.35 225.887 257.519 226.947 259.067 225.382C260.679 223.751 261.546 219.124 262.449 216.987C266.893 206.461 273.267 197.807 280.638 189.248C293.662 174.123 310.29 162.048 327.055 151.918C347.031 139.85 367.624 132.51 389.991 126.611C400.591 123.816 411.339 122.531 422.053 120.518C426.501 119.682 431.012 119.211 434.532 116.393C439.778 112.19 443.238 109.079 449.562 106.397C454.673 104.23 459.523 103.231 465.097 102.305C471.071 101.312 477.926 102.633 483.667 100.946C488.437 99.5433 493.997 96.4978 498.33 94.0606C500.513 92.8338 504.378 92.1426 505.556 91.0991C507.831 89.0858 509.337 84.066 510.789 81.3625C507.195 82.3036 505.826 79.7507 504.865 76.6581C503.265 71.5153 503.249 73.2244 498.256 71.0709C495.299 69.7949 494.342 66.39 491.998 65.1816C489.485 63.8842 485.497 66.6819 482.529 65.7725C480.122 65.0342 477.769 62.4474 477.901 59.6938C477.955 58.5448 479.166 57.5249 479.188 56.5889C479.24 54.3954 477.448 53.184 477.71 50.7795C478.115 47.0582 480.005 47.6869 478.401 43.6542C476.802 39.64 477.425 38.8484 477.906 34.6877C478.04 33.5378 477.448 31.6853 478.251 30.7073C478.72 30.1359 480.434 30.0478 480.608 29.759C481.263 28.6807 481.283 27.7949 481.415 25.8175C481.49 24.6911 481.142 22.4382 482.314 21.6046C483.332 20.8806 484.777 22.2262 485.668 21.8002C486.442 21.4305 487.111 19.5883 488.382 19.3661C493.075 18.5448 491.643 23.3199 494.04 17.36C495.428 13.9079 496.494 12.4947 498.985 10.5317C500.068 11.0314 500.742 10.8296 501.011 9.9244C501.375 9.27004 501.741 8.6167 502.106 7.96336C504.048 7.50357 504.327 8.95873 505.831 7.52917C508.354 5.12984 505.758 -0.183908 510.855 1.23848C514.554 2.26969 515.452 7.011 519.32 8.14973C519.853 6.60548 519.784 2.09151 522.03 1.63479C524.317 1.16987 526.058 5.33772 526.89 6.69867C527.43 5.52819 528.326 2.0229 529.217 1.16578C531.778 -1.29704 531.003 1.08897 533.269 1.41667C533.625 1.83345 533.981 2.25126 534.337 2.66907C535.523 2.09049 536.689 1.48016 537.838 0.833989C540.323 0.363954 539.437 0.620988 541.604 1.49757C543.337 2.19903 542.3 3.00086 544.406 3.44222C545.935 3.7607 547.229 2.17343 548.931 2.65985C549.426 2.87593 549.922 3.09302 550.417 3.3091C551.118 4.86461 552.195 5.14008 553.646 4.13447C555.357 4.84004 557.666 7.6756 559.488 7.58242C562.97 7.40116 562.15 2.60763 565.969 2.84213C567.385 2.92815 571.045 6.73554 572.055 7.86608C573.47 9.45232 573.07 10.8225 574.843 12.6064C577.413 15.19 575.905 13.8045 578.358 14.9739C582.014 16.7179 583.362 16.0584 584.867 20.2559C586.178 23.9066 586.911 28.4483 586.926 32.3161C586.934 34.7297 585.198 40.0527 588.548 38.8853C590.899 38.0661 590.504 32.2382 593.027 34.0662C594.945 35.4548 591.16 42.8801 591.117 44.622C590.99 49.6336 591.79 50.035 588.684 53.78C587.212 55.5536 583.839 58.8223 583.092 61.1203C582.208 63.8381 584.554 68.5456 585.096 70.9736C586.27 76.2433 585.278 77.3565 581.798 81.4977C581.425 81.7209 581.052 81.9452 580.677 82.1684C578.819 82.1643 578.303 83.0911 579.13 84.9466C578.39 87.0162 578.479 89.0111 577.432 91.0909C576.86 92.2276 574.332 94.5286 574.203 95.653C573.975 97.6581 574.971 98.0093 576.658 100.088C583.464 108.469 586.58 119.329 589.947 129.409C595.877 147.165 603.185 164.484 610.263 181.862C613.022 188.636 615.818 195.142 618.681 201.991C622.244 210.519 627.251 218.304 631.487 226.568C634.414 232.281 637.402 238.552 641.06 243.479C645.663 249.68 648.249 257.649 652.285 264.361C656.597 271.529 661.631 278.593 665.789 285.97C669.765 293.026 674.678 299.484 678.454 306.73C683.167 315.778 688.656 326.648 689.953 336.901C690.412 340.534 691.841 346.527 689.586 349.636C687.251 352.854 680.823 354.2 677.562 351.797C680.823 359.391 682.851 367.898 684.315 376.019C684.947 379.527 685.828 382.624 685.055 386.209C684.363 389.413 685.51 387.548 682.923 389.422C680.756 390.99 681.757 386.568 680.055 391.076C679.696 392.028 680.4 394.666 680.375 395.77C680.276 400.201 679.946 404.713 679.774 409.169C679.643 412.551 680.187 415.403 676.034 415.045C672.703 414.758 671.055 411.222 669.577 408.727C669.022 412.7 668.704 416.666 668.245 420.651C667.839 424.186 668.651 427.678 664.125 427.297C656.703 426.671 653.778 413.221 651.897 407.601C648.516 412.056 646.872 420.901 645.385 426.349C643.969 431.534 642.318 442.571 635.083 435.781C630.262 431.257 632.13 422.357 632.994 416.567C633.28 414.657 637.35 397.876 635.447 396.908C632.726 399.82 629.557 404.575 625.077 402.009C621.05 399.703 622.36 394.578 622.681 390.879C623.593 380.356 627.204 370.269 629.881 360.072C628.358 359.731 624.655 359.427 623.4 358.294C621.792 356.841 622.783 356.135 622.077 354.279C621.122 351.765 619.407 349.211 618.053 346.823C613.64 339.041 612.281 331.284 610.001 322.816C607.799 314.637 603.651 307.438 601.451 299.154C599.013 289.977 596.415 280.959 593.538 271.819C587.256 251.851 578.207 232.839 567.804 214.728C566.437 212.351 555.246 186.667 553.56 187.425C552.358 187.967 551.669 194.613 551.21 196.409C550.147 200.568 549.939 204.941 549.688 209.227C545.588 219.225 549.953 236.477 552.441 246.502Z" fill="black"/>
<path fill-rule="evenodd" clip-rule="evenodd" d="M174.213 212.655C178.391 213.651 179.885 203.913 180.353 200.898C181.11 196.01 181.977 191.806 184.611 187.531C185.891 185.453 187.421 183.315 189.083 181.523C190.052 180.48 192.48 179.12 192.987 178C194.39 174.904 192.76 167.12 192.779 163.637C192.791 161.399 191.328 150.99 193.954 150.263C197.365 149.318 198.254 158.812 198.632 160.949C199.063 163.396 198.992 165.756 199.253 168.177C199.494 170.437 200.725 171.837 201.196 173.343C202.544 177.647 199.344 181.261 197.051 185.139C194.499 189.454 191.737 193.646 189.946 198.357C188.002 203.469 188.127 208.852 186.607 214.027C184.136 222.436 173.774 227.022 165.381 224.555C160.92 223.243 161.858 220.227 160.444 216.753C159.909 215.434 158.405 214.702 157.957 212.95C157.483 211.097 157.917 208.683 158.281 206.811C160.047 197.747 162.911 188.257 165.678 179.438C150.617 187.734 134.667 193.199 117.324 192.888C108.704 192.733 102.424 190.883 96.1793 198.249C91.3403 203.958 91.3465 213.998 89.3716 221.097C87.2281 228.804 85.2952 238.675 80.4154 245.124C74.5287 252.906 66.4913 251.625 65.8913 241.247C65.3792 232.4 69.7797 224.015 69.0417 215.033C68.6706 210.514 66.891 206.533 67.0004 201.956C67.0944 198.023 67.8662 194.329 68.5939 190.456C59.9801 191.501 53.3084 195.042 47.1886 200.982C41.4583 206.542 39.0685 213.408 34.3369 219.767C30.0192 225.57 26.1983 233.555 17.6754 233.356C6.79646 233.104 6.11161 219.708 10.1911 212.548C12.2763 208.889 15.1732 206.024 17.8237 202.801C20.7583 199.233 21.1048 196.368 21.71 191.81C22.1699 188.335 22.2967 183.743 25.4235 181.451C28.2355 179.388 31.7661 180.392 34.3675 177.657C36.8565 175.043 38.8211 171.086 41.0566 168.196C43.8482 164.587 46.7379 160.859 49.2207 157.029C54.5626 148.783 61.5829 143.046 68.9824 136.594C66.2992 134.923 59.2247 136.77 55.9016 136.241C50.4422 135.371 43.3769 132.771 39.1472 129.033C30.3667 121.27 26.1472 111.173 25.7148 99.5044C25.2988 88.2967 27.0569 74.7791 35.3846 66.4503C39.6286 62.2046 45.0625 58.4889 50.4248 55.7819C53.9953 53.9803 61.3488 50.0507 65.4773 51.6733C75.0091 55.4228 53.4515 70.3349 50.6088 72.7207C41.5524 80.322 36.278 87.6584 36.4885 99.8174C36.6919 111.64 48.082 117.261 57.6087 121.172C62.5498 123.2 68.5183 124.828 74.038 124.68C80.2927 124.513 84.547 120.92 90.2446 118.813C101.459 114.665 112.963 111.876 124.523 109.082C135.906 106.329 148.289 106.951 159.945 105.154C170.904 103.464 181.143 101.38 191.502 97.3938C202.229 93.2668 210.502 80.9573 222.201 79.6621C229.457 78.86 225.91 83.9968 222.775 86.6312C219.024 89.7832 214.951 92.5291 211.197 95.6914C201.636 103.745 191.62 108.483 179.502 111.553C170.699 113.782 161.208 115.867 151.853 117.197C140.043 118.877 128.156 118.352 116.554 121.411C109.685 123.222 103.015 125.528 96.534 128.47C93.8794 129.675 88.3893 131.606 87.8977 133.749C87.2598 136.524 89.48 136.469 86.8039 139.024C82.2962 143.33 76.433 146.375 71.8802 150.842C66.8092 155.82 61.9856 160.646 57.8775 166.483C53.8031 172.273 50.5495 177.884 44.5156 181.877C42.5153 183.201 39.1196 185.522 36.8463 186.131C34.7539 186.692 33.7982 185.833 32.0073 186.997C27.244 190.092 30.0979 199.757 28.8406 204.542C27.2328 210.67 23.1154 215.271 20.5518 220.955C24.1386 220.178 26.643 214.238 28.487 211.436C30.5538 208.293 33.1716 206.177 35.8016 203.46C41.3316 197.751 42.7953 189.942 49.3689 184.566C61.2772 174.828 79.7878 175.668 89.7233 162.615C91.3322 160.5 92.844 154.388 94.7748 153.058C98.3116 150.623 98.0121 157.902 97.6482 160.062C96.4042 167.439 91.8555 176.156 85.9085 180.812C83.2171 182.921 79.4525 183.885 77.1168 186.622C76.5444 186.848 75.974 187.076 75.4016 187.303C75.743 188.519 75.9291 189.755 75.9566 191.01C76.0108 193.203 75.4793 195.343 75.3904 197.554C75.1686 203.123 76.4003 207.883 77.5155 213.217C78.3138 217.027 76.1662 224.969 77.8773 228.075C81.2587 216.728 85.2349 203.621 91.6409 193.536C93.1547 191.15 96.1568 189.181 97.3487 186.724C97.915 186.095 98.4812 185.465 99.0475 184.836C98.055 183.916 97.1902 182.891 96.4533 181.759C92.6119 173.686 101.029 178.678 104.386 179.363C109.784 180.465 116.511 178.201 122.117 178.031C127.579 177.866 132.966 177.683 138.306 176.835C144.072 175.921 150.055 174.538 155.696 173.025C161.36 171.505 166.594 168.379 172.099 167.005C166.596 163.243 164.854 158.346 162.95 152.23C161.699 148.208 157.253 138.45 160.051 134.369C163.084 129.942 164.166 136.75 165.149 139.161C166.813 143.238 169.332 150.194 172.415 153.253C174.077 154.902 176.322 154.721 177.807 156.92C178.899 158.539 179.047 160.775 179.218 162.652C179.724 168.192 177.533 172.626 175.58 177.67C171.024 189.429 169.183 202.006 163.224 213.194C166.848 213.541 170.6 213.02 174.213 212.655Z" fill="black"/>
<path fill-rule="evenodd" clip-rule="evenodd" d="M250.448 120.004C253.356 119.321 262.508 118.322 259.853 112.991C257.166 107.598 250.015 116.319 250.448 120.004ZM337.08 77.5484C335.372 77.0183 332.662 75.783 330.834 75.914C328.667 76.0695 327.057 77.6395 324.858 77.8473C320.373 78.271 316.904 76.3571 313.973 81.1469C320.209 81.1469 332.684 83.2614 337.08 77.5484ZM219.424 189.262C225.359 190.09 228.307 163.877 228.621 160.443C225.96 160.171 218.784 165.399 218.158 167.807C217.471 170.453 219.838 174.697 220.125 177.447C220.551 181.517 220.1 185.254 219.424 189.262ZM252.496 39.6365C245.35 40.3325 237.355 42.6455 230.797 38.6714C225.48 35.4506 223.51 28.6549 219.032 24.6654C219.032 36.1711 229.378 45.2369 239.905 48.8876C245.266 50.7462 253.479 47.9429 258.215 50.9723C259.589 51.8505 262.517 55.8512 262.624 57.504C262.991 63.1372 258.976 58.0956 256.702 58.2696C253.541 58.5111 249.142 66.8421 246.507 69.3751C244.526 71.2808 242.288 72.8272 240.05 74.4648C239.312 75.0051 235.521 76.9231 235.332 77.8504C235.165 78.6732 237.244 81.6975 237.682 82.4774C240.696 87.8485 244.327 91.6977 249.092 95.4866C251.44 97.3533 253.885 98.3932 256.239 99.9437C257.006 100.451 260.129 104.704 259.221 104.525C260.533 100.54 264.269 95.9256 266.754 92.4029C269.302 88.7911 272.66 85.0074 276.931 83.5449C278.808 82.9021 281.915 82.3505 283.868 82.1929C285.239 82.1448 286.598 82.2574 287.943 82.5306C289.901 83.3944 290.667 82.6995 290.24 80.4428C292.297 76.1709 291.085 70.7926 293.701 66.4531C296.771 61.3584 301.792 59.0505 307.545 59.6246C310.13 59.8826 312.915 60.992 315.475 60.5396C318.012 60.0913 320.887 58.0444 323.369 57.1622C333.012 53.7336 344.911 49.5671 352.471 42.4244C353.619 41.3416 356.858 38.3368 357.113 36.7801C356.438 35.2613 355.765 33.7445 355.09 32.2267C354.914 30.0017 353.831 29.3948 351.843 30.407C349.502 30.3579 345.061 33.0445 342.718 33.8131C339.743 34.7895 336.751 35.6481 333.823 36.7504C328.742 38.6632 323.796 40.6283 318.462 41.7664C312.938 42.9433 310.308 43.6608 307.402 38.4278C304.558 33.3126 304.962 30.321 298.346 31.0692C292.448 31.7344 287.505 33.9594 282.068 36.3072C278.457 37.866 273.753 40.7368 270.081 41.3519C267.359 41.8083 264.422 40.748 261.8 40.2015C258.488 39.5127 255.864 39.6335 252.496 39.6365ZM321 69.3444H323.971C321.669 67.9914 319.365 66.6374 317.063 65.2844C313.821 70.5163 305.718 68.2411 300.807 71.3586C296.773 73.9193 292.986 84.8314 296.859 88.8054C302.241 94.329 304.892 82.0731 306.419 79.2494C309.529 73.5027 314.213 69.1991 321 69.3444ZM226.856 81.0579C224.446 76.5096 226.026 72.162 229.603 69.7487C234.763 66.2679 239.957 62.4545 245.017 58.5981C236.417 57.2492 230.253 54.405 223.241 49.1598C215.151 43.1071 212.849 37.5139 213.075 27.2906C213.189 22.159 212.471 7.57371 220.755 11.8077C227.598 15.3059 228.542 25.0881 235.904 28.4041C243.177 31.6792 251.744 28.2823 259.393 30.8328C261.57 31.5594 267.393 36.6706 269.162 36.647C271.512 36.6143 277.414 31.4213 279.636 30.188C285.211 27.0951 292.421 24.079 298.632 23.1876C302.532 22.6277 303.802 22.2265 306.629 25.1014C309.794 28.3202 310.786 32.2994 311.916 36.4812C323.924 31.5369 336.055 26.9221 348.402 22.8908C352.324 21.6104 355.017 19.9729 358.362 17.9096C363.152 14.9559 365.817 16.3232 366.688 22.4302C368.222 33.1888 361.648 40.0695 355.935 48.122C352.784 52.5628 350.631 55.6997 345.509 57.9677C340.177 60.3278 333.759 59.5673 327.968 61.341C329.454 63.1505 330.239 67.364 331.547 68.6362C332.612 69.6699 337.705 69.4979 339.423 70.4006C344.571 73.1066 343.959 77.6231 340.769 82.0895C337.171 87.127 331.851 88.0552 326.038 88.4943C323.436 88.6898 321.116 88.7256 318.512 88.5414C316.826 88.4227 310.96 86.6019 309.69 87.1413C308.185 87.7789 307.836 91.098 307.151 92.6137C306.063 95.0229 304.852 97.4608 302.29 98.5743C300.074 99.5364 297.575 99.2764 295.56 97.9551C292.858 96.1856 293.599 94.0967 291.899 91.8246C291.738 89.4318 290.718 88.9784 288.838 90.4624C287.402 90.9649 285.968 91.4726 284.536 91.9853C281.574 93.064 278.808 94.1049 276.201 95.9174C271.207 99.388 268.183 105.243 262.618 107.683C266.249 113.889 263.982 122.333 257.871 125.556C256.493 126.281 254.806 127.174 253.343 127.645C252.252 127.996 249.399 127.711 248.662 128.32C247.595 129.203 247.008 137.564 246.261 139.427C243.692 145.831 238.236 149.018 235.007 154.828C231.857 160.496 232.533 169.295 231.617 175.68C230.481 183.59 229.76 191.892 226.373 199.231C224.107 204.142 217.31 209.963 211.307 208.995C202.483 207.572 206.32 196.298 209.026 191.44C213.201 183.946 213.196 178.276 212.137 169.987C208.653 170.505 200.021 173.913 200.436 167.274C200.72 162.746 210.496 158.595 213.922 156.321C221.666 151.181 229.592 145.2 236.132 138.614C238.835 135.892 242.704 130.864 244.08 127.141C245.082 124.424 244.867 121.781 245.085 118.94C245.285 116.325 247.579 112.734 247.466 110.448C247.297 107.059 238.372 101.643 235.82 98.0534C232.184 92.9402 229.127 86.8936 226.856 81.0579Z" fill="black"/>
<path fill-rule="evenodd" clip-rule="evenodd" d="M405.628 92.4405C408.364 92.0826 418.877 89.1695 420.683 91.8965C423.977 96.8709 414.294 97.7973 411.859 98.2483C401.099 100.238 390.573 102.884 380.139 105.848C359.383 111.744 338.221 119.143 318.89 128.747C315.862 130.251 306.966 136.372 303.936 133.28C300.021 129.286 309.519 124.855 311.694 123.61C321.336 118.094 331.525 113.146 341.874 109.084C362.258 101.084 383.796 94.8474 405.628 92.4405Z" fill="black"/>
<path fill-rule="evenodd" clip-rule="evenodd" d="M146.198 355.028C161.638 352.725 178.413 356.124 193.398 360.812C198.199 362.313 203.203 364.057 207.598 366.506C209.965 367.823 215.595 370.168 216.934 372.633C219.17 376.743 216.668 378.495 213.071 377.82C209.651 377.176 205.45 375.21 201.88 374.312C185.536 370.198 169.29 367.112 152.735 365.466C148.776 365.071 145.899 365.531 142.082 366.226C139.229 366.746 131.695 369.847 129.551 368.029C121.799 361.459 142.508 355.436 146.198 355.028Z" fill="black"/>
<path fill-rule="evenodd" clip-rule="evenodd" d="M386.432 386.641C387.477 392.498 384.499 393.044 379.523 395.782C374.44 398.578 369.362 400.875 363.993 403.132C358.208 405.564 352.146 408.058 346.119 409.833C341.015 411.337 333.143 414.707 327.842 414.208C325.704 414.006 324.321 414.285 324.305 411.635C324.289 408.761 326.993 408.932 329.223 408.297C336.051 406.355 342.661 403.437 349.374 401.123C362.017 396.768 374.681 393.09 386.432 386.641Z" fill="black"/>
<path fill-rule="evenodd" clip-rule="evenodd" d="M3.43189 100.195C-0.527772 93.658 -0.448161 84.9444 0.647487 77.5586C1.01668 75.069 7.02334 56.6644 10.6526 60.49C12.8051 62.7593 5.47789 77.2133 4.71064 80.5164C3.78516 84.4988 3.30948 88.4381 3.9195 92.5085C4.08569 93.6089 6.55065 100.593 3.43189 100.195Z" fill="black"/>
<path fill-rule="evenodd" clip-rule="evenodd" d="M210.944 137.297C208.044 133.331 211.926 124.458 213.101 120.242C213.825 117.644 216.036 107.886 219.543 109.969C222.947 111.991 219.136 121.137 218.454 123.662C217.444 127.409 215.974 137.203 210.944 137.297Z" fill="black"/>
<path fill-rule="evenodd" clip-rule="evenodd" d="M532.617 348.625C533.15 347.357 533.683 346.089 534.216 344.82C535.57 345.85 537.46 346.355 536.082 347.916C535.234 348.877 533.808 348.875 532.617 348.625Z" fill="black"/>
<path fill-rule="evenodd" clip-rule="evenodd" d="M483.695 101.219C481.321 101.583 479.736 101.602 477.383 101.547C479.488 101.437 481.591 101.328 483.695 101.219Z" fill="black"/>
<path fill-rule="evenodd" clip-rule="evenodd" d="M560.637 285.641C560.632 284.062 560.625 282.483 560.621 280.906C560.626 282.486 560.632 284.063 560.637 285.641Z" fill="black"/>
<path fill-rule="evenodd" clip-rule="evenodd" d="M178.73 167.281C178.725 165.702 178.72 164.123 178.715 162.547C178.721 164.126 178.725 165.704 178.73 167.281Z" fill="black"/>
<path fill-rule="evenodd" clip-rule="evenodd" d="M252.5 29.0014C250.922 28.9911 249.343 28.9824 247.766 28.9722C249.352 28.3307 250.926 28.6392 252.5 29.0014Z" fill="black"/>
<path fill-rule="evenodd" clip-rule="evenodd" d="M263.183 515.258C263.164 516.311 263.143 517.364 263.122 518.414C263.142 517.36 263.162 516.308 263.183 515.258Z" fill="black"/>
<path fill-rule="evenodd" clip-rule="evenodd" d="M63.9141 136.889C64.7064 136.898 65.4969 136.906 66.2812 136.916C65.4872 136.908 64.7011 136.898 63.9141 136.889Z" fill="black"/>
<path fill-rule="evenodd" clip-rule="evenodd" d="M509.36 415.836C509.347 414.782 509.334 413.728 509.32 412.68C509.332 413.735 509.346 414.785 509.36 415.836Z" fill="black"/>
<path fill-rule="evenodd" clip-rule="evenodd" d="M549.508 209.102C549.557 208.048 549.607 206.995 549.656 205.945C549.606 207 549.557 208.051 549.508 209.102Z" fill="black"/>
<path fill-rule="evenodd" clip-rule="evenodd" d="M477.863 49.7109C477.807 50.7639 477.75 51.8179 477.691 52.8672C477.748 51.8133 477.806 50.763 477.863 49.7109Z" fill="black"/>
<path fill-rule="evenodd" clip-rule="evenodd" d="M680.551 396.109C680.561 395.055 680.572 394.002 680.582 392.953C680.571 394.007 680.561 395.058 680.551 396.109Z" fill="black"/>
<path fill-rule="evenodd" clip-rule="evenodd" d="M366.564 32.3516C366.535 31.2976 366.506 30.2436 366.475 29.1953C366.504 30.2504 366.534 31.301 366.564 32.3516Z" fill="black"/>
<path fill-rule="evenodd" clip-rule="evenodd" d="M36.6243 100.211C36.6693 99.1574 36.7135 98.1038 36.7585 97.0547C36.7127 98.1094 36.6693 99.1607 36.6243 100.211Z" fill="black"/>
<path fill-rule="evenodd" clip-rule="evenodd" d="M321.148 88.7747C321.94 88.7715 322.731 88.7676 323.516 88.7644C322.72 88.7676 321.935 88.7715 321.148 88.7747Z" fill="black"/>
<path fill-rule="evenodd" clip-rule="evenodd" d="M586.746 35.5078C586.694 34.4539 586.642 33.4022 586.59 32.3516C586.642 33.4054 586.694 34.4561 586.746 35.5078Z" fill="black"/>
<path fill-rule="evenodd" clip-rule="evenodd" d="M66.6746 198.844C66.6762 199.898 66.677 200.951 66.677 202C66.6754 200.945 66.6754 199.894 66.6746 198.844Z" fill="black"/>
<path fill-rule="evenodd" clip-rule="evenodd" d="M685.397 381.906C685.332 380.853 685.268 379.801 685.205 378.75C685.268 379.804 685.333 380.855 685.397 381.906Z" fill="black"/>
<path fill-rule="evenodd" clip-rule="evenodd" d="M292.742 373.659C293.534 373.633 294.326 373.609 295.109 373.584C294.315 373.61 293.529 373.635 292.742 373.659Z" fill="black"/>
<path fill-rule="evenodd" clip-rule="evenodd" d="M549.675 230.406C549.612 229.353 549.551 228.3 549.489 227.25C549.551 228.303 549.612 229.355 549.675 230.406Z" fill="black"/>
<path fill-rule="evenodd" clip-rule="evenodd" d="M171.227 354.673C170.174 354.68 169.122 354.688 168.07 354.694C169.123 354.688 170.174 354.68 171.227 354.673Z" fill="black"/>
<path fill-rule="evenodd" clip-rule="evenodd" d="M145.977 354.535C144.924 354.634 143.872 354.733 142.82 354.832C143.873 354.733 144.925 354.634 145.977 354.535Z" fill="black"/>
<path fill-rule="evenodd" clip-rule="evenodd" d="M548.828 223.305C548.804 222.515 548.781 221.725 548.758 220.938C548.782 221.727 548.805 222.516 548.828 223.305Z" fill="black"/>
<path fill-rule="evenodd" clip-rule="evenodd" d="M584.367 69.4375C584.322 68.6472 584.279 67.8579 584.234 67.0703C584.279 67.8606 584.323 68.649 584.367 69.4375Z" fill="black"/>
<path fill-rule="evenodd" clip-rule="evenodd" d="M342.838 76.5391C342.845 75.7494 342.851 74.9606 342.857 74.1719C342.852 74.9626 342.845 75.7503 342.838 76.5391Z" fill="black"/>
<path fill-rule="evenodd" clip-rule="evenodd" d="M233.048 293.706C233.482 293.73 233.916 293.756 234.352 293.781C233.379 294.62 232.24 293.757 233.048 293.706Z" fill="black"/>
<path fill-rule="evenodd" clip-rule="evenodd" d="M280.906 372.846C281.435 372.836 281.962 372.827 282.484 372.818C281.954 372.828 281.431 372.836 280.906 372.846Z" fill="black"/>
<path fill-rule="evenodd" clip-rule="evenodd" d="M684.6 375.594C684.541 374.804 684.482 374.015 684.423 373.227C684.483 374.017 684.541 374.805 684.6 375.594Z" fill="black"/>
<path fill-rule="evenodd" clip-rule="evenodd" d="M69.1432 220.148C69.0761 220.938 69.009 221.728 68.9428 222.516C69.0098 221.725 69.0769 220.936 69.1432 220.148Z" fill="black"/>
<path fill-rule="evenodd" clip-rule="evenodd" d="M430.828 118.545C429.884 119.248 428.744 118.855 427.672 118.831C428.724 118.736 429.777 118.641 430.828 118.545Z" fill="black"/>
<path fill-rule="evenodd" clip-rule="evenodd" d="M679.759 406.367C679.771 405.577 679.784 404.787 679.796 404C679.783 404.792 679.771 405.579 679.759 406.367Z" fill="black"/>
<path fill-rule="evenodd" clip-rule="evenodd" d="M501.357 435.562C501.418 434.772 501.48 433.982 501.542 433.195C501.48 433.987 501.418 434.775 501.357 435.562Z" fill="black"/>
<path fill-rule="evenodd" clip-rule="evenodd" d="M55.2344 136.067C55.7631 136.098 56.2909 136.128 56.8125 136.159C56.2829 136.129 55.7586 136.098 55.2344 136.067Z" fill="black"/>
<path fill-rule="evenodd" clip-rule="evenodd" d="M405.578 92.587C404.526 92.6723 403.474 92.7575 402.422 92.8427C403.474 92.7575 404.526 92.6723 405.578 92.587Z" fill="black"/>
<path fill-rule="evenodd" clip-rule="evenodd" d="M329.539 511.312C329.468 512.102 329.398 512.892 329.328 513.68C329.398 512.887 329.468 512.1 329.539 511.312Z" fill="black"/>
<path fill-rule="evenodd" clip-rule="evenodd" d="M174.383 212.534C173.331 212.612 172.279 212.691 171.227 212.771C172.279 212.691 173.331 212.612 174.383 212.534Z" fill="black"/>
<path fill-rule="evenodd" clip-rule="evenodd" d="M306.945 480.27C309.049 480.187 311.153 480.102 313.258 480.02C311.154 480.102 309.049 480.186 306.945 480.27Z" fill="black"/>
<path fill-rule="evenodd" clip-rule="evenodd" d="M499.004 406.367C499.056 405.051 499.109 403.735 499.16 402.422C499.108 403.738 499.056 405.053 499.004 406.367Z" fill="black"/>
<path fill-rule="evenodd" clip-rule="evenodd" d="M541.297 50.2487C542.612 50.1532 543.926 50.0578 545.242 49.9623C543.927 50.0578 542.612 50.1532 541.297 50.2487Z" fill="black"/>
<path fill-rule="evenodd" clip-rule="evenodd" d="M165.703 318.26C167.019 318.344 168.334 318.429 169.648 318.513C168.333 318.429 167.018 318.344 165.703 318.26Z" fill="black"/>
<path fill-rule="evenodd" clip-rule="evenodd" d="M259.246 288.008C258.691 286.824 258.721 285.773 259.336 284.852C259.666 285.926 259.636 286.978 259.246 288.008Z" fill="black"/>
<path fill-rule="evenodd" clip-rule="evenodd" d="M637.15 362.969C637.162 364.023 637.173 365.077 637.186 366.125C637.175 365.069 637.163 364.019 637.15 362.969Z" fill="black"/>
<path fill-rule="evenodd" clip-rule="evenodd" d="M320.772 466.336C320.759 465.282 320.748 464.228 320.736 463.18C320.748 464.237 320.76 465.287 320.772 466.336Z" fill="black"/>
<path fill-rule="evenodd" clip-rule="evenodd" d="M283.273 360.864C284.326 360.952 285.378 361.04 286.43 361.129C285.377 361.04 284.326 360.951 283.273 360.864Z" fill="black"/>
<path fill-rule="evenodd" clip-rule="evenodd" d="M263.598 291.889C263.434 290.62 263.664 290.15 264.285 290.474C264.448 291.666 264.219 292.138 263.598 291.889Z" fill="black"/>
<path fill-rule="evenodd" clip-rule="evenodd" d="M302.621 238.297C302.611 239.087 302.6 239.877 302.59 240.664C302.601 239.873 302.611 239.085 302.621 238.297Z" fill="black"/>
<path fill-rule="evenodd" clip-rule="evenodd" d="M664.795 388.219C664.789 387.429 664.782 386.639 664.775 385.852C664.781 386.641 664.788 387.43 664.795 388.219Z" fill="black"/>
<path fill-rule="evenodd" clip-rule="evenodd" d="M551.555 50.1082C552.607 50.1067 553.659 50.1051 554.711 50.1027C553.658 50.1043 552.607 50.1067 551.555 50.1082Z" fill="black"/>
<path fill-rule="evenodd" clip-rule="evenodd" d="M525.516 146.498L528.672 146.244L525.516 146.498Z" fill="black"/>
<path fill-rule="evenodd" clip-rule="evenodd" d="M475.805 278.946C475.277 278.938 474.748 278.929 474.227 278.921C474.757 278.93 475.28 278.938 475.805 278.946Z" fill="black"/>
<path fill-rule="evenodd" clip-rule="evenodd" d="M494.275 429.25C494.324 428.461 494.372 427.67 494.42 426.883C494.371 427.674 494.324 428.462 494.275 429.25Z" fill="black"/>
<path fill-rule="evenodd" clip-rule="evenodd" d="M372.438 441.45C371.909 441.47 371.381 441.491 370.859 441.51C371.39 441.49 371.914 441.469 372.438 441.45Z" fill="black"/>
<path fill-rule="evenodd" clip-rule="evenodd" d="M302.597 241.453C302.603 242.243 302.608 243.035 302.614 243.82C302.61 243.028 302.604 242.24 302.597 241.453Z" fill="black"/>
<path fill-rule="evenodd" clip-rule="evenodd" d="M254.867 39.0578C254.076 39.0586 253.284 39.0594 252.5 39.0594C253.295 39.0594 254.081 39.0586 254.867 39.0578Z" fill="black"/>
<path fill-rule="evenodd" clip-rule="evenodd" d="M258.619 101.789C259.735 102.514 259.9 103.304 259.114 104.156C257.848 104.057 257.686 103.268 258.619 101.789Z" fill="black"/>
<path fill-rule="evenodd" clip-rule="evenodd" d="M317.992 69.0193C319.044 69.0351 320.097 69.0509 321.148 69.0666C320.096 69.0509 319.043 69.0351 317.992 69.0193Z" fill="black"/>
<path fill-rule="evenodd" clip-rule="evenodd" d="M295.507 82.0625C295.505 82.8525 295.503 83.6426 295.5 84.4297C295.503 83.6377 295.505 82.8506 295.507 82.0625Z" fill="black"/>
<path fill-rule="evenodd" clip-rule="evenodd" d="M276.172 83.385L279.328 83.1072L276.172 83.385Z" fill="black"/>
<path fill-rule="evenodd" clip-rule="evenodd" d="M418.864 228.359C411.133 229.209 401.302 228.47 394.318 224.707C389.476 222.098 387.232 213.546 394.263 212.344C398.211 211.669 402.948 215.146 406.438 216.49C410.593 218.087 414.928 218.839 419.206 219.959C422.109 220.72 426.327 222.639 423.676 226.79C423.198 227.538 418.919 229.797 418.864 228.359Z" fill="black"/>
<path fill-rule="evenodd" clip-rule="evenodd" d="M527.883 266.394C527.125 271.357 527.012 276.84 524.63 281.376C521.197 287.916 520.52 280.91 521.062 277.317C521.859 272.019 522.291 266.595 521.894 261.24C521.568 256.853 518.616 251.715 520.777 247.766C526.677 251.588 526.797 260.132 527.883 266.394Z" fill="black"/>
<path fill-rule="evenodd" clip-rule="evenodd" d="M528.152 112.028C524.888 111.281 519.55 109.123 524.149 106.08C526.019 104.843 529.701 105.436 531.788 104.277C533.052 103.576 533.769 102.074 535.035 101.529C539.234 99.723 539.664 102.807 538.085 106.729C536.413 110.878 532.398 112.229 528.152 112.028Z" fill="black"/>
<path fill-rule="evenodd" clip-rule="evenodd" d="M526.263 85.9126C531.626 81.9035 530.897 86.9121 528.062 90.4396C527.009 91.6289 525.953 92.8172 524.896 94.0045L525.823 95.1388C525.663 96.7526 527.172 97.9461 525.322 99.0026C522.271 100.748 519.978 96.6229 519.992 94.3387C520.014 90.5486 523.747 88.172 526.263 85.9126Z" fill="black"/>
<path fill-rule="evenodd" clip-rule="evenodd" d="M525.573 86.2347C520.567 91.1427 520.754 81.2615 523.415 79.1314C528.522 75.0418 525.232 84.5282 525.573 86.2347Z" fill="black"/>
<path fill-rule="evenodd" clip-rule="evenodd" d="M535.144 89.9477C534.787 88.2067 534.741 79.962 538.208 80.5105C541.978 81.1068 537.827 90.2069 535.144 89.9477Z" fill="black"/>
<path fill-rule="evenodd" clip-rule="evenodd" d="M528.672 112.408C529.2 112.43 529.729 112.453 530.25 112.475C529.72 112.453 529.196 112.43 528.672 112.408Z" fill="black"/>
<path fill-rule="evenodd" clip-rule="evenodd" d="M288.274 50.5C284.004 43.2256 293.749 30.8047 298.629 40.8578C299.291 42.2194 300.789 45.889 298.987 47.0179C297.051 48.2296 297.466 46.4687 295.873 46.2035C293.975 45.887 294.595 45.0012 292.389 45.9635C290.823 46.6469 289.357 49.2453 288.274 50.5Z" fill="black"/>
</g>
<defs>
<clipPath id="clip0">
<rect width="808" height="606" fill="white"/>
</clipPath>
</defs>
</svg>
