<svg width="482" height="362" viewBox="0 0 482 362" fill="none" xmlns="http://www.w3.org/2000/svg">
<path d="M482 0H0V362H482V0Z" fill="white"/>
<path fill-rule="evenodd" clip-rule="evenodd" d="M415.648 322.959C418.061 324.202 420.317 324.201 422.69 325.169C425.046 326.129 425.661 330.112 427.675 330.587C418.336 331.571 409.137 333.656 399.685 332.619C400.503 329.279 399.033 325.861 401.002 322.727C406.267 317.74 409.689 319.888 415.648 322.959ZM376.21 93.4043C376.331 95.7526 376.505 96.6859 378.169 98.2008C379.474 99.3877 380.208 97.6182 380.331 99.9363C380.403 101.274 379.015 101.945 378.478 103.026C375.801 108.41 377.649 115.365 378.964 120.729C381.632 131.606 388.149 143.431 383.557 154.487C383.094 155.601 382.723 158.018 381.828 158.872C380.649 158.248 379.788 158.52 379.245 159.689C378.919 160.056 378.594 160.423 378.268 160.789C376.204 162.7 374.008 163.41 371.269 162.395C365.747 160.347 364.833 153.925 364.805 148.869C364.772 143.296 365.958 137.459 367.225 132.03C367.835 129.416 368.775 126.382 367.026 123.916C365.373 121.586 363.332 122.899 361.706 121.859C359.974 120.753 362.468 112.619 360.762 110.462C357.783 106.696 356.745 115.909 356.697 117.79C356.646 119.852 356.757 122.256 357.727 124.125C358.489 125.593 360.97 126.881 361.395 128.363C361.794 129.748 360.048 133.345 359.778 134.831C359.363 137.121 359.218 139.46 359.099 141.781C358.697 149.622 359.925 157.873 365.315 163.958C367.678 166.626 371.683 169.656 375.43 169.17C378.737 168.741 382.061 166.953 385.145 165.737C387.22 173.717 390.336 181.446 393.656 188.982C396.541 195.533 399.254 202.242 402.285 208.713C408.673 222.351 419.043 233.97 427.145 246.58C434.967 258.755 439.354 272.726 440.406 287.099C440.654 290.497 439.663 295.148 440.454 298.326C441.195 301.305 441.846 302.599 441.36 305.848C440.821 309.459 439.776 312.789 440.225 316.462C440.623 319.722 442.174 324.578 440.479 327.598C438.443 325.425 436.41 324.402 435.175 321.503C433.921 318.562 434.415 316.145 431.572 314.853C429.143 313.748 427.401 313.989 425.258 312.181C422.654 309.985 420.88 307.301 419.597 304.157C417.408 298.792 417.091 292.976 418.942 287.466C420.426 283.049 424.761 274.779 430.838 277.74C429.936 275.883 429.335 273.865 427.613 272.658C426.113 271.608 423.871 271.266 422.196 270.071C420.323 268.735 418.204 267.31 416.114 266.333C415.302 265.954 414.535 265.764 413.696 265.505C412.691 265.194 410.784 265.417 410.66 265.398C407.07 264.855 403.067 263.124 400.875 260.517C399.225 258.554 397.767 256.722 396.508 254.476C394.872 251.561 394.243 251.737 391.106 251.045C386.547 250.04 383.654 249.354 380.007 245.967C375.962 242.21 373.002 237.528 370.042 232.919C368.308 230.218 366.784 230.053 363.958 228.975C362.315 228.348 360.039 225.542 358.543 225.333C358.112 225.273 356.044 226.216 355.344 226.329C354.094 226.531 353.009 226.495 351.756 226.363C348.882 226.061 346.341 225.299 344.409 223.047C338.458 216.112 336.644 199.764 344.791 193.864C346.344 192.74 348.506 192.223 349.422 190.356C350.473 188.213 349.995 184.178 349.91 181.919C349.815 179.341 349.694 176.536 349.309 173.995C349.132 172.827 349 172.335 348.525 171.166C347.58 168.847 347.304 169.184 345.359 168.627C342.585 167.832 341.331 168.145 339.63 165.508C338.274 163.405 337.639 160.755 337.516 158.268C337.401 155.948 338.446 153.804 337.573 151.703C336.296 148.628 333.927 146.3 332.888 142.935C332.013 140.1 329.752 133.774 331.981 131.159C332.979 129.988 334.752 129.816 335.742 128.248C337.467 125.517 338.163 124.024 340.723 121.872C342.612 120.284 344.425 117.918 346.702 116.947C348.94 115.992 351.053 117.529 352.871 117.107C354.852 116.647 354.331 112.046 354.88 109.974C355.622 107.181 357.212 104.268 359.137 102.088C359.78 101.36 360.582 101.22 361.082 100.252C361.761 98.9408 361.492 97.0728 362.02 95.6395C362.651 93.9266 364.183 90.9778 365.896 90.0388C370.9 87.2955 372.403 94.3644 376.21 93.4043ZM364.5 296.263C365.206 298.167 364.815 301.229 365.628 302.869C366.275 304.175 368.874 305.003 370.148 306.561C372.877 309.897 373.916 315.255 372.926 319.374C369.587 318.548 367.354 318.02 363.96 318.455C363.617 310.991 363.937 303.725 364.5 296.263ZM323.235 301.889C325.507 304.426 326.634 307.415 326.306 310.806C326.189 312.013 325.82 313.705 325.465 314.865C325.075 316.137 323.136 318.52 323.888 319.202C321.769 319.075 319.279 319.322 317.752 317.95C316.382 316.718 315.423 313.543 314.866 311.861C315.936 309.723 317.007 307.584 318.077 305.446C318.774 306.553 320.819 309.443 322.509 308.518C323.781 307.822 322.754 303.296 323.235 301.889ZM402.964 282.116C405.564 284.535 406.452 288.897 406.32 292.282C406.363 296.948 404.749 306.287 398.692 306.6C393.824 306.852 388.632 299.87 388.084 295.555C387.484 290.825 389.047 279.512 395.24 278.539C397.52 278.18 401.321 280.587 402.964 282.116ZM359.451 288.149C359.555 291.208 359.606 294.151 359.364 297.199C359.162 299.747 359.835 302.757 359.266 305.197C355.664 301.162 350.92 296.769 351.064 290.838C351.2 285.232 355.838 285.709 359.451 288.149ZM323.155 220.743L326.169 224.052C326.255 228.701 326.164 233.298 327.577 237.78C329.064 242.497 331.557 247.043 334.024 251.308C338.821 259.597 339.965 267.415 340.543 276.895C331.522 272.848 326.603 259.019 323.626 250.369C322.051 245.79 320.416 241.207 318.93 236.599C317.464 232.054 314.873 226.117 316.579 221.33C319.856 223.742 321.273 224.985 323.155 220.743ZM379.365 253.373C383.77 256.881 384.103 262.248 385.684 267.154C384.772 267.883 383.771 268.525 382.948 269.356C382.439 269.87 381.24 271.972 380.85 272.188C379.289 273.052 377.926 271.943 376.401 270.55C373.4 267.805 371.527 261.98 371.668 257.952C371.832 253.247 375.154 250.018 379.365 253.373ZM440.993 232.76C446.718 236.044 445.225 245.131 444.511 250.257C444.063 253.469 445.056 256.738 444.987 259.794C444.909 263.243 443.122 262.529 441.979 264.67C440.986 262.073 439.165 258.947 438.751 256.225L438.093 254.503C438.65 254.279 438.947 253.889 438.981 253.335C439.215 252.015 439.212 250.67 439.285 249.325C439.588 243.766 440.008 238.242 440.993 232.76ZM353.765 238.896C353.132 241.316 352.668 245.869 349.108 244.466C346.299 243.358 345.62 238.887 345.614 236.395C345.609 234.349 345.946 230.591 348.803 230.468C352.311 230.317 353.563 236.534 353.765 238.896ZM326.667 171.538C324.299 175.336 322.655 180.947 323.774 185.444C324.948 190.166 328.601 191.309 331.851 187.835C334.532 192.062 329.035 199.591 324.12 195.571C323.057 194.703 322.344 193.041 321.031 192.499C319.954 192.056 318.999 192.658 317.9 192.408C314.517 191.638 313.24 188.312 311.911 185.519C312.276 183.243 312.662 180.987 313.154 178.733C313.416 177.535 313.689 176.339 313.954 175.141C314.404 173.106 314.264 173.36 315.737 172.352C319.623 169.693 322.295 169.562 326.667 171.538ZM328.673 173.588L331.515 179.917C329.966 179.544 328.279 184.197 327.268 185.104C326.795 181.232 327.928 177.354 328.673 173.588ZM327.098 151.97C329.668 153.054 330.179 157.753 330.27 160.025C329.563 162.418 328.903 165.479 325.917 163.794C323.924 162.669 323.069 158.964 323.002 156.941C322.916 154.404 323.868 150.607 327.098 151.97Z" fill="#7ED321"/>
<path fill-rule="evenodd" clip-rule="evenodd" d="M307.846 97.0064C306.788 97.483 308.808 101.044 309.122 101.697C309.943 103.403 310.943 106.927 312.886 105.956C311.206 102.973 309.526 99.9896 307.846 97.0064ZM59.2995 303.622C57.8836 302.993 55.9899 308.402 55.7376 309.501C55.0339 312.562 55.6228 314.619 58.07 316.598C57.057 312.223 58.2705 307.865 59.2995 303.622ZM386.138 72.0048C384.377 69.716 381.834 65.4662 378.276 67.716C376.871 68.605 375.79 71.4543 374.923 72.8462C373.562 75.0314 372.245 77.1351 371.21 79.4876C372.969 78.7636 374.006 77.1893 375.579 76.3286C376.653 75.7408 377.633 75.6842 378.668 75.2558C380.957 74.3093 384.092 73.3812 386.138 72.0048ZM99.0485 297.524C100.001 301.258 100.882 304.982 101.619 308.764C102.118 311.323 103.793 314.939 102.919 317.443C105.184 317.138 107.448 316.834 109.713 316.529C108.033 312.7 107.149 308.615 106.65 304.48C106.344 301.948 106.736 301.227 104.832 299.818C103.357 298.728 100.76 298.203 99.0485 297.524ZM86.523 154.6C90.877 158.964 94.685 163.939 99.312 168.005C101.716 170.118 104.181 172.172 106.648 174.21C108.741 175.938 112.068 179.747 114.791 180.276C115.128 178.884 115.924 176.604 115.71 175.176C116.505 174.353 116.258 173.752 114.97 173.372C114.182 172.765 113.403 172.149 112.632 171.521C109.605 168.991 106.741 166.243 103.873 163.537C101.022 160.848 98.3848 158.034 95.9098 154.995C94.606 153.395 93.8434 151.79 91.705 151.32C89.1646 150.761 88.3192 152.745 86.523 154.6ZM173.542 316.646C173.419 319.017 179.243 320.47 181.012 320.613C185.796 320.997 188.902 318.896 190.548 314.754C193.975 306.133 199.461 298.537 201.756 289.471C202.437 286.781 203.026 285.557 200.6 284.186C199.605 283.624 197.013 282.37 195.93 283.086C194.9 283.767 194.056 286.832 193.394 287.945C192.342 289.715 191.146 291.398 190.004 293.11C184.661 301.118 179.278 308.917 173.542 316.646ZM104.423 197.912L126.784 210.715C127.716 207.491 128.145 204.131 129.019 200.882C129.641 198.572 131.242 195.311 131.141 193.283C130.99 190.257 128.649 186.239 127.629 183.354C126.357 179.759 125.085 176.163 123.813 172.567C122.091 174.217 120.108 175.369 120.087 177.517C120.075 178.746 120.892 179.512 120.418 180.904C120.086 181.88 118.671 183.176 117.987 183.901C115.991 186.023 116.054 186.129 113.956 184.145C110.778 188.734 107.601 193.323 104.423 197.912ZM129.023 257.942C129.343 254.857 129.754 251.9 130.447 248.873C130.873 247.014 132.672 243.195 132.081 241.444C131.646 240.157 129.06 239.037 128.054 238.337C125.141 236.31 122.296 234.178 119.413 232.111C116.884 230.297 114.318 228.527 111.837 226.649C109.539 224.91 107.804 222.746 105.024 222.001C102.59 221.348 99.5032 221.774 96.983 221.69C93.601 221.577 90.1668 221.54 86.788 221.706C75.4493 222.261 62.7469 221.467 51.8383 224.634C46.6827 226.131 43.3591 227.012 40.477 231.902C37.1439 237.558 34.2962 243.434 31.8716 249.544C31.5176 250.436 30.7174 251.723 30.7472 252.698C30.8064 254.559 31.4715 254.13 33.254 255.191C35.1802 256.338 37.0681 257.7 38.9081 258.991C42.0632 261.205 45.9804 263.517 49.2537 265.244C53.1921 267.322 57.1596 269.185 61.1658 271.278C63.7043 272.604 66.3318 273.688 68.8218 275.145C71.525 276.727 74.5516 277.178 77.4658 278.413C86.4892 282.239 95.2221 285.775 104.077 290.14C112.72 294.4 121.462 298 130.305 301.758C141.735 306.614 153.051 311.106 164.97 314.465C165.843 314.711 167.678 315.578 168.54 315.538C170.383 315.454 170.8 314.105 171.907 312.585C174.083 309.599 176.178 306.555 178.259 303.503C182.773 296.881 187.187 290.185 192.046 283.809C178.276 279.961 165.507 272.862 153.402 265.576C152.887 267.027 152.477 270.24 150.824 270.725C148.782 271.325 147.297 268.491 146.382 267.188C145.515 269.349 144.033 276.637 141.259 276.477C137.427 276.257 138.104 270.217 137.626 267.82C135.514 270.632 133.066 273.865 130.195 269.541C128.205 266.544 128.426 261.284 129.023 257.942ZM288.572 223.499C286.797 222.943 285.033 222.449 283.296 221.827C282.839 220.857 282.081 220.562 281.021 220.944C280.153 221.022 279.309 220.915 278.488 220.621C274.861 220 270.842 219.194 267.376 218.147C264.289 217.214 261.378 216.39 258.242 215.689C256.38 215.273 248.084 212.923 246.858 214.306C246.481 214.732 247.129 219.891 247.038 220.811C246.876 222.446 246.795 225.138 245.761 226.499C245.364 227.021 243.853 227.6 243.307 228.007C241.533 229.328 239.894 230.97 238.129 232.34C234.276 235.33 230.523 238.434 226.591 241.327C223.813 243.371 220.632 244.383 217.546 245.868C219.741 246.262 224.038 244.145 226.255 243.489C229.126 242.639 231.943 241.694 234.879 240.915C240.9 239.319 247.068 237.517 253.186 235.817C256.944 234.773 260.913 233.686 264.556 232.304C266.172 231.691 267.441 230.265 268.508 231.716C269.36 232.874 268.329 234.398 267.675 235.256C263.855 240.262 253.481 241.48 247.929 243.557C241.663 245.9 235.481 248.368 229.029 250.014C221.494 251.937 213.315 253.408 206.293 256.785C200.468 259.585 193.869 260.671 187.675 262.315C181.859 263.859 174.961 264.168 169.464 266.789C171.838 268.667 175.352 269.646 178.12 270.909C181.508 272.454 184.931 273.864 188.282 275.502C189.708 276.199 191.201 277.235 192.644 277.815C194.476 278.55 194.241 278.162 196.133 278.013C199.079 277.781 203.052 277.251 205.445 279.398C208.331 281.988 206.502 284.826 206.926 287.995C207.216 290.167 207.364 289.819 209.773 290.151C211.991 290.456 214.206 290.812 216.393 291.286C219.094 291.873 221.858 292.856 224.488 293.703C228.567 295.018 229.01 296.565 233.261 294.868C245.369 290.036 257.892 286.064 270.077 281.491C275.69 279.385 281.327 275.323 286.61 272.271C293.388 268.354 299.517 264.118 304.106 257.599C306.198 254.627 308.379 249.608 307.939 245.919C307.546 242.62 305.109 238.952 303.538 236.115C301.531 232.493 299.765 231.088 296.695 228.682C294.561 227.009 291.263 223.477 288.572 223.499ZM153.729 251.535C153.916 253.356 152.854 260.863 153.907 262.018C155.707 263.993 160.123 261.688 161.832 261.1C167.382 259.189 173.834 259.607 179.486 258.094C184.969 256.626 190.332 254.724 195.846 253.229C198.804 252.426 201.611 251.169 204.521 250.213C207.76 249.15 211.375 248.567 214.379 246.966C214.007 246.041 201.011 248.267 199.534 248.387C194.403 248.804 189.574 248.012 184.517 247.081C173.364 245.027 162.856 240.156 151.847 236.996C152.363 242.08 166.651 243.092 164.949 248.992C164.474 250.637 158.082 253.325 155.968 252.293C151.674 250.196 156.927 247.245 159.068 246.509C155.809 244.638 152.691 242.609 149.716 240.303C146.532 237.835 145.162 234.373 143.455 230.8C139.888 223.33 131.445 218.984 124.887 214.334C117.796 209.306 110.246 205.031 103.159 200.014C101.894 199.118 101.303 199.529 100.859 197.894C100.383 196.143 102.13 193.918 102.978 192.582C105.206 189.071 107.802 185.747 110.745 182.808C106.949 180.221 102.848 178.085 99.2885 175.156C95.6801 172.188 92.694 168.564 89.5106 165.166C84.4251 176.247 77.2977 186.524 71.7006 197.391C69.4897 201.683 68.3209 208.175 71.6832 212.335C75.2215 216.712 81.8193 215.008 86.8139 215.24C92.0853 215.485 96.894 216.083 102.093 217.58C104.446 218.258 106.587 218.058 108.848 219.146C111.499 220.421 114.107 222.06 116.629 223.572C121.59 226.545 126.224 230.267 130.909 233.66C132.83 235.051 143.249 243.301 135.008 242.027C135.008 249.746 133.658 257.652 132.949 265.334C134.903 262.997 136.297 260.622 137.479 257.814C138.183 256.144 138.192 251.881 140.535 252.891C144.061 254.411 141.315 265.579 141.315 268.6C142.188 266.909 142.8 265.089 143.429 263.298C143.906 261.941 144.501 258.093 145.495 257.183C148.823 254.137 149.289 262.444 149.289 264.178C150.367 261.115 150.565 257.847 150.674 254.611C150.716 253.335 150.401 251.349 150.723 250.114C151.259 248.055 151.195 248.189 153.348 247.319C153.475 248.724 153.602 250.13 153.729 251.535ZM256.533 316.679C256.797 319.291 257.806 321.182 256.091 323.531C259.406 323.293 262.669 323.001 265.989 323.086C268.655 323.154 272.642 323.764 275.129 322.621C276.143 322.155 276.487 322.957 277.008 322.067C277.503 321.221 276.341 318.415 276.201 317.718C275.531 314.378 275.204 310.95 274.595 307.589C274.177 305.278 272.948 300.734 274.493 298.55C276.764 295.338 277.765 299.864 278.356 301.873C280.305 308.493 280.193 314.781 280.193 321.583C283.129 321.583 286.986 320.299 289.817 319.524C293.722 318.456 297.893 317.357 301.677 315.962C305.246 314.647 308.388 312.727 310.645 309.637C312.333 307.325 316.075 301.622 315.145 299.066C314.006 295.933 308.571 293.778 305.669 293.434C301.903 292.987 298.044 293.744 294.191 294.062C290.066 294.403 286.064 295.323 281.983 295.765C278.02 296.195 272.7 297.519 268.85 296.526C268.75 298.112 270.074 300.244 270.535 301.859C271.14 303.977 271.68 306.113 272.171 308.259C272.697 310.556 275.951 318.815 272.992 320.466C269.517 322.405 267.859 314.105 267.426 312.082C266.395 307.258 265.508 302.439 266.588 297.589C262.154 296.789 256.806 297.978 252.232 298.293C253.936 304.303 255.035 310.597 256.533 316.679ZM65.533 319.292C67.075 319.979 69.1941 319.61 70.8703 319.742C73.4897 319.948 76.136 320.422 78.7729 320.338C82.7965 320.21 87.0145 319.7 91.0413 319.239C88.7443 315.091 87.3505 311.163 87.0639 306.408C86.9608 304.701 86.0556 294.108 89.2028 294.561C90.7212 294.78 90.3988 303.824 90.6935 305.491C91.1218 307.908 91.6744 310.382 92.3471 312.749C92.8352 314.465 94.4958 317.035 94.0703 318.891C96.1004 318.562 98.1311 318.232 100.162 317.903C98.5829 314.751 97.4297 311.926 96.8385 308.41C96.5528 306.713 96.7349 304.602 96.1809 302.99C95.8317 301.974 95.0352 301.019 94.9289 300.167C94.806 299.184 95.8811 296.77 95.4833 295.897C95.0927 295.038 92.3725 294.245 91.4193 293.771C88.7923 292.468 87.2526 292.138 84.3084 292.888C78.6294 294.333 69.6818 295.358 65.4464 299.256C61.2505 303.118 59.7236 316.145 65.533 319.292ZM313.555 131.037C315.127 130.86 316.683 130.75 318.263 130.668C315.955 127.415 313.858 124.015 311.943 120.514C311.005 118.799 310.119 117.057 309.271 115.296C308.297 113.276 308.324 111.956 306.209 111.555C303.279 110.999 299.362 112.11 296.348 111.983C294.02 111.885 288.793 109.691 286.917 110.487C288.627 113.996 287.255 119.457 287.322 123.235C287.389 126.992 286.923 130.624 286.262 134.329C290.257 134.329 295.257 132.948 299.29 132.331C303.985 131.612 308.772 131.575 313.555 131.037ZM250.139 323.908C251.677 323.711 253.14 323.65 254.694 323.65C251.194 317.968 248.551 311.615 248.522 304.845C248.518 303.96 249.581 298.871 249.23 298.449C248.543 297.625 245.699 298.275 244.919 298.353C241.732 298.672 238.189 298.648 235.189 299.798C233.118 300.591 233.095 300.112 232.272 302.552C231.785 303.995 231.435 305.644 231.425 307.162C231.405 310.229 232.382 313.813 233.645 316.574C234.847 319.203 236.746 322.022 239.358 323.434C242.368 325.062 246.609 324.093 250.139 323.908ZM281.959 112.846C281.353 110.582 281.615 111.093 279.603 110.812C279.179 110.753 274.57 110.849 274.305 111.12C274 111.432 274.117 116.04 274.077 116.568C273.94 118.375 273.738 120.178 273.541 121.98C272.744 129.296 271.229 136.377 270.094 143.632C272.899 141.889 276.954 144.266 279.35 142.379C281.243 140.888 280.96 136.117 281.101 134.012C281.573 126.966 281.735 119.903 281.959 112.846ZM383.251 104.303C382.999 104.709 382.746 105.115 382.494 105.52C383.474 106.149 389.208 99.7525 390.483 98.6081C392.181 97.0842 394.869 95.0494 395.635 92.8213C396.525 90.2321 395.649 86.1445 395.434 83.4672C395.28 81.5512 395.607 78.9012 394.047 77.5626C392.611 76.3309 389.075 76.3639 387.374 76.6274C382.272 77.4184 379.203 81.62 376.628 85.6237C379.243 85.3018 388.463 81.0869 389.533 83.3664C391.089 86.6781 381.406 89.6392 380.449 92.5451C382.431 93.246 386.803 90.5272 385.573 95.0508C385.363 95.6838 384.997 96.2079 384.475 96.6232C383.57 96.9442 383.356 97.5489 383.832 98.4379C383.427 100.21 383.51 102.451 383.251 104.303ZM441.979 264.67C442.006 265.744 442.104 266.77 442.981 267.529C444.925 261.364 445.532 255.197 446.337 248.786C447.143 242.373 448.001 235.802 448.128 229.395C448.272 222.215 447.594 214.404 446.434 207.31C445.527 201.764 444.825 194.94 441.523 190.22C443.398 202.452 442.815 214.049 441.551 226.324C440.88 232.842 439.932 239.31 439.498 245.856C439.383 247.585 439.346 249.334 439.196 251.06C439.107 252.077 438.102 254.003 438.093 254.502C438.044 257.273 441.006 262.125 441.979 264.67ZM342.21 255.143C343.769 258.736 345.542 262.275 346.478 266.097C347.465 270.132 347.04 273.889 347.198 277.978C347.46 284.761 346.917 291.504 347.012 298.297C347.093 304.087 346.871 309.732 346.929 315.46C346.966 319.084 346.768 322.694 346.78 326.316C346.78 326.305 346.924 329.567 346.675 329.732C345.558 330.475 344.337 329.42 343.995 328.405L340.684 332.156C342.42 331.719 344.554 330.807 346.338 330.726C347.021 330.475 347.701 330.468 348.379 330.705C349.052 331.112 349.55 331.68 349.874 332.409C354.549 333.406 357.354 329.239 358.194 325.514C360.015 317.432 359.359 309.452 359.227 301.293C358.941 283.566 361.753 265.945 361.487 248.217C361.436 244.787 361.305 241.396 361.82 237.972C362.775 231.611 364.187 237.434 364.413 240.436C365.094 249.457 366.279 258.765 365.627 267.842C365.04 276.02 365.095 284.274 364.688 292.477C364.255 301.196 363.559 309.729 363.96 318.455C366.298 318.156 373.818 317.71 374.601 320.999C375.284 323.867 372.536 322.806 371.108 322.685C368.793 322.488 366.532 323.032 364.002 322.578C364.188 326.436 364.719 331.611 361.276 334.216C359.583 335.497 356.778 336.654 354.799 337.41C352.86 338.151 349.575 339.792 347.555 339.702C346.125 339.638 345.574 338.868 344.006 338.991C341.679 339.174 339.664 340.733 337.197 339.445C332.519 337.003 334.818 329.9 337.773 327.054C338.534 326.319 339.39 325.517 340.412 325.159C340.898 324.989 342.931 325.194 343.165 324.939C344.031 323.999 342.95 318.498 342.835 317.454C342.228 311.978 341.567 306.385 341.318 300.885C341.084 295.713 340.824 290.531 340.646 285.357C340.608 284.231 341.107 281.914 340.635 280.93C339.852 279.293 336.413 278.252 334.922 277.489C336.251 290.528 338.204 304.542 333.392 316.961C332.437 319.428 331.365 322.948 328.942 324.319C326.659 325.613 321.282 325.43 318.546 325.584C315.604 325.749 312.724 325.061 311.103 322.295C309.828 320.118 310.592 317.507 313.211 316.558C314.779 315.99 315.084 316.355 316.458 317.03C316.756 317.515 316.965 318.036 317.086 318.593H318.141C319.572 319.232 325.291 319.947 326.864 318.927C328.687 317.746 329.083 314.553 329.86 312.656C331.303 309.13 331.685 306.27 332.209 302.502C333.029 296.604 332.199 289.766 332.215 283.621C332.219 281.891 332.226 280.16 332.229 278.43C332.232 275.816 332.459 275.832 330.97 273.95C328.726 271.115 326.167 268.217 323.764 265.499C325.066 273.44 324.533 281.802 324.016 289.714C323.726 294.16 323.126 298.687 322.85 303.073C322.768 304.391 323.713 308.025 322.185 308.608C320.634 309.199 318.703 306.441 318.077 305.446C314.658 312.278 310.577 318.868 303.522 322.403C299.895 324.22 296.118 325.04 292.16 325.753C288.492 326.414 285.103 327.618 281.488 328.187C274.005 329.363 267.112 329.529 259.582 329.272C252.477 329.03 245.675 330.344 238.593 328.69C235.829 328.044 233.036 326.859 231.147 324.74C230.116 323.584 229.66 321.764 228.62 320.698C228.386 319.319 227.576 318.894 226.189 319.422C225.318 319.461 224.451 319.432 223.587 319.335C216.484 318.962 208.59 319.378 201.707 317.347C199.095 316.575 196.179 315.305 197.482 312.031C198.621 309.17 201.764 310.039 204.342 310.289C211.829 311.015 219.2 312.34 226.795 313.007C226.551 309.033 226.761 304.979 228.317 301.261C223.048 300.599 217.585 299.6 212.572 297.915C211.024 297.395 209.482 296.854 207.947 296.298C205.415 295.381 205.941 295.144 204.475 296.744C202.633 298.754 201.505 302.948 200.17 305.376C198.668 308.109 197.227 310.811 195.961 313.663C194.763 316.363 193.87 319.98 192.044 322.306C188.029 327.424 178.756 327.868 173.299 325.857C170.625 324.872 169.661 324.718 168.04 322.318C166.265 319.69 165.824 319.536 162.554 319.18C156.649 318.535 151.076 317.051 145.545 315.002C139.7 312.837 133.699 311.149 127.872 308.811C122.417 306.623 117.145 304.422 111.5 302.713C110.831 306.976 113.606 311.784 113.606 316.179C116.89 315.85 119.952 315.561 123.208 315.038C124.369 314.851 131.682 313.208 132.395 314.178C135.37 318.22 121.836 320.121 119.721 320.655C112.942 322.368 106.03 323.96 99.2085 325.284C92.2458 326.636 85.4583 327.981 78.3902 328.224C66.4301 328.635 49.9334 327.943 50.5044 312.207C50.7284 306.042 53.265 299.35 58.1189 295.329C61.139 292.827 64.9051 291.452 68.5973 290.32C69.9613 289.901 77.1476 288.923 77.366 288.385C75.341 286.932 71.8799 286.553 69.4775 285.433C67.187 284.365 64.77 283.967 62.4254 282.891C57.7405 280.74 53.2156 278.111 48.8837 275.451C45.4387 273.336 41.9555 271 38.7839 268.486C36.2637 266.488 33.8485 264.567 31.8339 262.283C30.7796 261.089 28.9132 260.03 28.0688 259.001C25.1033 255.388 28.2307 248.197 29.4936 243.989C31.3383 237.839 33.8001 231.296 37.4306 225.968C40.7693 221.069 44.4916 217.769 50.4804 216.621C56.0078 215.562 61.5659 215.226 67.219 214.929C66.2692 211.31 64.9319 208.756 65.2713 204.788C65.5913 201.044 67.4789 197.325 68.9602 193.915C71.7142 187.578 74.3125 181.375 78.0791 175.54C80.1493 172.334 82.4745 169.29 84.7344 166.217C85.0987 165.721 87.3637 163.455 87.2771 162.817C87.191 162.182 84.9165 160.251 84.5682 159.808C82.2293 156.835 80.6124 153.633 83.359 150.451C84.7909 148.792 89.0008 145.442 91.0272 147.55C93.2183 143.116 97.0508 140.093 100.035 136.322C103.755 131.618 107.306 126.844 110.789 121.917C114.256 117.013 117.088 111.743 121.684 107.791C126.806 103.386 131.627 103.767 137.918 105.65C138.277 103.22 138.776 103.543 141.123 102.732C142.9 102.118 144.626 101.389 146.373 100.696C148.229 99.958 150.108 99.5395 152.006 98.9597C154.534 98.1876 154.914 98.4398 155.325 95.1521C155.822 91.1795 154.124 86.9793 153.03 83.2372C152.489 81.3909 152.114 79.0926 150.898 77.8506C149.798 76.7273 147.848 76.2159 146.645 74.9739C136.279 64.2737 136.115 41.4272 147.157 31.4825C149.303 29.5495 151.073 26.949 153.744 25.6439C156.677 24.2105 160.546 23.0514 163.776 22.376C170.435 20.9845 177.903 21.4262 183.166 26.1133C185.762 28.4249 187.345 32.0991 188.23 35.3811C189.075 38.5161 188.894 43.815 185.689 38.97C183.669 35.9142 181.913 32.7976 178.492 31.286C175.436 29.9355 171.703 29.2064 168.373 29.4929C160.524 30.1679 154.164 32.4757 148.731 38.2927C142.724 44.7243 142.419 54.9927 143.713 63.1712C144.854 60.7522 145.627 56.922 148.826 56.4601C151.492 56.075 155.695 59.4838 154.264 62.4184C147.772 60.7612 145.873 70.5927 151.487 71.1847C153.187 71.3638 155.339 68.3339 156.904 69.0396C159.831 70.3584 155.909 74.9032 155.136 76.3998C154.725 76.6529 154.314 76.906 153.903 77.1596C154.308 78.1013 154.716 79.0417 155.129 79.9802C155.629 81.1769 156.106 82.3765 156.545 83.5973C157.615 86.5683 158.725 89.6316 159.37 92.7265C160.025 95.8733 160.365 99.548 158.816 102.504C157.113 105.754 155.51 105.354 154.202 102.263C150.778 104.424 147.335 106.729 143.31 107.581C147.531 114.672 152.995 120.768 161.21 122.999C168.174 124.889 176.939 124.82 183.583 121.693C190.477 118.447 194.271 110.862 193.45 103.316C193.184 100.872 191.763 92.3829 195.142 98.5237C196.996 101.892 197.132 107.355 196.709 111.048C194.688 128.713 176.806 135.322 161.386 131.069C153.476 128.887 147.776 123.047 143.532 116.173C142.542 114.57 141.636 112.915 140.752 111.252C140.398 110.587 140.087 109.659 139.616 109.076C137.767 106.791 139.583 108.064 137.621 107.778C134.584 107.336 129.805 109.665 127.55 111.51C121.431 116.517 118.042 124.525 113.346 130.835C108.346 137.551 101.996 143.53 95.6264 148.889C102.831 156.279 110.036 163.669 117.241 171.059C118.729 169.409 121.559 165.638 121.955 163.432C122.187 162.139 121.145 157.884 124.349 159.778C126.512 161.057 127.332 166.531 128.007 168.77C129.049 172.229 130.803 175.486 131.938 178.909C134.042 185.26 136.634 191.555 138.789 197.951C139.666 200.552 142.165 203.78 139.764 205.982C136.114 209.328 135.029 202.741 134.063 200.224C132.717 202.098 132.892 205.136 132.198 207.321C131.775 208.656 130.484 210.733 130.527 212.048C130.6 214.297 132.639 214.967 134.476 216.223C137.894 218.561 141.401 220.843 144.532 223.566C145.838 224.702 147.039 225.852 147.993 227.313C148.825 228.589 149.075 231.465 149.995 232.353C151.198 233.513 155.645 232.705 157.994 232.957C161.915 233.38 165.889 234.776 169.696 235.78C176.433 237.555 183.362 240.111 190.417 241.059C197.346 241.991 203.848 241.528 210.753 240.288C214.526 239.61 218.577 238.8 222.019 236.984C225.984 234.892 229.5 231.545 233.203 229.018C234.86 227.886 236.556 226.817 238.251 225.745C240.516 224.312 239.924 224.622 240.071 222.345C240.242 219.71 241.341 214.678 239.583 212.332C238.849 211.353 236.596 210.637 235.536 209.925C233.994 208.888 232.612 207.685 230.96 206.851C229.156 205.941 229.103 206.661 228.266 204.428C227.505 202.401 227.003 200.277 226.305 198.228C223.111 188.856 222.286 179.338 220.962 169.552C220.347 165.007 218.839 158.822 220.547 154.394C222.923 148.236 224.912 156.848 225.413 159.055C227.681 155.165 228.985 150.838 231.344 146.997C232.72 144.757 233.393 143.613 234.168 141.159C234.482 140.165 234.608 139.34 235.272 138.515C236.676 136.769 236.883 137.764 238.343 137.721C242.936 137.586 247.45 137.705 252.047 137.918C254.587 138.035 257.128 138.098 259.686 138.088C260.933 138.084 262.194 138.023 263.44 138.094C264.111 138.087 264.779 138.137 265.443 138.245C266.815 138.886 267.338 138.333 267.014 136.587C268.208 134.085 268.129 130.094 268.551 127.365C268.977 124.618 269.371 121.866 269.727 119.109C269.917 117.635 271.513 112.073 270.666 110.862C269.827 109.662 265.453 109.931 264.159 109.716C255.557 108.284 247.555 104.734 239.509 101.826C235.547 100.394 231.787 98.461 227.988 96.7048C226.01 95.7903 224.141 93.9073 222.056 93.3209C219.425 92.5809 215.933 93.764 213.31 94.2094C208.314 95.0583 203.495 95.8016 198.425 96.0779C196.634 96.1754 193.227 96.6784 191.611 95.4458C188.365 92.9702 192.061 91.5227 194.183 91.2102C203.567 89.8282 212.923 89.0339 222.379 88.457C222.822 88.4301 224.446 88.0997 224.986 88.2703C226.218 88.6597 225.721 89.1112 226.459 89.5128C227.826 90.2566 229.386 90.8043 231.121 91.2658C236.073 92.5828 241.06 94.7925 246.028 96.5289C254.969 99.6531 265.651 104.634 274.592 103.759C276.799 103.543 278.613 103.266 280.92 103.49C283.622 103.753 285.199 105.141 287.275 105.544C290.056 106.084 294.033 105.678 296.961 105.782C299.752 105.881 302.545 106.011 305.338 106.011C302.885 101.073 301.392 96.4366 300.014 91.1333C299.262 88.2411 298.131 85.6143 298.621 82.5684C298.853 81.1307 299.426 79.7798 300.052 78.4813C300.996 76.5209 301.264 76.931 301.6 74.7599C302.061 71.772 301.399 68.6215 301.762 65.6246C302.134 62.549 304.455 59.8076 304.713 56.8673C304.851 55.3029 303.977 54.026 304.239 52.3385C304.473 50.8293 305.365 49.2469 306.167 47.9762C308.034 45.0151 310.307 43.3361 313.462 42.13C315.997 41.1604 319.234 40.2709 321.796 41.841C324.411 43.4427 324.222 46.6663 325.475 49.0183C328.168 54.076 334.382 58.5958 339.336 61.1788C343.887 63.5516 348.789 65.0505 353.668 66.5979C356.638 67.5397 359.691 68.2114 362.61 69.2875C364.71 70.0624 368.136 71.9417 370.276 70.8001C372.14 69.805 374.315 66.7686 376.16 65.3588C378.319 63.7095 381.198 62.0998 383.917 63.5365C386.635 64.9727 386.412 70.267 388.526 71.2625C389.263 71.6094 391.451 70.5931 392.455 70.7534C394.077 71.0117 395.194 72.0171 396.167 73.2549C399.799 77.8803 400.924 85.2169 401.082 90.9189C401.162 93.7668 401.093 97.309 399.356 99.7271C397.33 102.548 393.495 102.617 390.895 104.602C388.815 106.19 387.341 108.785 385.23 110.477C383.929 111.519 383.428 110.719 382.889 112.343C382.538 113.4 383.247 115.462 383.456 116.484C384.749 122.792 387.171 128.61 389.469 134.619C390.551 137.45 391.469 140.282 391.964 143.283C392.288 145.251 391.914 146.973 392.071 148.867C392.182 150.216 392.754 151.38 392.628 152.763C392.361 155.692 390.773 158.279 389.763 160.855C388.612 163.791 390.193 168.877 391.353 171.914C394.132 179.189 398.04 186.54 401.513 193.531C404.924 200.398 407.461 207.711 411.434 214.308C415.294 220.715 419.835 226.988 424.226 233.047C426.668 236.418 429.26 239.624 431.474 243.159C431.957 243.932 435.261 250.343 436.118 250.121C435.067 238.934 436.129 227.298 436.599 216.118C437.186 202.123 435.408 189.446 431.475 176.087C430.556 172.964 429.736 169.768 429.089 166.576C428.637 164.342 427.358 162.505 430.496 163.482C435.693 165.1 440.266 174.923 442.908 179.198C448.824 188.775 453.766 201.546 454.429 212.778C455.08 223.803 454.519 234.352 453.143 245.214C452.464 250.573 451.367 256.547 449.69 261.672C448.828 264.308 447.792 267.039 446.644 269.565C446.159 270.631 445.095 271.836 444.911 273.007C444.62 274.866 445.98 277.373 446.32 279.209C447.432 285.214 447.687 291.438 447.309 297.533C447.106 300.802 446.655 303.725 445.59 306.799C444.232 310.716 444.863 313.707 445.428 317.744C446.032 322.065 446.611 331.885 442.125 334.34C441.808 334.308 441.491 334.275 441.173 334.242C440.372 333.317 439.66 333.372 439.039 334.407C437.878 334.786 436.745 335.762 435.523 336.182C432.687 337.158 429.627 337.217 426.669 337.645C420.88 338.485 415.11 339.965 409.422 340.145C402.687 340.357 395.662 340.092 389.076 338.91C387.715 338.665 386.124 338.019 384.763 337.895C382.915 337.727 381.619 338.957 379.711 338.668C376.755 338.22 374.888 335.087 374.694 332.52C374.078 324.34 378.61 320.589 386.016 319.136C381.231 312.276 375.721 306.647 374.448 297.836C373.194 289.167 375.913 279.134 380.85 272.188C385.589 265.521 393.676 261.064 402.015 262.755C405.886 263.541 424.146 268.939 420.616 275.063C419.833 272.262 415.019 272.804 412.693 272.399C408.835 271.728 404.977 270.716 401.062 270.924C393.362 271.334 385.92 275.895 382.192 282.799C377.893 290.759 379.855 298.702 385.03 305.498C389.761 311.712 394.639 318.24 401.002 322.727C399.772 324.686 400.217 325.3 397.774 324.949C396.096 324.709 394.527 323.399 392.831 323.073C389.316 322.397 383.782 325.281 381.61 328.166C380.326 329.87 380.374 330.713 382.74 331.762C384.487 332.537 387.236 332.137 389.112 332.305C393.778 332.722 398.534 332.861 403.215 332.845C411.319 332.815 418.855 331.513 426.874 330.67C430.428 330.297 434.145 330.727 437.623 329.417C442.333 327.644 441.179 322.434 440.569 318.213C439.964 314.033 440.579 310.791 441.236 306.651C441.52 304.852 442.051 302.777 441.675 300.967C441.228 298.816 440.428 297.865 440.53 295.466C440.893 286.931 439.824 277.943 437.565 269.706C432.659 251.815 420.678 237.694 410.687 222.488C407.865 218.193 404.898 214.123 402.651 209.472C400.523 205.065 399.058 200.405 396.944 195.986C392.286 186.246 387.868 176.213 385.146 165.737C382.061 166.953 378.737 168.741 375.43 169.17C371.683 169.656 367.678 166.626 365.315 163.958C359.926 157.873 358.697 149.622 359.1 141.781C359.219 139.46 359.363 137.121 359.778 134.831C360.048 133.345 361.794 129.748 361.396 128.363C360.97 126.881 358.489 125.593 357.728 124.125C356.757 122.256 356.645 119.852 356.697 117.79C356.745 115.909 357.783 106.696 360.762 110.461C362.468 112.619 359.974 120.752 361.706 121.86C363.264 122.855 365.41 121.638 367.026 123.916C368.771 126.376 367.836 129.41 367.225 132.03C365.96 137.45 364.772 143.302 364.805 148.869C364.833 153.937 365.738 160.345 371.269 162.395C374.063 163.43 376.184 162.718 378.268 160.789C378.745 160.239 379.233 159.697 379.729 159.164C380.185 158.379 380.885 158.282 381.828 158.872C382.526 158.316 383.561 154.48 383.91 153.622C388.193 143.111 381.44 131.042 378.964 120.729C377.45 114.421 376.13 108.094 379.195 102.006C379.691 101.02 381.058 100.164 380.238 98.7495C380.022 98.3776 377.958 98.2032 377.47 97.771C375.878 96.364 376.21 93.7409 376.21 91.8625C372.528 92.9994 371.467 90.1312 371.946 86.6159C369.2 87.0519 367.293 87.8928 366.276 84.7111C365.375 81.8896 366.736 79.0125 367.639 76.3833C354.934 75.0196 341.211 73.2723 331.085 64.4929C328.589 62.3279 326.512 59.6031 324.782 56.7801C324.47 56.2696 322.997 52.676 322.509 52.4884C321.059 51.9308 319.842 54.7721 318.553 55.4759C317.408 56.1009 315.779 56.4454 314.506 56.8263C313.308 57.185 309.086 57.2567 308.337 57.8793C306.464 59.4367 306.612 68.44 306.597 70.5295C306.547 77.7261 308.151 84.8978 311.118 91.4501C313.912 97.6211 318.187 106.107 323.776 110.146C325.188 111.167 326.459 111.696 328.249 111.612C329.527 111.552 330.795 110.655 332.126 111.122C335.495 112.302 334.29 114.647 331.7 115.755C324.298 118.926 318.059 111.956 313.779 107.087C312.525 112.864 318.337 119.7 321.413 124.414C323.372 127.418 325.31 130.424 327.174 133.49C328.528 135.716 331.189 139.827 326.463 138.108C324.182 150.09 317.925 160.57 314.729 172.215C311.449 184.168 308.589 197.817 308.589 210.266C311.087 208.525 312.347 200.589 315.707 206.663C316.07 207.32 315.956 208.407 316.435 208.981C317.098 209.776 317.895 209.555 318.911 210.121C320.52 211.018 321.559 212.806 320.12 214.357C321.973 213.925 323.915 214.145 324.314 216.341C324.538 217.573 322.736 223.28 321.392 223.746C317.294 225.167 312.75 216.974 311.64 214.368C309.079 216.941 306.13 218.92 303.77 214.758C302.011 211.657 303.032 206.964 303.28 203.588C303.78 196.786 304.432 190.152 305.412 183.416C307.25 170.785 311.914 159.551 317.643 148.181C319.22 145.052 320.968 141.849 322.377 138.647C324.502 133.816 321.177 134.956 317.927 135.657C311.561 137.032 304.894 138.099 298.461 138.586C295.103 138.84 290.803 138.991 287.576 139.963C285.307 140.646 285.696 140.174 284.785 142.608C284.377 143.696 283.918 144.855 283.199 145.787C279.533 150.544 270.038 149.748 264.794 149.393C265.112 147.387 265.426 145.38 265.755 143.376C261.719 144.326 256.924 144.987 252.767 144.938C250.529 144.913 248.148 144.571 245.916 144.385C244.27 144.248 241.149 143.079 239.6 143.534C237.804 144.061 235.087 150.565 234.06 152.662C232.132 156.6 228.686 160.975 227.469 165.121C226.39 168.797 228.592 175.14 229.283 178.799C230.282 184.089 231.193 189.388 232.868 194.517C234.082 198.235 235.482 203.361 239.21 205.216C242.925 207.065 245.595 208.105 249.616 207.728C256.696 207.066 264.229 208.154 271.218 209.532C278.416 210.952 285.008 211.591 291.843 214.12C307.345 219.858 317.217 237.533 311.372 253.725C308.01 263.038 302.472 269.959 294.348 275.72C290.208 278.656 285.317 281.038 280.778 283.301C278.695 284.34 276.646 285.6 274.522 286.523C272.97 287.197 270.303 288.75 268.617 288.92C270.488 289.811 272.144 288.977 274.092 288.7C276.847 288.307 279.66 288.223 282.425 287.881C286.729 287.348 290.969 286.945 295.275 286.41C298.949 285.953 303.096 285.791 306.748 286.317C308.512 286.571 311.168 287.073 312.739 287.924C313.974 288.594 315.107 290.136 316.436 290.9C317.898 284.89 317.214 277.481 317.282 271.305C317.338 266.263 317.563 261.333 318.037 256.315C318.567 250.702 315.139 244.32 313.873 238.823C312.688 233.678 309.531 227.158 310.693 221.788C312.158 215.018 315.993 227.179 316.52 228.918C318.171 234.358 320.087 239.668 321.916 245.044C324.093 251.439 326.285 257.635 329.454 263.627C332.092 268.614 335.123 274.463 340.543 276.895C340.096 269.562 339.599 262.772 336.554 256.011C333.668 249.6 329.265 243.898 327.34 237.028C326.384 233.614 326.244 230.123 326.197 226.597C326.165 224.224 326.273 221.035 328.814 223.593C330.829 225.622 331.22 232.091 332.103 234.822C332.528 236.136 333.116 237.343 333.585 238.621C333.797 239.197 335.22 242.002 335.22 242.378C336.687 246.811 339.93 251.063 342.21 255.143Z" fill="black"/>
<path fill-rule="evenodd" clip-rule="evenodd" d="M186.614 93.5291C186.754 95.2462 187.749 99.6967 186.475 101.056C184.786 102.859 183.986 100.54 183.256 98.7111C181.73 94.8903 180.972 87.4915 183.987 84.3075C187.135 80.9826 193.355 80.893 196.715 77.5817C198.063 76.2516 197.934 76.5292 197.816 74.4496C197.75 73.2754 196.991 71.7153 196.625 70.6599C195.671 67.9176 194.626 65.2082 193.629 62.4819C191.887 63.2771 189.38 65.73 187.664 63.674C186.078 61.773 188.717 58.6583 190.555 58.1025C189.595 56.0017 185.074 56.3901 184.213 53.3042C183.464 50.6222 185.614 51.6879 186.085 50.6316C186.638 49.3886 185.505 47.7082 186.088 46.5629C188.112 42.586 190.354 49.8982 191.363 51.2033C193.238 53.6308 196.506 54.1611 196.794 57.8329C196.971 60.0935 196.801 61.1447 197.731 63.3647C198.587 65.4085 199.605 67.3684 200.323 69.4716C201.405 72.6405 203.072 78.4075 200.959 81.4761C199.177 84.0643 194.85 86.0374 192.036 87.1441C190.626 87.6979 188.673 88.0354 187.533 89.1144C186.045 90.5218 186.508 91.3868 186.614 93.5291Z" fill="black"/>
<path fill-rule="evenodd" clip-rule="evenodd" d="M332.814 189.354C332.493 188.848 332.172 188.341 331.851 187.835C329.624 190.216 327.158 191.195 324.907 188.17C322.59 185.055 323.46 180.384 324.361 176.983C324.825 175.232 327.17 168.33 328.673 173.588C329.004 174.749 327.896 177.332 327.695 178.468C327.301 180.697 326.99 182.835 327.268 185.104C329.878 182.764 331.157 176.832 333.806 182.992C334.767 185.226 334.873 188.904 337.43 185.511C338.796 183.7 338.883 180.355 339.523 178.22C343.883 179.264 343.088 185.721 341.633 188.866C339.315 193.876 336.162 192.263 332.814 189.354Z" fill="black"/>
<path fill-rule="evenodd" clip-rule="evenodd" d="M348.08 76.9874C349.631 79.5775 346.697 84.3142 346.166 86.9736C348.764 86.6724 355.193 80.3972 357.002 81.4318C360.77 83.585 352.812 91.0946 351.283 92.1952C339.064 100.99 341.267 75.5503 348.08 76.9874Z" fill="black"/>
<path fill-rule="evenodd" clip-rule="evenodd" d="M332.758 105.831C337.323 104.558 343.479 112.763 340.517 116.826C338.393 119.74 335.769 118.073 335.103 115.508C334.764 114.199 335.065 112.623 334.621 111.163C334.075 109.367 333.343 107.616 332.758 105.831Z" fill="black"/>
<path fill-rule="evenodd" clip-rule="evenodd" d="M192.351 70.4666C195.823 73.3885 188.729 80.512 185.173 74.934C184.195 73.3998 184.017 71.9994 185.467 71.4328C186.199 71.1472 187.927 72.0828 188.96 71.9174C190.093 71.7359 191.324 70.9379 192.351 70.4666Z" fill="black"/>
<path fill-rule="evenodd" clip-rule="evenodd" d="M180.422 58.7825C179.075 57.0998 175.289 46.7489 179.98 49.0543C182.336 50.2119 184.283 59.0606 180.422 58.7825Z" fill="black"/>
<path fill-rule="evenodd" clip-rule="evenodd" d="M335.321 281.409C335.188 280.103 335.055 278.796 334.921 277.489C336.654 278.374 340.129 279.248 340.732 281.228C341.865 284.948 336.605 281.972 335.321 281.409Z" fill="black"/>
<path fill-rule="evenodd" clip-rule="evenodd" d="M385.605 123.852C384.573 122.456 381.365 110.814 384.148 111.081C384.636 115.304 384.736 119.69 385.605 123.852Z" fill="black"/>
<path fill-rule="evenodd" clip-rule="evenodd" d="M342.21 255.143C339.93 251.064 336.687 246.812 335.219 242.378C338.658 245.167 341.345 250.863 342.21 255.143Z" fill="black"/>
<path fill-rule="evenodd" clip-rule="evenodd" d="M435.701 245.686C435.84 247.165 435.979 248.643 436.118 250.121C434.052 250.655 435.574 246.174 435.701 245.686Z" fill="black"/>
<path fill-rule="evenodd" clip-rule="evenodd" d="M335.224 242.385C334.246 241.319 333.828 240.009 333.585 238.622C334.131 239.875 334.677 241.13 335.224 242.385Z" fill="black"/>
<path fill-rule="evenodd" clip-rule="evenodd" d="M347.047 309.317C347.083 308.002 347.12 306.686 347.156 305.374C347.12 306.69 347.083 308.004 347.047 309.317Z" fill="black"/>
<path fill-rule="evenodd" clip-rule="evenodd" d="M192.601 95.8614C193.475 95.9703 194.35 96.0792 195.225 96.188C194.535 96.5119 192.908 96.9422 192.601 95.8614Z" fill="black"/>
<path fill-rule="evenodd" clip-rule="evenodd" d="M367.046 323.125C367.957 322.987 368.87 322.673 369.764 323.178C368.857 323.16 367.952 323.142 367.046 323.125Z" fill="black"/>
<path fill-rule="evenodd" clip-rule="evenodd" d="M341.039 293.405C341.051 294.379 341.063 295.354 341.074 296.325C341.061 295.349 341.05 294.378 341.039 293.405Z" fill="black"/>
<path fill-rule="evenodd" clip-rule="evenodd" d="M359.846 278.244C359.788 279.283 359.731 280.322 359.674 281.359C359.731 280.319 359.788 279.282 359.846 278.244Z" fill="black"/>
<path fill-rule="evenodd" clip-rule="evenodd" d="M347.463 282.311C347.414 281.406 347.364 280.502 347.315 279.6C347.365 280.505 347.414 281.408 347.463 282.311Z" fill="black"/>
<path fill-rule="evenodd" clip-rule="evenodd" d="M374.51 290.286C374.461 291.092 374.412 291.897 374.363 292.7C374.412 291.894 374.461 291.09 374.51 290.286Z" fill="black"/>
<path fill-rule="evenodd" clip-rule="evenodd" d="M211.091 310.629C210.206 311.076 209.321 311.12 208.438 310.623C209.323 310.625 210.207 310.627 211.091 310.629Z" fill="black"/>
<path fill-rule="evenodd" clip-rule="evenodd" d="M301.714 67.3125C301.727 68.1086 301.739 68.9048 301.752 69.6976C301.738 68.9005 301.726 68.1068 301.714 67.3125Z" fill="black"/>
<path fill-rule="evenodd" clip-rule="evenodd" d="M213.79 89.0339C212.883 89.1028 211.976 89.1711 211.07 89.2399C211.977 89.1711 212.884 89.1028 213.79 89.0339Z" fill="black"/>
<path fill-rule="evenodd" clip-rule="evenodd" d="M401.089 92.0977C401.084 91.312 401.08 90.5262 401.076 89.7419C401.492 90.5262 401.5 91.3111 401.089 92.0977Z" fill="black"/>
<path fill-rule="evenodd" clip-rule="evenodd" d="M186.614 93.5291C186.573 92.6943 186.531 91.86 186.49 91.0266C186.532 91.8619 186.573 92.6952 186.614 93.5291Z" fill="black"/>
<path fill-rule="evenodd" clip-rule="evenodd" d="M409.422 340.145C410.035 340.149 410.647 340.153 411.254 340.157C410.639 340.153 410.031 340.149 409.422 340.145Z" fill="black"/>
<path fill-rule="evenodd" clip-rule="evenodd" d="M168.385 21.8227C167.579 21.8915 166.774 21.9603 165.969 22.0287C166.774 21.9603 167.579 21.8915 168.385 21.8227Z" fill="black"/>
<path fill-rule="evenodd" clip-rule="evenodd" d="M247.82 329.759C248.339 329.758 248.858 329.758 249.371 329.758C248.85 329.759 248.335 329.759 247.82 329.759Z" fill="black"/>
<path fill-rule="evenodd" clip-rule="evenodd" d="M328.249 111.612C327.461 111.533 326.674 111.454 325.887 111.375C326.674 111.454 327.462 111.533 328.249 111.612Z" fill="black"/>
<path fill-rule="evenodd" clip-rule="evenodd" d="M364.044 328.383C364.092 327.733 364.14 327.083 364.189 326.436C364.14 327.087 364.092 327.735 364.044 328.383Z" fill="black"/>
<path fill-rule="evenodd" clip-rule="evenodd" d="M278.801 103.29C278.026 103.283 277.25 103.276 276.476 103.269C277.255 102.818 278.029 102.947 278.801 103.29Z" fill="black"/>
<path fill-rule="evenodd" clip-rule="evenodd" d="M175.358 22.0399C174.576 22.0149 173.75 22.4227 173.03 21.8024C173.806 21.8816 174.582 21.9607 175.358 22.0399Z" fill="black"/>
<path fill-rule="evenodd" clip-rule="evenodd" d="M154.253 98.7538C153.504 98.8226 152.755 98.8914 152.006 98.9598C152.756 98.891 153.504 98.8226 154.253 98.7538Z" fill="black"/>
<path fill-rule="evenodd" clip-rule="evenodd" d="M201.437 309.955C200.648 310.038 199.858 310.12 199.07 310.203C199.859 310.12 200.648 310.038 201.437 309.955Z" fill="black"/>
<path fill-rule="evenodd" clip-rule="evenodd" d="M221.075 88.5582C220.306 88.5747 219.537 88.5912 218.768 88.6077C219.531 88.3018 220.294 88.0133 221.075 88.5582Z" fill="black"/>
<path fill-rule="evenodd" clip-rule="evenodd" d="M347.019 299.299C347.014 298.631 347.01 297.963 347.005 297.297C347.01 297.965 347.014 298.632 347.019 299.299Z" fill="black"/>
<path fill-rule="evenodd" clip-rule="evenodd" d="M435.984 242.661C435.901 243.469 435.817 244.275 435.735 245.083C435.817 244.276 435.901 243.469 435.984 242.661Z" fill="black"/>
<path fill-rule="evenodd" clip-rule="evenodd" d="M336.155 294.699C336.098 294.012 336.041 293.324 335.984 292.639C336.041 293.327 336.098 294.013 336.155 294.699Z" fill="black"/>
<path fill-rule="evenodd" clip-rule="evenodd" d="M77.366 288.385C77.2252 289.071 76.7263 289.205 75.8691 288.79L77.366 288.385Z" fill="black"/>
<path fill-rule="evenodd" clip-rule="evenodd" d="M364.876 288.69C364.83 288.093 364.784 287.496 364.739 286.9C364.785 287.497 364.83 288.094 364.876 288.69Z" fill="black"/>
<path fill-rule="evenodd" clip-rule="evenodd" d="M203.677 89.9969C203.03 90.085 202.383 90.1727 201.735 90.2608C202.383 90.1727 203.03 90.085 203.677 89.9969Z" fill="black"/>
<path fill-rule="evenodd" clip-rule="evenodd" d="M340.649 283.6C340.648 284.186 340.647 284.773 340.646 285.357C340.647 284.77 340.648 284.185 340.649 283.6Z" fill="black"/>
<path fill-rule="evenodd" clip-rule="evenodd" d="M301.598 73.0988C301.599 73.6535 301.599 74.2079 301.6 74.7598C301.599 74.2046 301.599 73.6517 301.598 73.0988Z" fill="black"/>
<path fill-rule="evenodd" clip-rule="evenodd" d="M65.4631 203.036C65.399 203.62 65.335 204.205 65.2715 204.787C65.3355 204.202 65.399 203.619 65.4631 203.036Z" fill="black"/>
<path fill-rule="evenodd" clip-rule="evenodd" d="M453.292 243.219C453.257 242.669 453.223 242.118 453.189 241.571C453.223 242.122 453.257 242.671 453.292 243.219Z" fill="black"/>
<path fill-rule="evenodd" clip-rule="evenodd" d="M118.919 315.88C118.25 315.869 117.581 315.858 116.912 315.848C117.589 315.383 118.256 315.483 118.919 315.88Z" fill="black"/>
<path fill-rule="evenodd" clip-rule="evenodd" d="M196.81 58.6596C196.799 58.1077 196.789 57.5557 196.778 57.0056C197.121 57.5519 197.231 58.1006 196.81 58.6596Z" fill="black"/>
<path fill-rule="evenodd" clip-rule="evenodd" d="M143.405 51.6591C143.451 51.1147 143.498 50.5703 143.544 50.0291C143.497 50.5745 143.451 51.1166 143.405 51.6591Z" fill="black"/>
<path fill-rule="evenodd" clip-rule="evenodd" d="M364.482 242.236C364.459 241.636 364.435 241.035 364.413 240.436C364.436 241.037 364.459 241.636 364.482 242.236Z" fill="black"/>
<path fill-rule="evenodd" clip-rule="evenodd" d="M360.176 273.234C360.16 273.8 360.143 274.366 360.126 274.929C360.142 274.361 360.159 273.798 360.176 273.234Z" fill="black"/>
<path fill-rule="evenodd" clip-rule="evenodd" d="M283.188 327.809C283.608 327.808 284.027 327.807 284.441 327.808C284.021 327.809 283.605 327.809 283.188 327.809Z" fill="black"/>
<path fill-rule="evenodd" clip-rule="evenodd" d="M79.2358 328.096C79.6543 328.107 80.0723 328.119 80.4856 328.13C80.0657 328.119 79.6505 328.108 79.2358 328.096Z" fill="black"/>
<path fill-rule="evenodd" clip-rule="evenodd" d="M332.229 278.43C328.149 275.273 324.592 270.552 323.764 265.499C325.519 267.483 326.993 269.698 328.748 271.682C329.446 272.469 330.301 273.148 330.97 273.95C332.497 275.781 332.229 275.862 332.229 278.43Z" fill="black"/>
<path fill-rule="evenodd" clip-rule="evenodd" d="M317.897 257.092C315.939 252.575 314.239 247.097 314.58 242.114C315.931 246.638 319.065 252.321 317.897 257.092Z" fill="black"/>
<path fill-rule="evenodd" clip-rule="evenodd" d="M324.466 283.651C324.433 284.962 324.4 286.274 324.368 287.582C324.402 286.269 324.434 284.96 324.466 283.651Z" fill="black"/>
<path fill-rule="evenodd" clip-rule="evenodd" d="M65.5332 319.292C66.8714 319.371 68.2101 319.451 69.5483 319.531C68.204 319.549 66.8418 319.875 65.5332 319.292Z" fill="black"/>
<path fill-rule="evenodd" clip-rule="evenodd" d="M324.459 279.319C324.464 280.437 324.469 281.556 324.473 282.671C324.469 281.552 324.464 280.436 324.459 279.319Z" fill="black"/>
<path fill-rule="evenodd" clip-rule="evenodd" d="M269.474 149.675C268.72 149.636 267.967 149.596 267.219 149.557C267.975 149.596 268.725 149.636 269.474 149.675Z" fill="black"/>
<path fill-rule="evenodd" clip-rule="evenodd" d="M281.73 121.864C281.727 120.956 281.724 120.049 281.721 119.144C281.724 120.051 281.727 120.958 281.73 121.864Z" fill="black"/>
<path fill-rule="evenodd" clip-rule="evenodd" d="M265.55 144.625C265.516 143.987 265.176 143.666 264.531 143.661C265.826 142.961 266.166 143.283 265.55 144.625Z" fill="black"/>
<path fill-rule="evenodd" clip-rule="evenodd" d="M303.936 195.104C303.986 194.297 304.037 193.489 304.088 192.684C304.037 193.492 303.986 194.298 303.936 195.104Z" fill="black"/>
<path fill-rule="evenodd" clip-rule="evenodd" d="M84.5334 319.862C85.4363 319.8 86.3391 319.737 87.2419 319.674C86.3386 319.737 85.4363 319.8 84.5334 319.862Z" fill="black"/>
<path fill-rule="evenodd" clip-rule="evenodd" d="M274.15 210.242L276.836 210.223C275.94 210.23 275.045 210.236 274.15 210.242Z" fill="black"/>
<path fill-rule="evenodd" clip-rule="evenodd" d="M299.792 111.85C299.167 111.855 298.542 111.86 297.923 111.865C298.55 111.86 299.171 111.855 299.792 111.85Z" fill="black"/>
<path fill-rule="evenodd" clip-rule="evenodd" d="M430.02 330.332C430.803 330.328 431.586 330.324 432.369 330.321C431.588 330.815 430.805 330.802 430.02 330.332Z" fill="black"/>
<path fill-rule="evenodd" clip-rule="evenodd" d="M101.224 221.779C100.693 221.794 100.162 221.809 99.636 221.824C100.169 221.809 100.696 221.794 101.224 221.779Z" fill="black"/>
<path fill-rule="evenodd" clip-rule="evenodd" d="M383.251 104.303C383.754 104.789 383.093 105.905 382.494 105.52C382.747 105.114 382.999 104.709 383.251 104.303Z" fill="black"/>
<path fill-rule="evenodd" clip-rule="evenodd" d="M137.769 270.925C137.791 270.239 137.813 269.551 137.836 268.866C137.813 269.553 137.791 270.239 137.769 270.925Z" fill="black"/>
<path fill-rule="evenodd" clip-rule="evenodd" d="M317.283 271.305C317.319 270.588 317.355 269.872 317.39 269.156C317.354 269.873 317.318 270.589 317.283 271.305Z" fill="black"/>
<path fill-rule="evenodd" clip-rule="evenodd" d="M442.56 196.633C442.589 197.351 442.62 198.068 442.649 198.783C442.619 198.065 442.589 197.349 442.56 196.633Z" fill="black"/>
<path fill-rule="evenodd" clip-rule="evenodd" d="M200.649 277.879C201.451 277.948 202.252 278.017 203.054 278.085C202.252 278.017 201.45 277.948 200.649 277.879Z" fill="black"/>
<path fill-rule="evenodd" clip-rule="evenodd" d="M310.635 222.855C310.674 222.143 310.713 221.43 310.753 220.719C310.713 221.432 310.674 222.144 310.635 222.855Z" fill="black"/>
<path fill-rule="evenodd" clip-rule="evenodd" d="M171.287 236.412C172.086 236.486 172.885 236.559 173.685 236.633C172.885 236.559 172.086 236.485 171.287 236.412Z" fill="black"/>
<path fill-rule="evenodd" clip-rule="evenodd" d="M242.013 298.728C241.498 298.729 240.983 298.729 240.474 298.729C240.991 298.728 241.502 298.728 242.013 298.728Z" fill="black"/>
<path fill-rule="evenodd" clip-rule="evenodd" d="M287.414 124.544C287.383 125.21 287.353 125.876 287.323 126.538C287.354 125.872 287.384 125.208 287.414 124.544Z" fill="black"/>
<path fill-rule="evenodd" clip-rule="evenodd" d="M298.817 286.089C299.609 285.526 300.378 285.897 301.151 286.141C300.373 286.124 299.595 286.106 298.817 286.089Z" fill="black"/>
<path fill-rule="evenodd" clip-rule="evenodd" d="M206.319 95.5265C205.798 95.5053 205.278 95.4837 204.763 95.4601C205.286 95.4813 205.802 95.5039 206.319 95.5265Z" fill="black"/>
<path fill-rule="evenodd" clip-rule="evenodd" d="M332.449 298.336C332.402 297.672 332.356 297.01 332.309 296.349C332.356 297.013 332.402 297.674 332.449 298.336Z" fill="black"/>
<path fill-rule="evenodd" clip-rule="evenodd" d="M289.848 223.488C289.42 223.491 288.991 223.494 288.567 223.498C288.998 223.495 289.423 223.492 289.848 223.488Z" fill="black"/>
<path fill-rule="evenodd" clip-rule="evenodd" d="M307.938 247.572C307.938 247.019 307.939 246.466 307.939 245.916C307.939 246.47 307.938 247.021 307.938 247.572Z" fill="black"/>
<path fill-rule="evenodd" clip-rule="evenodd" d="M280.5 288.132C281.142 288.048 281.784 287.965 282.426 287.881C281.783 287.965 281.141 288.048 280.5 288.132Z" fill="black"/>
<path fill-rule="evenodd" clip-rule="evenodd" d="M252.732 207.671C253.428 207.667 254.124 207.662 254.819 207.658C254.126 208.067 253.43 207.99 252.732 207.671Z" fill="black"/>
<path fill-rule="evenodd" clip-rule="evenodd" d="M288.771 139.974C288.369 139.97 287.967 139.966 287.571 139.963C287.974 139.966 288.373 139.97 288.771 139.974Z" fill="black"/>
<path fill-rule="evenodd" clip-rule="evenodd" d="M169.965 242.564C169.55 242.558 169.136 242.552 168.727 242.546C169.143 242.552 169.554 242.558 169.965 242.564Z" fill="black"/>
<path fill-rule="evenodd" clip-rule="evenodd" d="M89.8705 215.338C90.5648 215.345 91.2591 215.353 91.9534 215.36C91.2548 215.753 90.5605 215.763 89.8705 215.338Z" fill="black"/>
<path fill-rule="evenodd" clip-rule="evenodd" d="M442.627 216.489C442.583 217.019 442.539 217.55 442.497 218.077C442.541 217.545 442.584 217.017 442.627 216.489Z" fill="black"/>
<path fill-rule="evenodd" clip-rule="evenodd" d="M265.873 301.741C265.932 301.162 265.991 300.582 266.05 300.005C265.99 300.585 265.932 301.163 265.873 301.741Z" fill="black"/>
<path fill-rule="evenodd" clip-rule="evenodd" d="M153.61 232.726C154.311 232.736 155.013 232.746 155.715 232.756C155.006 233.245 154.308 232.937 153.61 232.726Z" fill="black"/>
<path fill-rule="evenodd" clip-rule="evenodd" d="M313.555 131.037C314.238 130.96 314.92 130.883 315.602 130.805C314.92 130.883 314.238 130.96 313.555 131.037Z" fill="black"/>
<path fill-rule="evenodd" clip-rule="evenodd" d="M256.533 316.679C256.594 317.288 256.656 317.896 256.717 318.503C256.656 317.894 256.594 317.287 256.533 316.679Z" fill="black"/>
<path fill-rule="evenodd" clip-rule="evenodd" d="M317.294 276.658C317.293 276.09 317.291 275.523 317.291 274.958C317.292 275.526 317.293 276.092 317.294 276.658Z" fill="black"/>
<path fill-rule="evenodd" clip-rule="evenodd" d="M69.8804 319.611C70.5408 319.699 71.2012 319.785 71.8611 319.873C71.2007 319.785 70.5403 319.699 69.8804 319.611Z" fill="black"/>
<path fill-rule="evenodd" clip-rule="evenodd" d="M82.2697 319.879C82.9216 319.345 83.5834 319.509 84.2475 319.851C83.5881 319.86 82.9286 319.87 82.2697 319.879Z" fill="black"/>
<path fill-rule="evenodd" clip-rule="evenodd" d="M201.399 241.673C202.045 241.594 202.691 241.515 203.335 241.435C202.69 241.515 202.044 241.594 201.399 241.673Z" fill="black"/>
<path fill-rule="evenodd" clip-rule="evenodd" d="M273.155 322.885C273.813 322.797 274.471 322.708 275.129 322.62C274.471 322.708 273.813 322.797 273.155 322.885Z" fill="black"/>
<path fill-rule="evenodd" clip-rule="evenodd" d="M250.139 323.908C250.81 323.822 251.481 323.736 252.152 323.65C251.481 323.736 250.81 323.822 250.139 323.908Z" fill="black"/>
<path fill-rule="evenodd" clip-rule="evenodd" d="M287.087 128.569C287.057 129.112 287.028 129.655 286.999 130.194C287.029 129.65 287.058 129.11 287.087 128.569Z" fill="black"/>
<path fill-rule="evenodd" clip-rule="evenodd" d="M129.023 257.942C129.083 257.366 129.143 256.789 129.203 256.215C129.142 256.792 129.083 257.367 129.023 257.942Z" fill="black"/>
<path fill-rule="evenodd" clip-rule="evenodd" d="M281.905 114.536C281.922 113.97 281.94 113.405 281.958 112.843C281.941 113.409 281.923 113.972 281.905 114.536Z" fill="black"/>
<path fill-rule="evenodd" clip-rule="evenodd" d="M153.729 251.535C153.788 252.112 153.847 252.689 153.906 253.263C153.847 252.685 153.787 252.11 153.729 251.535Z" fill="black"/>
<path fill-rule="evenodd" clip-rule="evenodd" d="M155.953 232.732C156.633 232.807 157.314 232.882 157.994 232.957C157.313 232.882 156.633 232.807 155.953 232.732Z" fill="black"/>
<path fill-rule="evenodd" clip-rule="evenodd" d="M264.304 316.834C264.692 317.973 264.55 320.624 263.449 321.426C261.166 323.093 260.931 320.05 260.478 318.406C259.22 313.845 257.196 308.753 256.68 304.064C256.522 302.626 256.436 299.932 258.336 299.447C260.17 298.98 261.098 301.889 261.731 303.383C263.485 307.529 264.503 312.339 264.304 316.834Z" fill="black"/>
<path fill-rule="evenodd" clip-rule="evenodd" d="M264.304 316.834C264.33 316.245 264.357 315.656 264.383 315.07C264.356 315.659 264.33 316.247 264.304 316.834Z" fill="black"/>
</svg>
