<svg width="99" height="39" viewBox="0 0 99 39" fill="none" xmlns="http://www.w3.org/2000/svg">
<rect x="2" y="2" width="96" height="36" rx="7" stroke="#22322F" stroke-width="2"/>
<rect x="0.5" y="0.5" width="97" height="37" rx="7.5" fill="#F9F9F9" stroke="#22322F"/>
<path d="M33.2674 14.7707C33.2674 15.7487 32.4711 16.5415 31.4888 16.5415C30.5065 16.5415 29.7102 15.7487 29.7102 14.7707C29.7102 13.7928 30.5065 13 31.4888 13C32.4711 13 33.2674 13.7928 33.2674 14.7707Z" fill="#22322F"/>
<path d="M33.2712 22.4524C33.2712 23.4303 32.4749 24.2231 31.4926 24.2231C30.5103 24.2231 29.714 23.4303 29.714 22.4524C29.714 21.4744 30.5103 20.6816 31.4926 20.6816C32.4749 20.6816 33.2712 21.4744 33.2712 22.4524Z" fill="#22322F"/>
<path d="M25.5572 14.7707C25.5572 15.7487 24.7609 16.5415 23.7786 16.5415C22.7963 16.5415 22 15.7487 22 14.7707C22 13.7928 22.7963 13 23.7786 13C24.7609 13 25.5572 13.7928 25.5572 14.7707Z" fill="#22322F"/>
<path d="M25.5617 22.4451C25.5617 23.423 24.7654 24.2158 23.7831 24.2158C22.8008 24.2158 22.0045 23.423 22.0045 22.4451C22.0045 21.4671 22.8008 20.6743 23.7831 20.6743C24.7654 20.6743 25.5617 21.4671 25.5617 22.4451Z" fill="#22322F"/>
<path d="M53.3842 23V17.408L51.2002 21.572H50.2762L48.0922 17.408V23H46.4362V14.48H48.2122L50.7322 19.328L53.2762 14.48H55.0402V23H53.3842ZM59.4736 23.12C58.7936 23.12 58.2056 22.972 57.7096 22.676C57.2216 22.38 56.8416 21.988 56.5696 21.5C56.2976 21.004 56.1616 20.468 56.1616 19.892C56.1616 19.3 56.2936 18.756 56.5576 18.26C56.8296 17.756 57.2136 17.356 57.7096 17.06C58.2056 16.756 58.7976 16.604 59.4856 16.604C60.1736 16.604 60.7616 16.756 61.2496 17.06C61.7376 17.356 62.1096 17.752 62.3656 18.248C62.6296 18.736 62.7616 19.264 62.7616 19.832C62.7616 20.04 62.7496 20.22 62.7256 20.372H57.8656C57.9056 20.86 58.0856 21.244 58.4056 21.524C58.7336 21.804 59.1096 21.944 59.5336 21.944C59.8536 21.944 60.1536 21.868 60.4336 21.716C60.7216 21.556 60.9176 21.348 61.0216 21.092L62.4016 21.476C62.1696 21.956 61.7976 22.352 61.2856 22.664C60.7736 22.968 60.1696 23.12 59.4736 23.12ZM57.8296 19.352H61.1176C61.0696 18.88 60.8896 18.5 60.5776 18.212C60.2736 17.916 59.9016 17.768 59.4616 17.768C59.0296 17.768 58.6576 17.916 58.3456 18.212C58.0416 18.5 57.8696 18.88 57.8296 19.352ZM69.5852 23H67.9772V19.472C67.9772 18.968 67.8892 18.6 67.7132 18.368C67.5372 18.136 67.2932 18.02 66.9812 18.02C66.7652 18.02 66.5452 18.076 66.3212 18.188C66.1052 18.3 65.9092 18.456 65.7332 18.656C65.5572 18.848 65.4292 19.072 65.3492 19.328V23H63.7412V16.712H65.1932V17.876C65.4252 17.484 65.7612 17.176 66.2012 16.952C66.6412 16.72 67.1372 16.604 67.6892 16.604C68.0812 16.604 68.4012 16.676 68.6492 16.82C68.8972 16.956 69.0892 17.144 69.2252 17.384C69.3612 17.616 69.4532 17.88 69.5012 18.176C69.5572 18.472 69.5852 18.772 69.5852 19.076V23ZM70.9233 20.648V16.712H72.5313V20.3C72.5313 21.268 72.8793 21.752 73.5753 21.752C73.8873 21.752 74.1873 21.66 74.4753 21.476C74.7713 21.284 75.0113 20.996 75.1953 20.612V16.712H76.8033V21.2C76.8033 21.376 76.8313 21.5 76.8873 21.572C76.9433 21.636 77.0433 21.676 77.1873 21.692V23C77.0273 23.032 76.8913 23.052 76.7793 23.06C76.6753 23.068 76.5793 23.072 76.4913 23.072C76.2033 23.072 75.9673 23.008 75.7833 22.88C75.6073 22.744 75.5033 22.56 75.4713 22.328L75.4353 21.824C75.1553 22.256 74.7953 22.58 74.3553 22.796C73.9153 23.012 73.4313 23.12 72.9033 23.12C72.2553 23.12 71.7633 22.912 71.4273 22.496C71.0913 22.072 70.9233 21.456 70.9233 20.648Z" fill="#22322F"/>
</svg>
